<?xml version="1.0" encoding="UTF-8" standalone="no"?>
<svg
   xmlns:osb="http://www.openswatchbook.org/uri/2009/osb"
   xmlns:dc="http://purl.org/dc/elements/1.1/"
   xmlns:cc="http://creativecommons.org/ns#"
   xmlns:rdf="http://www.w3.org/1999/02/22-rdf-syntax-ns#"
   xmlns:svg="http://www.w3.org/2000/svg"
   xmlns="http://www.w3.org/2000/svg"
   xmlns:xlink="http://www.w3.org/1999/xlink"
   xmlns:sodipodi="http://sodipodi.sourceforge.net/DTD/sodipodi-0.dtd"
   xmlns:inkscape="http://www.inkscape.org/namespaces/inkscape"
   id="svg8"
   version="1.1"
   viewBox="0 0 187.50233 36.986202"
   height="36.986202mm"
   width="187.50233mm"
   sodipodi:docname="banner.svg"
   inkscape:version="0.92.3 (2405546, 2018-03-11)">
  <sodipodi:namedview
     pagecolor="#ffffff"
     bordercolor="#666666"
     borderopacity="1"
     objecttolerance="10"
     gridtolerance="10"
     guidetolerance="10"
     inkscape:pageopacity="0"
     inkscape:pageshadow="2"
     inkscape:window-width="1920"
     inkscape:window-height="1002"
     id="namedview99"
     showgrid="false"
     inkscape:zoom="0.83415563"
     inkscape:cx="329.48542"
     inkscape:cy="-65.058439"
     inkscape:window-x="0"
     inkscape:window-y="0"
     inkscape:window-maximized="1"
     inkscape:current-layer="layer1" />
  <defs
     id="defs2">
    <linearGradient
       id="linearGradient868">
      <stop
         id="stop864"
         offset="0"
         style="stop-color:#ffcc00;stop-opacity:1;" />
      <stop
         id="stop866"
         offset="1"
         style="stop-color:#ffa500;stop-opacity:1" />
    </linearGradient>
    <linearGradient
       osb:paint="solid"
       id="linearGradient846">
      <stop
         id="stop844"
         offset="0"
         style="stop-color:#d40000;stop-opacity:1;" />
    </linearGradient>
    <linearGradient
       gradientUnits="userSpaceOnUse"
       y2="111.83542"
       x2="112.73092"
       y1="131.86816"
       x1="112.56146"
       id="linearGradient870"
       xlink:href="#linearGradient868" />
    <filter
       height="1.0363818"
       y="-0.018190958"
       width="1.0055295"
       x="-0.0027647656"
       id="filter904"
       style="color-interpolation-filters:sRGB">
      <feGaussianBlur
         id="feGaussianBlur906"
         stdDeviation="0.15477045" />
    </filter>
    <filter
       height="1.0090955"
       y="-0.0045477394"
       width="1.0013824"
       x="-0.00069119141"
       id="filter916"
       style="color-interpolation-filters:sRGB">
      <feGaussianBlur
         id="feGaussianBlur918"
         stdDeviation="0.038692614" />
    </filter>
    <filter
       id="imagebot_14">
      <feGaussianBlur
         stdDeviation="1.56589"
         id="imagebot_15" />
    </filter>
    <linearGradient
       gradientUnits="userSpaceOnUse"
       gradientTransform="matrix(1.4044363,0,0,3.1494575,-0.05637689,0)"
       y2="45.225323"
       x1="78.802673"
       x2="-0.13360038"
       y1="45.015926"
       id="imagebot_10">
      <stop
         offset=".1286"
         stop-color="#8d5c34"
         id="imagebot_29" />
      <stop
         offset=".2905"
         stop-color="#e8d0a9"
         id="imagebot_28" />
      <stop
         offset=".5952"
         stop-color="#e3cba4"
         id="imagebot_27" />
      <stop
         offset="1"
         stop-color="#8d5c34"
         id="imagebot_26" />
    </linearGradient>
    <linearGradient
       gradientUnits="userSpaceOnUse"
       gradientTransform="matrix(4.6490644,0,0,0.95141992,-0.05637689,0)"
       y2="141.91286"
       x1="21.182823"
       x2="305.09961"
       y1="152.86453"
       id="imagebot_7">
      <stop
         offset="0"
         stop-color="#8d5c34"
         id="imagebot_25" />
      <stop
         offset=".0333"
         stop-color="#d1b38b"
         id="imagebot_24" />
      <stop
         offset=".9143"
         stop-color="#e3cba4"
         id="imagebot_23" />
      <stop
         offset="1"
         stop-color="#8d5c34"
         id="imagebot_22" />
    </linearGradient>
    <linearGradient
       gradientUnits="userSpaceOnUse"
       gradientTransform="matrix(0.90501234,0,0,3.3160382,449.08927,0)"
       y2="43.400368"
       x1="1137.4189"
       x2="1048.3455"
       y1="43.327991"
       id="imagebot_5">
      <stop
         offset=".0048"
         stop-color="#8d5c34"
         id="imagebot_21" />
      <stop
         offset=".1429"
         stop-color="#93633b"
         id="imagebot_20" />
      <stop
         offset=".2952"
         stop-color="#e8d0a9"
         id="imagebot_19" />
      <stop
         offset=".6381"
         stop-color="#e3cba4"
         id="imagebot_18" />
      <stop
         offset=".9333"
         stop-color="#93633a"
         id="imagebot_17" />
      <stop
         offset="1"
         stop-color="#8d5c34"
         id="imagebot_16" />
    </linearGradient>
    <linearGradient
       y2="111.83542"
       x2="112.73092"
       y1="131.86816"
       x1="112.56146"
       gradientUnits="userSpaceOnUse"
       id="linearGradient2329"
       xlink:href="#linearGradient868" />
    <linearGradient
       y2="111.83542"
       x2="112.73092"
       y1="131.86816"
       x1="112.56146"
       gradientUnits="userSpaceOnUse"
       id="linearGradient2331"
       xlink:href="#linearGradient868" />
    <linearGradient
       y2="111.83542"
       x2="112.73092"
       y1="131.86816"
       x1="112.56146"
       gradientUnits="userSpaceOnUse"
       id="linearGradient2333"
       xlink:href="#linearGradient868" />
    <linearGradient
       y2="111.83542"
       x2="112.73092"
       y1="131.86816"
       x1="112.56146"
       gradientUnits="userSpaceOnUse"
       id="linearGradient2335"
       xlink:href="#linearGradient868" />
    <linearGradient
       y2="111.83542"
       x2="112.73092"
       y1="131.86816"
       x1="112.56146"
       gradientUnits="userSpaceOnUse"
       id="linearGradient2337"
       xlink:href="#linearGradient868" />
    <linearGradient
       y2="111.83542"
       x2="112.73092"
       y1="131.86816"
       x1="112.56146"
       gradientUnits="userSpaceOnUse"
       id="linearGradient2339"
       xlink:href="#linearGradient868" />
    <linearGradient
       y2="111.83542"
       x2="112.73092"
       y1="131.86816"
       x1="112.56146"
       gradientUnits="userSpaceOnUse"
       id="linearGradient2341"
       xlink:href="#linearGradient868" />
    <linearGradient
       y2="111.83542"
       x2="112.73092"
       y1="131.86816"
       x1="112.56146"
       gradientUnits="userSpaceOnUse"
       id="linearGradient2343"
       xlink:href="#linearGradient868" />
    <linearGradient
       y2="111.83542"
       x2="112.73092"
       y1="131.86816"
       x1="112.56146"
       gradientUnits="userSpaceOnUse"
       id="linearGradient2345"
       xlink:href="#linearGradient868" />
    <linearGradient
       y2="111.83542"
       x2="112.73092"
       y1="131.86816"
       x1="112.56146"
       gradientUnits="userSpaceOnUse"
       id="linearGradient2347"
       xlink:href="#linearGradient868" />
    <linearGradient
       y2="111.83542"
       x2="112.73092"
       y1="131.86816"
       x1="112.56146"
       gradientUnits="userSpaceOnUse"
       id="linearGradient2349"
       xlink:href="#linearGradient868" />
    <linearGradient
       y2="111.83542"
       x2="112.73092"
       y1="131.86816"
       x1="112.56146"
       gradientUnits="userSpaceOnUse"
       id="linearGradient2351"
       xlink:href="#linearGradient868" />
    <linearGradient
       y2="111.83542"
       x2="112.73092"
       y1="131.86816"
       x1="112.56146"
       gradientUnits="userSpaceOnUse"
       id="linearGradient2353"
       xlink:href="#linearGradient868" />
    <linearGradient
       y2="111.83542"
       x2="112.73092"
       y1="131.86816"
       x1="112.56146"
       gradientUnits="userSpaceOnUse"
       id="linearGradient2355"
       xlink:href="#linearGradient868" />
    <linearGradient
       y2="111.83542"
       x2="112.73092"
       y1="131.86816"
       x1="112.56146"
       gradientUnits="userSpaceOnUse"
       id="linearGradient2357"
       xlink:href="#linearGradient868" />
    <linearGradient
       y2="111.83542"
       x2="112.73092"
       y1="131.86816"
       x1="112.56146"
       gradientUnits="userSpaceOnUse"
       id="linearGradient2359"
       xlink:href="#linearGradient868" />
    <linearGradient
       y2="111.83542"
       x2="112.73092"
       y1="131.86816"
       x1="112.56146"
       gradientUnits="userSpaceOnUse"
       id="linearGradient2361"
       xlink:href="#linearGradient868" />
  </defs>
  <metadata
     id="metadata5">
    <rdf:RDF>
      <cc:Work
         rdf:about="">
        <dc:format>image/svg+xml</dc:format>
        <dc:type
           rdf:resource="http://purl.org/dc/dcmitype/StillImage" />
        <dc:title />
      </cc:Work>
    </rdf:RDF>
  </metadata>
  <g
     transform="translate(-16.89876,-104.30457)"
     id="layer1">
    <g
       id="g2157"
       transform="matrix(-0.10847597,0,0,-0.10847597,193.63403,138.36351)">
      <path
         style="fill:#1a1a1a;fill-rule:evenodd;filter:url(#imagebot_14)"
         d="m 12.544,284.91 c 2.268,0.39 4.68,0.39 7.632,0 2.88,-0.4 6.012,-1.05 9.54,-2.24 l 0.324,-3.81 c 3.42,-0.25 6.516,-0.36 9.864,-0.33 3.204,0.18 6.012,0.72 9.54,0.65 3.42,-0.18 8.208,-0.83 11.448,-1.26 3.276,-0.25 5.832,-0.36 7.956,-0.32 0.252,-0.54 0.252,-1.77 0,-3.82 -0.324,-2.05 -1.728,-5.83 -1.584,-8.28 0.18,-2.3 0.936,-4.21 2.556,-5.72 -0.72,2.16 -1.044,3.96 -0.972,5.4 0.036,1.51 0.792,1.47 1.296,3.49 0.468,2.12 0.756,5 1.26,8.93 3.096,0.07 6.552,0.29 10.512,0.65 3.888,0.5 7.308,1.72 13.032,1.58 5.612,-0.18 15.332,-2.05 20.982,-2.56 5.69,-0.36 9.76,-0.25 12.75,0.33 3.42,0.97 7.52,1.4 12.7,1.58 5.22,0.25 12.46,-0.29 17.82,-0.65 5.08,-0.39 7.2,-0.72 13.04,-1.26 5.79,-0.36 15.8,-0.86 21.96,-0.93 6.12,0.1 9.9,1.4 14.65,1.26 4.71,-0.07 9.03,-0.76 13.35,-1.91 0.29,-0.9 0.61,-1.84 1.26,-3.2 0.58,-1.12 1.84,-2.13 2.23,-4.43 0.29,-2.31 -0.61,-7.85 -0.32,-9.54 0.25,-1.59 0.65,-1.69 1.59,-0.33 -0.58,2.88 -0.47,5.33 0.32,7.64 0.76,2.3 3.06,4.32 4.14,6.04 0.9,1.88 -0.32,3.32 1.58,4.47 1.88,1.15 3.86,1.65 9.54,1.91 5.55,0.28 17.39,-0.4 23.87,-0.65 6.34,-0.15 8.53,-0.18 14.22,-0.65 5.58,-0.4 13.21,-1.73 19.44,-1.91 6.12,-0.07 11.95,0.36 17.5,1.3 l -0.33,5.72 c 2.99,2.52 6.23,3.64 9.87,3.49 3.56,-0.18 -1.5632,-1.62 2.7268,-4.46 l 4.43,-274.53 V 6.5556 c -0.22,-0.182 -1.34,-0.506 -3.5,-0.973 -2.23,-0.469 3.6832,-0.865 -0.4968,-1.584 l -1.9,-2.557 c -3.17,-0.072 -5.58,0.145 -7.64,0.648 -2.05,0.611 -3.49,1.332 -4.46,2.557 l 0.32,8.2444 c -16.05,-0.289 -28.33,-0.613 -37.22,-1.262 -8.93,-0.574 -10.15,-2.1584 -15.91,-2.2304 -5.94,0.107 -13.54,1.8714 -18.76,2.2304 -5.18,0.396 -7.77,-0.07 -12.09,0 -4.47,0.217 -9.15,0.434 -14.33,0.938 -0.07,2.412 -0.15,4.428 -0.61,6.047 -0.51,1.729 -1.01,2.916 -1.91,3.852 0.61,-2.088 0.72,-4.104 0.32,-6.047 -0.5,-1.908 -1.33,-3.672 -2.88,-5.436 -5.97,-0.721 -11.7,-1.0454 -17.17,-1.2604 -5.65,-0.145 -10.73,-0.037 -15.91,0.3224 0.61,1.836 0.83,3.529 0.65,5.076 -0.33,1.621 -1.52,2.412 -1.91,4.465 -0.4,2.195 -0.51,4.824 -0.33,8.279 -0.03,-0.719 -0.14,-1.584 -0.32,-2.879 -0.29,-1.26 -0.79,-2.844 -0.97,-4.465 -0.22,-1.439 0.29,-3.203 -0.29,-4.752 -0.65,-1.584 -0.9,-3.168 -3.53,-4.463 -2.81,-1.225 -8.06,-1.8364 -12.71,-2.2324 -4.82,-0.252 -12.13,-0.072 -15.26,0.9714 -3.13,1.225 -1.51,6.014 -3.2,6.049 -1.77,0.072 -3.93,-4.752 -7.31,-5.725 -3.6,-0.8984 -8.86,0.361 -13.68,0.324 -4.83,0.072 -9.76,0.072 -14.94,0 -0.97,1.332 -1.73,2.809 -2.56,4.428 -0.83,1.729 -1.29,5.473 -2.23,5.4 -1.19,-0.035 -3.523,-4.393 -3.811,-5.725 -0.18,-1.15 2.981,-0.863 2.551,-1.906 -0.571,-1.01 -1.363,-3.7814 -5.719,-4.4304 -4.5,-0.539 -11.268,-0.07 -20.7,1.262 -0.864,4.4634 -1.98,6.6954 -3.492,6.6954 -1.62,-0.037 -3.204,-5.363 -5.724,-6.6954 -2.556,-1.225 -2.124,-0.289 -9.54,-0.648 -7.667,-0.29 -19.295,-0.504 -35.568,-0.936 -0.648,-1.945 -2.268,-3.061 -5.4,-3.492 -3.06,-0.361 1.590801,0.107 -3.988799,1.26 h -4e-4 l 3.169,271.69 c 1.62,1.04 3.24,1.65 4.464,2.23 1.188,0.61 -6.666801,0.79 -5.874801,0.93 0.215,1.37 0.432,2.74 0.648,4.15 z m 2.022801,-7.96 c 3.24,-0.61 -2.742801,-0.87 0.533199,-0.61 3.168,0.32 7.272,1.33 9.54,2.19 2.232,0.97 3.456,1.95 3.816,3.21 C 28.24,273.6 27.808,258.8 26.872,236.23 25.792,213.59 24.604,185.9 23.02,147.49 21.508,109.15 19.816,63.397 17.944,8.14 V 8.1376 c -2.088,-1.152 -4.284,-1.836 -6.984,-1.908 -2.7364,-0.037 3.462801,0.539 0.114801,1.584 1.152,89.711 2.304,179.43 3.492,269.14 z M 19.5266,9.4 c 14.688,0.684 25.38,1.115 32.616,1.295 7.056,0.18 7.308,-1.115 10.188,0 2.844,1.225 5.076,6.301 6.984,7.309 1.8,1.225 2.952,0.684 4.14,-0.648 1.152,-1.225 1.908,-3.6 2.556,-6.984 4.5,-0.395 8.424,-0.611 11.772,-0.646 3.456,-0.037 6.588,0.18 8.28,0.646 1.368,0.686 1.08,2.088 0.936,2.844 -0.216,0.828 -1.764,0.865 -1.584,1.908 0.18,1.297 1.728,3.492 2.844,4.789 1.08,1.295 2.621,3.023 3.811,2.555 1.01,-0.395 1.73,-3.348 2.56,-5.111 0.82,-1.729 1.47,-3.527 2.23,-5.4 6.05,0.252 11.19,0.361 15.59,0.324 4.35,-0.035 7.81,-0.791 10.51,-0.324 2.52,0.648 3.85,2.664 5.4,3.816 1.51,1.225 3.02,3.061 4.14,3.168 1.04,0.145 1.83,-1.295 2.52,-2.52 0.57,-1.152 -1.12,-3.385 1.29,-4.465 2.38,-1.008 8.9,-1.295 13.04,-1.26 4.1,0.217 8.78,1.225 11.52,2.197 2.66,1.008 3.45,1.584 4.46,3.814 0.83,2.377 0.18,7.668 0.97,10.189 0.76,2.592 1.88,4.248 3.5,5.111 -0.58,-3.348 -0.69,-6.084 -0.33,-8.604 0.29,-2.377 1.59,-4.068 2.23,-6.049 0.61,-1.943 0.94,-3.852 1.26,-5.725 0.58,-0.035 3.28,-0.035 7.96,0 4.72,0.072 11.3,0.182 20.05,0.324 1.41,1.656 2.41,3.564 3.17,5.725 0.68,2.232 1.01,4.572 0.97,7.309 1.26,-1.189 2.41,-2.629 3.17,-4.465 0.83,-1.836 1.26,-3.816 1.58,-6.336 11.99,0.072 21.6,-0.145 29.27,-0.648 7.6,-0.467 10.55,-2.23 16.24,-2.23 5.47,0.215 8.6,1.943 17.17,2.555 8.64,0.576 19.76,0.793 34.06,0.648 l 1.26,259.92 c -4.72,-1.05 -10.19,-1.48 -16.85,-1.3 -6.84,0.4 -16.74,1.95 -22.9,2.56 -6.08,0.57 -7.09,0.61 -13.28,0.65 -6.37,0.25 -19.12,0.39 -24.19,0 -5.11,-0.47 -4.86,-1.52 -6.05,-2.56 -1.26,-0.83 -0.43,-1.04 -1.26,-2.88 -1.01,-1.84 -3.31,-5.18 -4.14,-7.96 -0.83,-2.62 0.07,-6.3 -0.65,-7.95 -0.86,-1.48 -3.49,-2.27 -4.14,-1.26 -0.79,1.11 0.18,5 0,7.63 -0.22,2.74 -0.54,6.19 -1.26,8.28 -0.86,2.16 -1.98,3.6 -3.49,4.46 -4.75,1.05 -8.89,1.44 -12.42,1.59 -3.64,0.07 -3.46,-0.72 -8.89,-0.97 -5.51,-0.15 -15.77,-0.04 -23.55,0.32 -7.92,0.54 -17.46,2.27 -23.22,2.56 -5.72,0.39 -6.66,-0.15 -11.16,-0.65 -4.71,-0.58 -11.05,-1.84 -16.52,-2.23 -5.69,-0.18 -11.16,0.47 -16.56,0.97 -5.44,0.72 -11.446,2.41 -15.262,2.56 -3.816,0.07 -4.176,-1.26 -7.308,-1.91 -3.132,-0.51 -6.948,-0.94 -11.448,-1.3 -1.728,-3.49 -2.592,-6.55 -2.88,-9.86 -0.288,-3.21 0.144,-6.23 1.296,-9.22 -2.952,3.21 -4.968,5.65 -6.048,7.63 -1.224,1.95 -0.936,2.31 -0.648,4.14 0.288,2.02 0.936,4.47 2.232,7.64 -0.936,0.61 -3.528,0.9 -7.632,1.26 -4.284,0.36 -12.276,0.72 -17.172,0.64 -4.932,0.04 -8.676,-0.18 -11.772,-0.64 L 19.5266,9.401 Z m -5.723,273.92 -1.26,-4.14 4.578401,-1.26 c 3.3848,-0.14 -2.526401,-0.07 0.497599,0.61 3.024,0.72 5.652,1.66 8.28,3.21 -2.736,1.08 -4.932,1.62 -6.984,1.9 -2.052,0.29 -3.708,0.18 -5.112,-0.32 z M 332.7604,7.16 c -1.8,0.936 5.1132,1.477 2.3832,1.619 -2.88,0.18 -6.63,-0.035 -9.58,-0.646 -2.95,-0.576 -5.36,-1.297 -7.63,-2.557 1.19,-1.045 2.7,-1.584 4.14,-1.908 1.4,-0.252 3.13,-0.145 4.79,0.324 l 3.16,2.232 c 3.93,0.288 -1.1932,0.612 2.7368,0.936 z m -14.8268,0.973 c 0.39,26.135 0.72,61.164 0.97,106.88 0.18,45.97 0.29,100.15 0.32,165.74 0.8,2.06 2.56,3.07 5.73,2.89 3.02,-0.19 -1.7332,-1.41 3.6668,-3.82 l 4.14,-270.11 v 0.0056 c -4.18,0.9714 1.1532,1.5474 -2.0868,1.5844 -3.49,0.035 -6.41,-0.613 -8.6,-1.262 -2.16,-0.5754 -3.49,-1.0814 -4.14,-1.9074 z"
         id="imagebot_13"
         transform="matrix(4.4232125,0,0,1,-0.05637689,0)" />
      <path
         style="fill-rule:evenodd;stroke:#000000;stroke-width:0.07571317;stroke-miterlimit:10"
         stroke-miterlimit="10"
         d="m 90.653405,283.56847 c 10.031845,0.36 -19.299365,0.36 -6.242042,0 12.738852,-0.43 26.592357,-1.11 42.197447,-2.19 l 1.43312,-3.82 c 15.12739,-0.28 28.82165,-0.39 43.63057,-0.32 14.17197,0.04 26.59235,0.61 42.19745,0.61 15.12738,-0.22 36.30572,-1.01 50.63693,-1.26 14.49045,-0.29 25.79618,-0.4 35.19108,-0.32 1.11465,-0.58 1.11465,-1.8 0,-3.82 -1.43312,-2.12 -7.64331,-5.9 -7.00637,-8.28 0.79618,-2.37 4.14013,-4.28 11.30573,-5.72 -3.18471,2.05 -4.61783,3.99 -4.29936,5.43 0.15924,1.41 3.50319,1.41 5.73248,3.5 2.07007,2.08 3.34395,5 5.57325,8.89 13.69427,0.03 28.98089,0.25 46.49681,0.65 17.19745,0.39 32.32484,1.62 57.64331,1.58 24.84076,-0.29 67.85208,-2.16 92.84323,-2.56 25.16808,-0.39 43.12632,-0.28 56.35173,0.33 15.12738,0.83 33.30679,1.4 56.21903,1.58 23.08917,0.11 55.11323,-0.32 78.82165,-0.61 22.46991,-0.47 31.84713,-0.9 57.63445,-1.3 25.65464,-0.43 69.93099,-0.97 97.13375,-0.93 27.07006,0.03 43.7898,1.29 64.80006,1.26 20.87757,-0.11 39.98584,-0.79 59.09412,-1.91 1.28273,-0.79 2.69816,-1.98 5.57325,-3.17 2.52123,-1.29 8.13871,-2.23 9.86376,-4.46 1.28273,-2.38 -2.69816,-7.96 -1.41542,-9.54 1.1058,-1.66 2.83085,-1.77 6.98867,-0.33 -2.52123,2.85 -2.07891,5.3 1.41541,7.64 3.3617,2.26 13.5793,4.28 18.3121,6.04 3.9809,1.8 -1.4154,3.24 7.0329,4.47 8.2714,1.11 17.0294,1.62 42.1975,1.91 24.5046,0.18 76.9196,-0.51 105.5821,-0.65 27.8662,-0.29 38.0396,-0.22 63.0307,-0.61 24.9912,-0.47 58.121,-1.91 85.8546,-1.95 27.07,-0.14 52.8574,0.29 77.362,1.3 l -1.4155,5.72 c 13.2255,2.49 27.5567,3.6 43.6129,3.49 15.7909,-0.21 -6.8701,-1.65 12.0612,-4.46 L 1473.8698,5.2184741 v 0.004 c -0.7962,-0.18 -6.2367,-0.504 -15.6139,-0.972 -9.8638,-0.468 16.2915,-0.864 -2.1975,-1.584 l -8.4483,-2.556 c -14.0216,-0.072 -24.6816,0.144 -33.7491,0.647 -9.0676,0.612 -15.4371,1.332 -19.7276,2.557 l 1.4155,8.2789999 c -71.0368,-0.252 -125.3097,-0.684 -164.632,-1.296 -39.4993,-0.5759999 -44.9398,-2.1599999 -70.4176,-2.2309999 -26.2738,0.107 -59.846,1.872 -82.9352,2.2309999 -22.9565,0.396 -34.4126,-0.071 -53.5209,0 -19.7275,0.181 -40.60505,0.504 -63.20766,0.973 -0.17693,2.411 -1.10581,4.428 -2.87509,6.048 -2.21161,1.655 -4.46745,2.88 -8.44834,3.815 2.74239,-2.088 3.18471,-4.104 1.45966,-6.048 -2.25584,-1.872 -5.88287,-3.672 -12.73885,-5.3989999 -26.45081,-0.685 -51.75159,-1.116 -75.94656,-1.297 -25.03538,-0.144 -47.46107,-0.035 -70.41754,0.324 2.74239,1.8359999 3.67126,3.5279999 2.87509,5.0759999 -1.41543,1.62 -6.67905,2.412 -8.44834,4.464 -1.72505,2.196 -2.21161,4.824 -1.41543,8.28 -0.17693,-0.72 -0.61925,-1.584 -1.41543,-2.88 -1.45966,-1.188 -3.05201,-2.809 -4.15782,-4.428 -0.79617,-1.477 0.79618,-3.169 -1.41542,-4.788 -3.05202,-1.513 -3.67127,-3.276 -15.48125,-4.4649999 -12.38499,-1.079 -35.47416,-1.943 -56.35172,-2.195 -21.31989,-0.252 -53.65357,-0.072 -67.49823,0.936 -13.53503,1.225 -6.54635,6.0129999 -14.02158,6.0479999 -7.82909,0.072 -17.2063,-4.752 -32.51061,-5.7239999 -15.92357,-0.9 -39.14543,0.36 -60.50955,0.324 -21.31988,0.071 -43.12632,0.071 -66.08279,0 -4.29052,1.3319999 -7.60793,2.8079999 -11.27919,4.4279999 -3.67127,1.656 -5.75018,5.544 -9.86377,5.437 -5.27247,-0.036 -15.62279,-4.393 -16.89667,-5.725 -0.79618,-1.224 13.21655,-0.756 11.30573,-1.908 -2.54777,-1.08 -6.05096,-3.8149999 -25.31847,-4.4639999 -20.05485,-0.541 -49.51344,-0.073 -91.39242,1.259 -3.82165,4.4649999 -8.59872,6.6959999 -15.60509,6.6959999 -7.16561,-0.036 -14.17197,-5.3639999 -25.31847,-6.6959999 -11.30573,-1.151 -9.3949,-0.288 -42.19745,-0.611 -33.91719,-0.253 -85.35031,-0.577 -157.324819,-0.973 -2.866241,-1.943 -10.031845,-3.06 -23.885347,-3.491 -13.53503,-0.36 7.038221,0.107 -17.643305,1.26 L 54.029206,276.27347 v -0.02 c 7.165604,1.02 14.331209,1.62 19.745221,2.24 5.254776,0.5 10.509553,0.82 14.012737,0.96 0.955414,1.38 1.910828,2.74 2.866241,4.1 v 0.01 z"
         id="imagebot_12" />
      <path
         style="fill:url(#imagebot_10);fill-rule:evenodd;stroke-width:2.10314345"
         d="M 55.210341,275.85 C 54.732634,240.64 53.77722,201.36 51.707157,155.93 49.637093,110.46 46.770852,61.103 43.108432,5.34 l -1.33e-4,5e-4 c 14.808915,-1.367 28.343946,-2.016 41.239822,-1.943 12.738851,0.18 -16.273889,1.08 -5.764336,2.699 l 48.089165,274.39 c -7.96178,-0.87 -16.87898,-1.77 -29.140123,-2.7 -12.42038,-0.79 -29.140123,-2.45 -42.834389,-2.74 -13.692055,-0.36 12.932151,0 0.51177,0.8 z"
         id="imagebot_9" />
      <path
         style="fill:#412318;fill-rule:evenodd;stroke-width:2.10314345"
         d="m 93.26545,282.58 -5.254777,-3.89 -22.450015,-2.09 c 16.719743,-1.15 -7.83661,-1.3 7.611459,-0.58 15.118541,0.87 29.608983,2.38 43.462483,5.08 -12.26114,1.37 -23.885344,2.16 -34.235661,2.38 -10.98726,0.32 19.936311,-0.11 10.859876,-0.9 h 0.0044 z"
         id="imagebot_8" />
      <path
         style="fill:url(#imagebot_7);fill-rule:evenodd;stroke-width:2.10314345"
         d="M 127.31003,276.02 76.991561,6.71 v -5e-4 c 29.458599,0.322 54.617829,0.719 78.025469,0.898 23.08917,0.324 40.44585,0.434 59.3949,0.613 18.47133,0.287 38.69426,-0.396 51.43311,0.287 11.94268,0.793 15.76433,2.3045 22.45223,3.5635 6.21019,1.26 10.50955,3.707 15.92356,3.889 5.09554,0.322 11.15092,-1.117 15.76433,-2.377 4.14013,-1.225 7.00637,-2.916 9.23567,-5.0755 18.47134,-0.432 33.75796,-0.684 47.61146,-0.9 13.21656,-0.18 24.20382,-0.18 32.96178,0 7.96178,0.289 14.49044,0.938 17.19745,1.801 2.38853,1.1145 -1.11465,2.7355 -1.27389,3.8885 -0.31847,1.043 -3.18471,1.979 0,2.951 2.70701,1.26 12.73886,3.527 17.16649,3.889 3.8482,0.359 3.98089,-1.117 6.54636,-2.088 1.90198,-1.008 3.36164,-2.018 6.67905,-3.564 2.87508,-1.404 7.0329,-2.953 11.80997,-4.7885 13.84466,-0.18 30.25478,-0.18 49.18613,-0.287 19.10827,-0.072 48.38994,-0.576 63.38463,0 14.33121,0.7555 14.64083,3.1675 22.42569,4.1755 7.34253,1.152 17.0736,2.268 22.46992,2.088 5.26362,-0.252 4.46744,-2.123 7.96178,-3.275 2.56546,-0.936 1.1058,-1.98 9.24451,-2.7005 7.78486,-0.684 20.52371,-1.402 38.21656,-1.475 17.2063,0.107 49.84961,0.971 64.80006,1.764 14.33121,0.8625 16.71975,1.3665 22.46992,3.3125 4.90977,2.088 6.36943,6.264 9.20028,8.639 2.7424,2.449 6.36943,4.248 9.24452,5.689 -0.79618,-2.846 -0.1327,-5.293 1.28273,-7.488 1.41543,-2.053 4.954,-3.564 7.96178,-5.365 2.87509,-1.836 4.954,-3.492 7.96179,-5.3625 25.78732,-0.359 49.36305,-0.469 71.34641,-0.324 21.80644,0.217 41.40127,0.576 59.40375,1.2245 5.08669,2.051 9.20028,4.031 11.76574,5.939 2.69816,2.016 3.80396,3.816 3.98089,5.688 7.16561,-1.619 12.2523,-3.311 14.64084,-5.076 2.25583,-1.764 2.25583,-3.455 0,-5.363 27.86623,0.396 54.93627,0.539 81.87367,0.287 27.07,-0.215 57.3248,-0.898 77.8485,-1.475 19.5949,-0.4685 24.8585,-1.4765 39.632,-1.5115 14.1985,0.143 31.2279,1.2595 46.1784,1.7985 14.1985,0.541 18.0024,0.936 42.1974,1.188 25.0354,0.289 77.4062,0.686 103.0608,0.613 24.5046,0.035 38.8359,-0.217 43.6129,-0.613 l 3.9809,262.15 c -12.2523,-0.97 -28.3528,-1.48 -48.8765,-1.51 -21.1872,0.03 -46.6649,1.04 -74.0446,1.51 -27.8662,0.61 -60.023,1.48 -89.6585,1.76 -29.9451,0.29 -63.5615,0.4 -87.27,0.33 -23.8853,0.18 -42.9936,0.5 -55.4228,0 -12.8716,-0.43 -16.0563,-1.77 -21.1872,-3.31 -5.5732,-1.59 -6.8117,-3.71 -10.483,-5.98 -4.1578,-2.09 -9.5542,-4.64 -11.9427,-6.84 -2.5654,-2.09 -2.2558,-5.15 -3.9809,-5.98 -2.69814,-0.61 -7.65214,-0.07 -9.24449,1.48 -1.28273,1.66 0.79618,5.54 0,7.78 -1.28273,2.3 -4.15782,3.92 -7.96178,5.68 -4.15782,1.88 -5.0867,4.07 -15.74664,5.08 -10.83687,1.12 -27.55661,1.19 -50.15923,1.19 -23.39879,0 -51.92851,-1.37 -88.55271,-1.19 -37.73001,0.36 -91.5605,2.27 -131.36941,2.66 -39.63199,0.47 -70.55024,-0.32 -104.29936,-0.57 -34.54528,-0.22 -68.1617,-1.55 -97.75299,-1.23 -29.4586,0.47 -57.48407,3.1 -77.86623,3.32 -20.70064,0.14 -29.14013,-1.48 -46.17834,-2.09 -17.67516,-0.4 -35.82802,-0.65 -56.84713,-0.61 -3.18471,-3.64 -6.05095,-6.48 -7.96178,-8.68 -2.38854,-2.12 -4.14013,-2.92 -3.98089,-4.46 0.31847,-1.55 -2.66248,-5.0911 0.8407,-6.9311 -11.46497,1.4 -13.73879,4.8011 -16.60503,6.6411 -3.02548,1.91 2.38853,3.99 3.98089,6.26 1.43312,2.31 3.18471,4.79 5.25478,7.45 -20.38217,0.65 -40.28662,1.05 -62.10191,1.19 -22.13375,0.25 -49.52228,0.25 -67.35668,0 -17.99363,-0.11 -31.04653,-0.4 -39.16754,-0.87 z"
         id="imagebot_6" />
      <path
         style="fill:url(#imagebot_5);fill-rule:evenodd;stroke-width:1.73235548"
         d="m 1401.4142,279.59 c -0.3301,-75.93 -0.3301,-135.32 -0.8703,-181.8 -0.6303,-46.153 -0.9603,-76.755 -1.8307,-93.458 v 5e-4 c 8.0128,1.908 15.7856,3.203 24.2186,3.889 8.1028,0.756 16.2957,0.576 25.0588,0.287 8.5229,-0.215 17.4961,-0.863 26.8894,-1.799 l -13.5047,271.98 c -9.8135,1.87 -18.0364,3.17 -25.0588,3.89 -7.0225,0.93 -11.5541,1 -16.956,0.61 -5.732,-0.43 -12.0042,-1.73 -17.9463,-3.6 z"
         id="imagebot_4" />
      <path
         style="fill:#412318;fill-rule:evenodd;stroke-width:1.73235548"
         d="m 1396.8826,4.6195 c 8.2229,1.801 17.6162,2.953 27.7598,3.602 10.1735,0.646 24.5186,0.791 33.1616,0.287 8.2229,-0.396 14.0449,-1.295 17.076,-2.699 -4.3215,-0.541 -9.8134,-1.08 -16.0856,-1.477 -6.6024,-0.396 -13.955,-0.648 -22.4779,-0.9 l -10.6838,-2.375 c -6.6023,-0.43203 -12.4243,-0.28903 -17.076,0.287 -5.0718,0.613 -8.553,1.656 -11.6741,3.275 z"
         id="imagebot_3" />
      <g
         id="g1501"
         transform="matrix(4.4232125,0,0,1,-0.05637689,0)">
        <title
           id="title1005">Layer 7</title>
        <path
           id="imagebot_2"
           d="m 20.558201,283.48 c 2.268,0.39 -4.363201,0.39 -1.411201,0 2.88,-0.4 6.012,-1.05 9.54,-2.23 l 0.324,-3.82 c 3.42,-0.25 6.516,-0.36 9.864,-0.32 3.204,0.18 6.012,0.72 9.54,0.64 3.42,-0.18 8.208,-0.82 11.448,-1.26 3.276,-0.25 5.832,-0.36 7.956,-0.32 0.252,-0.54 0.252,-1.76 0,-3.82 -0.324,-2.05 -1.728,-5.83 -1.584,-8.28 0.18,-2.3 0.729066,-7.2141 2.349066,-8.7241 -0.72,2.16 -0.837066,6.9641 -0.765066,8.4041 0.036,1.51 0.792,1.48 1.296,3.49 0.468,2.13 0.756,5.01 1.26,8.93 3.096,0.07 6.552,0.29 10.512,0.65 3.888,0.5 7.308,1.73 13.032,1.58 5.616,-0.18 15.331,-2.05 20.981,-2.55 5.69,-0.36 9.76,-0.26 12.75,0.32 3.42,0.97 7.52,1.4 12.71,1.58 5.22,0.25 12.45,-0.28 17.82,-0.64 5.07,-0.4 7.2,-0.72 13.03,-1.26 5.79,-0.36 15.8,-0.87 21.96,-0.94 6.12,0.11 9.9,1.4 14.65,1.26 4.72,-0.07 9.04,-0.76 13.36,-1.91 0.28,-0.9 0.61,-1.83 1.26,-3.2 0.57,-1.12 1.83,-2.13 2.23,-4.43 0.28,-2.31 -0.61,-7.85 -0.33,-9.54 0.26,-1.59 0.65,-1.69 1.59,-0.32 -0.58,2.88 -0.47,5.32 0.32,7.63 0.76,2.3 3.06,4.32 4.14,6.05 0.9,1.87 -0.32,3.31 1.59,4.46 1.87,1.15 3.85,1.66 9.54,1.91 5.54,0.29 17.38,-0.4 23.86,-0.65 6.34,-0.14 8.53,-0.18 14.22,-0.65 5.58,-0.39 13.22,-1.73 19.44,-1.91 6.12,-0.07 11.95,0.36 17.5,1.3 l -0.32,5.73 c 2.98,2.52 6.22,3.63 9.86,3.49 3.56,-0.18 0.25544,-1.62 4.53544,-4.47 l 4.43,-274.53 V 5.1275 c -0.22,-0.182 -1.33,-0.506 -3.49,-0.973 -2.23,-0.469 1.86456,-0.865 -2.30544,-1.584 l -1.91,-2.557 v -10e-6 c -3.17,-0.072 -5.58,0.145 -7.63,0.648 -2.06,0.61101 -3.49,1.332 -4.47,2.557 l 0.33,8.2435 c -16.06,-0.289 -28.34,-0.613 -37.23,-1.262 -8.93,-0.5735 -10.15,-2.1575 -15.91,-2.2295 -5.94,0.107 -13.54,1.871 -18.76,2.2295 -5.18,0.396 -7.77,-0.07 -12.09,0 -4.47,0.217 -9.15,0.434 -14.33,0.938 -0.07,2.412 -0.14,4.428 -0.61,6.047 -0.51,1.729 -1.01,2.916 -1.91,3.852 0.61,-2.088 0.72,-4.104 0.32,-6.047 -0.5,-1.908 -1.33,-3.672 -2.88,-5.4355 -5.97,-0.721 -11.7,-1.045 -17.17,-1.26 -5.65,-0.145 -10.73,-0.037 -15.91,0.322 0.61,1.8355 0.83,3.5285 0.65,5.0755 -0.33,1.621 -1.51,2.412 -1.91,4.465 -0.4,2.195 -0.5,4.824 -0.32,8.279 -0.04,-0.719 -0.15,-1.584 -0.33,-2.879 -0.29,-1.26 -0.79,-2.844 -0.97,-4.465 -0.22,-1.439 0.29,-3.203 -0.29,-4.752 -0.65,-1.584 -0.9,-3.168 -3.53,-4.4625 -2.8,-1.225 -8.06,-1.836 -12.7,-2.232 -4.83,-0.252 -12.14,-0.072 -15.27,0.971 -3.13,1.225 -1.51,6.0135 -3.2,6.0485 -1.77,0.072 -3.93,-4.7515 -7.31,-5.7245 -3.6,-0.898 -8.86,0.361 -13.68,0.324 -4.82,0.072 -9.76,0.072 -14.94,0 -0.97,1.3315 -1.73,2.8085 -2.56,4.4275 -0.82,1.729 -1.29,5.473 -2.23,5.4 -1.182,-0.035 -3.522,-4.393 -3.81,-5.725 -0.18,-1.15 2.988,-0.863 2.556,-1.906 -0.576,-1.01 -1.368,-3.7805 -5.724,-4.4295 -4.5,-0.539 -11.268,-0.07 -20.7,1.262 -0.864,4.4625 -1.98,6.6945 -3.492,6.6945 -1.62,-0.037 -3.204,-5.3625 -5.724,-6.6945 -2.556,-1.225 -2.124,-0.289 -9.54,-0.648 -7.667,-0.29 -19.295,-0.504 -35.568,-0.936 -0.648,-1.945 -2.268,-3.061 -5.4,-3.492 -3.06,-0.361 1.591701,0.107 -3.9887989,1.26 h 4.68e-4 l 3.1689999,271.69 c 1.62,1.04 3.24,1.65 4.464,2.23 1.188,0.61 2.3755,0.79 3.1675,0.94 0.215,1.36 0.432,2.73 0.648,4.14 z m -7.0195,-7.96 c 3.24,-0.61 -2.743701,-0.86 0.532299,-0.61 3.168,0.32 7.272,1.33 9.54,2.19 2.232,0.98 3.456,1.95 3.816,3.21 -0.216,-8.14 -0.648,-22.93 -1.584,-45.51 -1.08,-22.64 -2.268,-50.32 -3.852,-88.74 C 20.479,107.72 18.787,61.968 16.915,6.71 v -5e-4 c -2.088,-1.152 -4.284,-1.836 -6.9835,-1.908 -2.736,-0.037 3.463201,0.539 0.115201,1.584 1.152,89.71 2.304,179.42 3.492,269.13 z M 18.4975,7.97 c 14.688,0.684 25.38,1.115 32.616,1.295 7.056,0.18 7.308,-1.115 10.188,0 2.844,1.225 5.076,6.301 6.984,7.309 1.8,1.224 2.952,0.684 4.14,-0.648 1.152,-1.226 1.908,-3.6 2.556,-6.984 4.5,-0.395 8.424,-0.611 11.772,-0.646 3.456,-0.037 6.588,0.18 8.28,0.646 1.368,0.686 1.08,2.088 0.936,2.844 -0.216,0.828 -1.764,0.864 -1.584,1.908 0.18,1.296 1.728,3.492 2.844,4.788 1.08,1.296 2.628,3.024 3.81,2.556 1.01,-0.396 1.73,-3.348 2.56,-5.112 0.83,-1.728 1.47,-3.526 2.23,-5.4 6.05,0.252 11.2,0.362 15.59,0.324 4.35,-0.034 7.81,-0.79 10.51,-0.324 2.52,0.648 3.85,2.664 5.4,3.816 1.51,1.226 3.02,3.062 4.14,3.168 1.04,0.146 1.84,-1.294 2.52,-2.52 0.58,-1.152 -1.12,-3.384 1.3,-4.464 2.37,-1.008 8.89,-1.295 13.03,-1.26 4.1,0.217 8.78,1.224 11.52,2.196 2.66,1.008 3.46,1.584 4.46,3.814 0.83,2.378 0.18,7.668 0.98,10.19 0.75,2.592 1.87,4.248 3.49,5.11 -0.58,-3.348 -0.69,-6.084 -0.33,-8.604 0.29,-2.376 1.59,-4.068 2.24,-6.048 0.61,-1.944 0.93,-3.852 1.26,-5.726 0.57,-0.034 3.27,-0.034 7.95,0 4.72,0.072 11.31,0.182 20.05,0.324 1.41,1.656 2.42,3.564 3.17,5.726 0.69,2.232 1.01,4.572 0.97,7.308 1.26,-1.188 2.42,-2.628 3.17,-4.464 0.83,-1.836 1.26,-3.816 1.59,-6.336 11.98,0.072 21.6,-0.146 29.26,-0.648 7.6,-0.468 10.55,-2.23 16.24,-2.23 5.47,0.214 8.6,1.942 17.17,2.554 8.64,0.576 19.77,0.794 34.06,0.648 l 1.26,259.92 c -4.72,-1.04 -10.19,-1.48 -16.85,-1.3 -6.84,0.4 -16.74,1.95 -22.9,2.56 -6.08,0.58 -7.09,0.61 -13.28,0.65 -6.37,0.25 -19.11,0.39 -24.19,0 -5.11,-0.47 -4.86,-1.51 -6.05,-2.56 -1.26,-0.83 -0.43,-1.04 -1.26,-2.88 -1.01,-1.83 -3.31,-5.18 -4.14,-7.95 -0.83,-2.63 0.07,-6.3 -0.65,-7.96 -0.86,-1.48 -3.49,-2.27 -4.14,-1.26 -0.79,1.12 0.18,5 0,7.63 -0.21,2.74 -0.54,6.19 -1.26,8.28 -0.86,2.16 -1.98,3.6 -3.49,4.47 -4.75,1.04 -8.89,1.44 -12.42,1.58 -3.64,0.07 -3.46,-0.72 -8.89,-0.97 -5.51,-0.15 -15.77,-0.04 -23.55,0.32 -7.92,0.54 -17.46,2.27 -23.22,2.56 -5.72,0.39 -6.66,-0.15 -11.16,-0.65 -4.71,-0.58 -11.05,-1.84 -16.52,-2.23 -5.69,-0.18 -11.16,0.47 -16.56,0.97 -5.44,0.72 -11.446,2.41 -15.262,2.56 -3.816,0.07 -4.176,-1.26 -7.308,-1.91 -3.132,-0.5 -6.948,-0.94 -11.448,-1.3 -1.728,-3.49 -2.592,-6.55 -2.88,-9.86 -0.288,-3.2 -0.6105,-5.4 -0.304134,-11.61554 C 66.39154,256.21556 65.7295,260.19 64.6495,262.17 c -1.224,1.94 -0.936,2.3 -0.648,4.14 0.288,2.01 0.936,4.46 2.232,7.63 -0.936,0.61 -3.528,0.9 -7.632,1.26 -4.284,0.36 -12.276,0.72 -17.172,0.65 -4.932,0.03 -8.676,-0.18 -11.772,-0.65 z m 3.319201,273.92 -1.26,-4.14 -4.463,-1.26 c 3.383,-0.14 -2.528201,-0.07 0.495799,0.61 3.024,0.72 5.652,1.66 8.28,3.21 -2.736,1.08 -4.932,1.62 -6.984,1.91 -2.052,0.28 5.335201,0.18 3.931201,-0.33 z M 333.53894,5.74 c -1.79,0.936 3.30456,1.477 0.57456,1.619 -2.88,0.18 -6.63,-0.035 -9.57,-0.646 -2.96,-0.576 -5.37,-1.297 -7.64,-2.557 1.2,-1.045 2.7,-1.584 4.14,-1.908 1.4,-0.252 3.13,-0.145 4.79,0.324 l 3.17,2.232 c 3.92,0.288 0.60544,0.612 4.53544,0.936 z M 316.9035,6.713 c 0.4,26.134 0.72,61.164 0.98,106.88 0.17,45.98 0.28,100.15 0.32,165.75 0.79,2.05 2.56,3.06 5.72,2.88 3.02,-0.18 0.0754,-1.41 5.48544,-3.82 l 4.13,-270.11 v 0.0076 c -4.17,0.971 -0.65544,1.547 -3.89544,1.584 -3.48,0.035 -6.4,-0.613 -8.6,-1.262 -2.16,-0.575 -3.49,-1.081 -4.14,-1.907 z"
           style="fill-rule:evenodd" />
      </g>
    </g>
    <g
       id="text817"
       style="font-style:normal;font-variant:normal;font-weight:normal;font-stretch:normal;font-size:26.1452446px;line-height:125%;font-family:'Open Sans';-inkscape-font-specification:'Open Sans, Normal';text-align:center;letter-spacing:0px;word-spacing:0px;writing-mode:lr-tb;text-anchor:middle;fill:#000000;fill-opacity:1;stroke:#ffffff;stroke-width:0.80000001;stroke-linecap:butt;stroke-linejoin:miter;stroke-miterlimit:4;stroke-dasharray:none;stroke-opacity:1"
       aria-label="aoe2map"
       transform="translate(5.2916664)">
      <path
         id="path2312"
         style="font-style:normal;font-variant:normal;font-weight:normal;font-stretch:normal;font-family:'Trajan Pro';-inkscape-font-specification:'Trajan Pro';stroke:#ffffff;stroke-width:0.80000001;stroke-miterlimit:4;stroke-dasharray:none"
         d="m 47.349432,129.50524 c -0.444469,1.12425 -0.888938,1.90861 -1.934748,2.03933 -0.183017,0.0262 -0.522905,0.0523 -0.679777,0.0523 -0.104581,0 -0.209161,0.0784 -0.209161,0.18302 0,0.13073 0.156871,0.18302 0.444469,0.18302 0.941228,0 2.091619,-0.0784 2.326926,-0.0784 0.261453,0 1.516425,0.0784 2.065475,0.0784 0.209162,0 0.339888,-0.0523 0.339888,-0.18302 0,-0.10458 -0.05229,-0.18302 -0.235307,-0.18302 h -0.209162 c -0.392179,0 -0.784358,-0.15687 -0.784358,-0.60134 0,-0.39218 0.130727,-0.94123 0.339889,-1.49028 l 1.307262,-3.55575 c 0.05229,-0.13073 0.130726,-0.18302 0.235307,-0.18302 h 5.307485 c 0.130726,0 0.156871,0.0262 0.209162,0.13073 l 2.065474,5.09832 c 0.156871,0.36604 -0.07844,0.54905 -0.209162,0.60134 -0.104581,0.0523 -0.156871,0.0523 -0.156871,0.15687 0,0.13073 0.366033,0.13073 0.810502,0.15688 1.59486,0.0523 3.294301,0.0523 3.634189,0.0523 0.261453,0 0.522905,-0.0523 0.522905,-0.18302 0,-0.13073 -0.156871,-0.18302 -0.287598,-0.18302 -0.235307,0 -0.575195,-0.0261 -0.915083,-0.13072 -0.49676,-0.15687 -1.124246,-0.44447 -1.960894,-2.43151 -1.411843,-3.37274 -5.098322,-12.54972 -5.516646,-13.49095 -0.235307,-0.49676 -0.313743,-0.8105 -0.54905,-0.8105 -0.156872,0 -0.261453,0.13073 -0.54905,0.86279 z m 3.320446,-4.65385 c -0.07844,0 -0.104581,-0.0523 -0.07844,-0.15687 l 2.14391,-6.09184 c 0.130727,-0.33989 0.261453,-0.33989 0.392179,0 l 2.274636,6.09184 c 0.02615,0.10458 0.02615,0.15687 -0.07843,0.15687 z"
         inkscape:connector-curvature="0" />
      <path
         id="path2314"
         style="font-style:normal;font-variant:normal;font-weight:normal;font-stretch:normal;font-family:'Trajan Pro';-inkscape-font-specification:'Trajan Pro';stroke:#ffffff;stroke-width:0.80000001;stroke-miterlimit:4;stroke-dasharray:none"
         d="m 62.933223,123.51798 c 0,4.00022 2.69296,8.73251 8.993964,8.73251 5.542792,0 9.229272,-4.1048 9.229272,-9.0724 0,-5.17675 -3.921787,-8.34033 -9.098545,-8.34033 -6.353295,0 -9.124691,5.09832 -9.124691,8.68022 z m 2.379217,-0.60134 c 0,-4.83687 2.771396,-7.24223 6.614747,-7.24223 3.634189,0 6.8762,2.79754 6.8762,8.13117 0,6.43173 -4.157094,7.52983 -6.222569,7.52983 -4.157093,0 -7.268378,-3.24201 -7.268378,-8.41877 z"
         inkscape:connector-curvature="0" />
      <path
         id="path2316"
         style="font-style:normal;font-variant:normal;font-weight:normal;font-stretch:normal;font-family:'Trajan Pro';-inkscape-font-specification:'Trajan Pro';stroke:#ffffff;stroke-width:0.80000001;stroke-miterlimit:4;stroke-dasharray:none"
         d="m 85.973718,125.50502 c 0,2.14391 0,3.89564 -0.130726,4.81073 -0.104581,0.65363 -0.156872,1.0981 -0.601341,1.17653 -0.209162,0.0262 -0.49676,0.10458 -0.705922,0.10458 -0.130726,0 -0.183016,0.10458 -0.183016,0.18302 0,0.13073 0.130726,0.18302 0.366033,0.18302 0.366033,0 0.888938,-0.0262 1.333408,-0.0523 0.496759,-0.0262 0.941228,-0.0262 0.993519,-0.0262 0.339888,0 0.941229,0 1.908603,0.0523 0.941228,0.0262 2.274636,0.0784 4.000222,0.0784 0.888938,0 1.124246,0 1.281117,-0.5752 0.130726,-0.47061 0.313743,-1.98704 0.313743,-2.14391 0,-0.15687 -0.02614,-0.33989 -0.156871,-0.33989 -0.130727,0 -0.183017,0.0784 -0.235308,0.33989 -0.130726,0.88894 -0.444469,1.28112 -1.045809,1.54257 -0.601341,0.23531 -1.699441,0.23531 -2.300782,0.23531 -2.274636,0 -2.69296,-0.2876 -2.745251,-1.77788 -0.02614,-0.44447 0,-3.03285 0,-3.79106 v -1.85631 c 0,-0.0784 0.02615,-0.15687 0.156872,-0.15687 0.392178,0 2.849831,0.0261 3.477317,0.10458 0.888939,0.10458 1.098101,0.36603 1.176536,0.67977 0.104581,0.2876 0.104581,0.52291 0.104581,0.73207 0,0.13073 0.05229,0.20916 0.156872,0.20916 0.156871,0 0.209162,-0.2353 0.209162,-0.41832 0,-0.15687 0.05229,-0.99352 0.104581,-1.43799 0.05229,-0.73207 0.183016,-1.0981 0.183016,-1.22883 0,-0.13072 -0.05229,-0.18301 -0.130726,-0.18301 -0.07844,0 -0.183017,0.13072 -0.339888,0.2876 -0.235307,0.2353 -0.575195,0.26145 -1.124245,0.31374 -0.522905,0.0523 -3.555754,0.0523 -3.843351,0.0523 -0.130727,0 -0.130727,-0.0784 -0.130727,-0.23531 v -6.03955 c 0,-0.15687 0.02615,-0.23531 0.130727,-0.23531 0.261452,0 2.928267,0.0262 3.320446,0.0784 1.254971,0.15687 1.490279,0.31374 1.64715,0.67977 0.104581,0.26146 0.130726,0.62749 0.130726,0.78436 0,0.18302 0.05229,0.2876 0.183017,0.2876 0.104581,0 0.183017,-0.13073 0.209162,-0.23531 0.05229,-0.26145 0.104581,-1.25497 0.130726,-1.46413 0.05229,-0.62749 0.183017,-0.88894 0.183017,-1.04581 0,-0.10458 -0.02614,-0.20916 -0.104581,-0.20916 -0.104581,0 -0.209162,0.0784 -0.313743,0.10458 -0.183017,0.0261 -0.601341,0.10458 -1.04581,0.13072 -0.522905,0.0262 -5.33363,0 -5.490501,0 -0.130726,0 -1.621005,-0.0523 -2.666815,-0.0523 -0.261453,0 -0.366034,0.0523 -0.366034,0.18302 0,0.0784 0.104581,0.18302 0.183017,0.18302 0.209162,0 0.601341,0.0261 0.784357,0.0523 0.758213,0.10458 0.888939,0.47061 0.941229,1.22882 0.05229,0.70593 0.05229,1.33341 0.05229,4.78458 z"
         inkscape:connector-curvature="0" />
      <path
         id="path2318"
         style="font-style:normal;font-variant:normal;font-weight:normal;font-stretch:normal;font-family:'Trajan Pro';-inkscape-font-specification:'Trajan Pro';stroke:#ffffff;stroke-width:0.80000001;stroke-miterlimit:4;stroke-dasharray:none"
         d="m 107.51168,131.88446 c 1.0981,0 1.49028,-0.0784 1.69944,-0.78436 0.26146,-0.88894 0.78436,-2.92826 0.78436,-3.42502 0,-0.15688 -0.0261,-0.39218 -0.15687,-0.39218 -0.15687,0 -0.23531,0.10458 -0.31374,0.39218 -0.31375,1.38569 -1.15039,2.32692 -3.059,2.50994 -0.94122,0.10458 -4.02636,0.13073 -4.47083,0.13073 h -1.90861 c -0.130722,0 -0.183012,-0.0784 -0.0523,-0.18302 3.24201,-2.7714 9.09855,-7.60827 9.09855,-13.02033 0,-2.7714 -1.96089,-5.28134 -5.90883,-5.28134 -2.11776,0 -3.634185,0.47061 -4.601559,0.91508 -0.235307,0.15687 -0.261453,0.23531 -0.261453,0.39218 0,0.8105 0.130726,2.98056 0.156872,3.21587 0.02614,0.2353 0.104581,0.33988 0.209162,0.33988 0.130726,0 0.235307,-0.15687 0.235307,-0.39218 0,-1.01966 0.287598,-1.93474 0.915083,-2.53608 0.758208,-0.70593 1.542568,-0.99352 2.797538,-0.99352 1.75174,0 4.1571,1.0981 4.1571,4.83687 0,5.01988 -3.89564,8.62793 -9.124693,13.28178 -0.209162,0.18302 -0.470614,0.41833 -0.470614,0.62749 0,0.20916 0.183016,0.36603 0.366033,0.36603 z"
         inkscape:connector-curvature="0" />
      <path
         id="path2320"
         style="font-style:normal;font-variant:normal;font-weight:normal;font-stretch:normal;font-family:'Trajan Pro';-inkscape-font-specification:'Trajan Pro';stroke:#ffffff;stroke-width:0.80000001;stroke-miterlimit:4;stroke-dasharray:none"
         d="m 130.94599,115.4391 c -0.0523,-0.41832 -0.18302,-0.60134 -0.33989,-0.60134 -0.15687,0 -0.26145,0.15687 -0.36603,0.36603 l -6.69318,13.77855 -6.95464,-13.80469 c -0.13072,-0.26145 -0.31374,-0.33989 -0.47061,-0.33989 -0.13073,0 -0.23531,0.15687 -0.26146,0.39218 l -1.67329,14.51061 c -0.10458,0.83665 -0.13073,1.64715 -0.88894,1.77788 -0.33989,0.0523 -0.49676,0.0784 -0.67978,0.0784 -0.13072,0 -0.2353,0.0784 -0.2353,0.15687 0,0.15688 0.15687,0.20917 0.39218,0.20917 0.62748,0 1.72558,-0.0784 1.93474,-0.0784 0.18302,0 1.28112,0.0784 2.14391,0.0784 0.26146,0 0.41833,-0.0523 0.41833,-0.20917 0,-0.0784 -0.10458,-0.15687 -0.18302,-0.15687 -0.15687,0 -0.49676,-0.0261 -0.88894,-0.13072 -0.33989,-0.0784 -0.54905,-0.2876 -0.54905,-0.62749 0,-0.36603 0,-0.78436 0.0262,-1.12424 l 0.88894,-10.03978 h 0.10458 c 0.39218,0.91508 2.24849,4.65385 2.92826,6.0657 0.5752,1.20268 2.09162,4.05251 2.69296,5.15061 0.44447,0.8105 0.5752,1.01967 0.78436,1.01967 0.20916,0 0.33989,-0.20917 0.8105,-1.17654 l 5.5428,-11.34704 h 0.0523 l 1.0981,11.24246 c 0.0523,0.41832 0.0261,0.75821 -0.10458,0.78436 -0.10458,0.0261 -0.15687,0.10458 -0.15687,0.18301 0,0.10458 0.10458,0.18302 0.65363,0.23531 0.83664,0.0784 3.39888,0.13073 3.92178,0.13073 0.26146,0 0.47062,-0.0784 0.47062,-0.20917 0,-0.10458 -0.0784,-0.15687 -0.18302,-0.15687 -0.23531,0 -0.83665,0 -1.49028,-0.20916 -0.94123,-0.31374 -1.0981,-1.51642 -1.17653,-2.30078 z"
         inkscape:connector-curvature="0" />
      <path
         id="path2322"
         style="font-style:normal;font-variant:normal;font-weight:normal;font-stretch:normal;font-family:'Trajan Pro';-inkscape-font-specification:'Trajan Pro';stroke:#ffffff;stroke-width:0.80000001;stroke-miterlimit:4;stroke-dasharray:none"
         d="m 137.98968,129.50524 c -0.44447,1.12425 -0.88894,1.90861 -1.93475,2.03933 -0.18301,0.0262 -0.5229,0.0523 -0.67977,0.0523 -0.10458,0 -0.20916,0.0784 -0.20916,0.18302 0,0.13073 0.15687,0.18302 0.44447,0.18302 0.94122,0 2.09162,-0.0784 2.32692,-0.0784 0.26146,0 1.51643,0.0784 2.06548,0.0784 0.20916,0 0.33989,-0.0523 0.33989,-0.18302 0,-0.10458 -0.0523,-0.18302 -0.23531,-0.18302 h -0.20916 c -0.39218,0 -0.78436,-0.15687 -0.78436,-0.60134 0,-0.39218 0.13072,-0.94123 0.33989,-1.49028 l 1.30726,-3.55575 c 0.0523,-0.13073 0.13073,-0.18302 0.23531,-0.18302 h 5.30748 c 0.13073,0 0.15687,0.0262 0.20916,0.13073 l 2.06548,5.09832 c 0.15687,0.36604 -0.0784,0.54905 -0.20916,0.60134 -0.10459,0.0523 -0.15688,0.0523 -0.15688,0.15687 0,0.13073 0.36604,0.13073 0.81051,0.15688 1.59486,0.0523 3.2943,0.0523 3.63419,0.0523 0.26145,0 0.5229,-0.0523 0.5229,-0.18302 0,-0.13073 -0.15687,-0.18302 -0.2876,-0.18302 -0.2353,0 -0.57519,-0.0261 -0.91508,-0.13072 -0.49676,-0.15687 -1.12425,-0.44447 -1.96089,-2.43151 -1.41185,-3.37274 -5.09833,-12.54972 -5.51665,-13.49095 -0.23531,-0.49676 -0.31374,-0.8105 -0.54905,-0.8105 -0.15687,0 -0.26145,0.13073 -0.54905,0.86279 z m 3.32045,-4.65385 c -0.0784,0 -0.10458,-0.0523 -0.0784,-0.15687 l 2.14391,-6.09184 c 0.13073,-0.33989 0.26146,-0.33989 0.39218,0 l 2.27464,6.09184 c 0.0261,0.10458 0.0261,0.15687 -0.0784,0.15687 z"
         inkscape:connector-curvature="0" />
      <path
         id="path2324"
         style="font-style:normal;font-variant:normal;font-weight:normal;font-stretch:normal;font-family:'Trajan Pro';-inkscape-font-specification:'Trajan Pro';stroke:#ffffff;stroke-width:0.80000001;stroke-miterlimit:4;stroke-dasharray:none"
         d="m 156.188,125.50502 c 0,2.14391 0,3.89564 -0.13073,4.81073 -0.10458,0.65363 -0.15687,1.07195 -0.60134,1.17653 -0.20916,0.0523 -0.49676,0.10458 -0.70592,0.10458 -0.13073,0 -0.18302,0.10458 -0.18302,0.18302 0,0.13073 0.13073,0.18302 0.36604,0.18302 0.70592,0 2.1962,-0.0784 2.27463,-0.0784 0.10458,0 1.62101,0.0784 2.87598,0.0784 0.26145,0 0.36603,-0.0784 0.36603,-0.18302 0,-0.0784 -0.0523,-0.18302 -0.18301,-0.18302 -0.20917,0 -0.70593,-0.0523 -1.01967,-0.10458 -0.70592,-0.10458 -0.83665,-0.5229 -0.91508,-1.17653 -0.10458,-0.91509 -0.10458,-2.66682 -0.10458,-4.81073 v -9.04625 c 0,-0.23531 0.0523,-0.39218 0.18301,-0.41833 0.23531,-0.0523 0.88894,-0.15687 1.28112,-0.15687 0.5229,0 1.9086,-0.13073 3.11128,1.07196 1.22883,1.20268 1.30727,2.64067 1.30727,3.37273 0,2.01319 -1.77788,3.5819 -4.26168,3.5819 -0.47061,0 -0.60134,0.0523 -0.60134,0.23531 0,0.10458 0.13073,0.20916 0.23531,0.20916 0.13072,0.0262 0.5229,0.0262 0.65363,0.0262 3.52961,0 5.93497,-2.11777 5.93497,-5.30749 0,-1.20268 -0.62749,-2.1962 -1.15039,-2.66681 -0.39218,-0.33989 -1.43799,-1.25498 -4.3924,-1.25498 -1.04581,0 -2.7714,0.0523 -3.26816,0.0523 -0.18301,0 -1.621,-0.0523 -2.66681,-0.0523 -0.26146,0 -0.36604,0.0523 -0.36604,0.18302 0,0.0784 0.10458,0.18302 0.18302,0.18302 0.20916,0 0.60134,0.0261 0.78436,0.0523 0.75821,0.10458 0.88894,0.47061 0.94123,1.22882 0.0523,0.70593 0.0523,1.33341 0.0523,4.78458 z"
         inkscape:connector-curvature="0" />
    </g>
    <g
       id="text874"
       style="font-style:normal;font-variant:normal;font-weight:normal;font-stretch:normal;font-size:26.1452446px;line-height:125%;font-family:'Open Sans';-inkscape-font-specification:'Open Sans, Normal';text-align:center;letter-spacing:0px;word-spacing:0px;writing-mode:lr-tb;text-anchor:middle;fill:#000000;fill-opacity:1;stroke:#000000;stroke-width:0.60000002;stroke-linecap:butt;stroke-linejoin:miter;stroke-miterlimit:4;stroke-dasharray:none;stroke-opacity:1;filter:url(#filter904)"
       aria-label="aoe2map"
       transform="translate(5.2916664)">
      <path
         id="path2295"
         style="font-style:normal;font-variant:normal;font-weight:normal;font-stretch:normal;font-family:'Trajan Pro';-inkscape-font-specification:'Trajan Pro';stroke:#000000;stroke-width:0.60000002;stroke-miterlimit:4;stroke-dasharray:none"
         d="m 47.349432,129.50524 c -0.444469,1.12425 -0.888938,1.90861 -1.934748,2.03933 -0.183017,0.0262 -0.522905,0.0523 -0.679777,0.0523 -0.104581,0 -0.209161,0.0784 -0.209161,0.18302 0,0.13073 0.156871,0.18302 0.444469,0.18302 0.941228,0 2.091619,-0.0784 2.326926,-0.0784 0.261453,0 1.516425,0.0784 2.065475,0.0784 0.209162,0 0.339888,-0.0523 0.339888,-0.18302 0,-0.10458 -0.05229,-0.18302 -0.235307,-0.18302 h -0.209162 c -0.392179,0 -0.784358,-0.15687 -0.784358,-0.60134 0,-0.39218 0.130727,-0.94123 0.339889,-1.49028 l 1.307262,-3.55575 c 0.05229,-0.13073 0.130726,-0.18302 0.235307,-0.18302 h 5.307485 c 0.130726,0 0.156871,0.0262 0.209162,0.13073 l 2.065474,5.09832 c 0.156871,0.36604 -0.07844,0.54905 -0.209162,0.60134 -0.104581,0.0523 -0.156871,0.0523 -0.156871,0.15687 0,0.13073 0.366033,0.13073 0.810502,0.15688 1.59486,0.0523 3.294301,0.0523 3.634189,0.0523 0.261453,0 0.522905,-0.0523 0.522905,-0.18302 0,-0.13073 -0.156871,-0.18302 -0.287598,-0.18302 -0.235307,0 -0.575195,-0.0261 -0.915083,-0.13072 -0.49676,-0.15687 -1.124246,-0.44447 -1.960894,-2.43151 -1.411843,-3.37274 -5.098322,-12.54972 -5.516646,-13.49095 -0.235307,-0.49676 -0.313743,-0.8105 -0.54905,-0.8105 -0.156872,0 -0.261453,0.13073 -0.54905,0.86279 z m 3.320446,-4.65385 c -0.07844,0 -0.104581,-0.0523 -0.07844,-0.15687 l 2.14391,-6.09184 c 0.130727,-0.33989 0.261453,-0.33989 0.392179,0 l 2.274636,6.09184 c 0.02615,0.10458 0.02615,0.15687 -0.07843,0.15687 z"
         inkscape:connector-curvature="0" />
      <path
         id="path2297"
         style="font-style:normal;font-variant:normal;font-weight:normal;font-stretch:normal;font-family:'Trajan Pro';-inkscape-font-specification:'Trajan Pro';stroke:#000000;stroke-width:0.60000002;stroke-miterlimit:4;stroke-dasharray:none"
         d="m 62.933223,123.51798 c 0,4.00022 2.69296,8.73251 8.993964,8.73251 5.542792,0 9.229272,-4.1048 9.229272,-9.0724 0,-5.17675 -3.921787,-8.34033 -9.098545,-8.34033 -6.353295,0 -9.124691,5.09832 -9.124691,8.68022 z m 2.379217,-0.60134 c 0,-4.83687 2.771396,-7.24223 6.614747,-7.24223 3.634189,0 6.8762,2.79754 6.8762,8.13117 0,6.43173 -4.157094,7.52983 -6.222569,7.52983 -4.157093,0 -7.268378,-3.24201 -7.268378,-8.41877 z"
         inkscape:connector-curvature="0" />
      <path
         id="path2299"
         style="font-style:normal;font-variant:normal;font-weight:normal;font-stretch:normal;font-family:'Trajan Pro';-inkscape-font-specification:'Trajan Pro';stroke:#000000;stroke-width:0.60000002;stroke-miterlimit:4;stroke-dasharray:none"
         d="m 85.973718,125.50502 c 0,2.14391 0,3.89564 -0.130726,4.81073 -0.104581,0.65363 -0.156872,1.0981 -0.601341,1.17653 -0.209162,0.0262 -0.49676,0.10458 -0.705922,0.10458 -0.130726,0 -0.183016,0.10458 -0.183016,0.18302 0,0.13073 0.130726,0.18302 0.366033,0.18302 0.366033,0 0.888938,-0.0262 1.333408,-0.0523 0.496759,-0.0262 0.941228,-0.0262 0.993519,-0.0262 0.339888,0 0.941229,0 1.908603,0.0523 0.941228,0.0262 2.274636,0.0784 4.000222,0.0784 0.888938,0 1.124246,0 1.281117,-0.5752 0.130726,-0.47061 0.313743,-1.98704 0.313743,-2.14391 0,-0.15687 -0.02614,-0.33989 -0.156871,-0.33989 -0.130727,0 -0.183017,0.0784 -0.235308,0.33989 -0.130726,0.88894 -0.444469,1.28112 -1.045809,1.54257 -0.601341,0.23531 -1.699441,0.23531 -2.300782,0.23531 -2.274636,0 -2.69296,-0.2876 -2.745251,-1.77788 -0.02614,-0.44447 0,-3.03285 0,-3.79106 v -1.85631 c 0,-0.0784 0.02615,-0.15687 0.156872,-0.15687 0.392178,0 2.849831,0.0261 3.477317,0.10458 0.888939,0.10458 1.098101,0.36603 1.176536,0.67977 0.104581,0.2876 0.104581,0.52291 0.104581,0.73207 0,0.13073 0.05229,0.20916 0.156872,0.20916 0.156871,0 0.209162,-0.2353 0.209162,-0.41832 0,-0.15687 0.05229,-0.99352 0.104581,-1.43799 0.05229,-0.73207 0.183016,-1.0981 0.183016,-1.22883 0,-0.13072 -0.05229,-0.18301 -0.130726,-0.18301 -0.07844,0 -0.183017,0.13072 -0.339888,0.2876 -0.235307,0.2353 -0.575195,0.26145 -1.124245,0.31374 -0.522905,0.0523 -3.555754,0.0523 -3.843351,0.0523 -0.130727,0 -0.130727,-0.0784 -0.130727,-0.23531 v -6.03955 c 0,-0.15687 0.02615,-0.23531 0.130727,-0.23531 0.261452,0 2.928267,0.0262 3.320446,0.0784 1.254971,0.15687 1.490279,0.31374 1.64715,0.67977 0.104581,0.26146 0.130726,0.62749 0.130726,0.78436 0,0.18302 0.05229,0.2876 0.183017,0.2876 0.104581,0 0.183017,-0.13073 0.209162,-0.23531 0.05229,-0.26145 0.104581,-1.25497 0.130726,-1.46413 0.05229,-0.62749 0.183017,-0.88894 0.183017,-1.04581 0,-0.10458 -0.02614,-0.20916 -0.104581,-0.20916 -0.104581,0 -0.209162,0.0784 -0.313743,0.10458 -0.183017,0.0261 -0.601341,0.10458 -1.04581,0.13072 -0.522905,0.0262 -5.33363,0 -5.490501,0 -0.130726,0 -1.621005,-0.0523 -2.666815,-0.0523 -0.261453,0 -0.366034,0.0523 -0.366034,0.18302 0,0.0784 0.104581,0.18302 0.183017,0.18302 0.209162,0 0.601341,0.0261 0.784357,0.0523 0.758213,0.10458 0.888939,0.47061 0.941229,1.22882 0.05229,0.70593 0.05229,1.33341 0.05229,4.78458 z"
         inkscape:connector-curvature="0" />
      <path
         id="path2301"
         style="font-style:normal;font-variant:normal;font-weight:normal;font-stretch:normal;font-family:'Trajan Pro';-inkscape-font-specification:'Trajan Pro';stroke:#000000;stroke-width:0.60000002;stroke-miterlimit:4;stroke-dasharray:none"
         d="m 107.51168,131.88446 c 1.0981,0 1.49028,-0.0784 1.69944,-0.78436 0.26146,-0.88894 0.78436,-2.92826 0.78436,-3.42502 0,-0.15688 -0.0261,-0.39218 -0.15687,-0.39218 -0.15687,0 -0.23531,0.10458 -0.31374,0.39218 -0.31375,1.38569 -1.15039,2.32692 -3.059,2.50994 -0.94122,0.10458 -4.02636,0.13073 -4.47083,0.13073 h -1.90861 c -0.130722,0 -0.183012,-0.0784 -0.0523,-0.18302 3.24201,-2.7714 9.09855,-7.60827 9.09855,-13.02033 0,-2.7714 -1.96089,-5.28134 -5.90883,-5.28134 -2.11776,0 -3.634185,0.47061 -4.601559,0.91508 -0.235307,0.15687 -0.261453,0.23531 -0.261453,0.39218 0,0.8105 0.130726,2.98056 0.156872,3.21587 0.02614,0.2353 0.104581,0.33988 0.209162,0.33988 0.130726,0 0.235307,-0.15687 0.235307,-0.39218 0,-1.01966 0.287598,-1.93474 0.915083,-2.53608 0.758208,-0.70593 1.542568,-0.99352 2.797538,-0.99352 1.75174,0 4.1571,1.0981 4.1571,4.83687 0,5.01988 -3.89564,8.62793 -9.124693,13.28178 -0.209162,0.18302 -0.470614,0.41833 -0.470614,0.62749 0,0.20916 0.183016,0.36603 0.366033,0.36603 z"
         inkscape:connector-curvature="0" />
      <path
         id="path2303"
         style="font-style:normal;font-variant:normal;font-weight:normal;font-stretch:normal;font-family:'Trajan Pro';-inkscape-font-specification:'Trajan Pro';stroke:#000000;stroke-width:0.60000002;stroke-miterlimit:4;stroke-dasharray:none"
         d="m 130.94599,115.4391 c -0.0523,-0.41832 -0.18302,-0.60134 -0.33989,-0.60134 -0.15687,0 -0.26145,0.15687 -0.36603,0.36603 l -6.69318,13.77855 -6.95464,-13.80469 c -0.13072,-0.26145 -0.31374,-0.33989 -0.47061,-0.33989 -0.13073,0 -0.23531,0.15687 -0.26146,0.39218 l -1.67329,14.51061 c -0.10458,0.83665 -0.13073,1.64715 -0.88894,1.77788 -0.33989,0.0523 -0.49676,0.0784 -0.67978,0.0784 -0.13072,0 -0.2353,0.0784 -0.2353,0.15687 0,0.15688 0.15687,0.20917 0.39218,0.20917 0.62748,0 1.72558,-0.0784 1.93474,-0.0784 0.18302,0 1.28112,0.0784 2.14391,0.0784 0.26146,0 0.41833,-0.0523 0.41833,-0.20917 0,-0.0784 -0.10458,-0.15687 -0.18302,-0.15687 -0.15687,0 -0.49676,-0.0261 -0.88894,-0.13072 -0.33989,-0.0784 -0.54905,-0.2876 -0.54905,-0.62749 0,-0.36603 0,-0.78436 0.0262,-1.12424 l 0.88894,-10.03978 h 0.10458 c 0.39218,0.91508 2.24849,4.65385 2.92826,6.0657 0.5752,1.20268 2.09162,4.05251 2.69296,5.15061 0.44447,0.8105 0.5752,1.01967 0.78436,1.01967 0.20916,0 0.33989,-0.20917 0.8105,-1.17654 l 5.5428,-11.34704 h 0.0523 l 1.0981,11.24246 c 0.0523,0.41832 0.0261,0.75821 -0.10458,0.78436 -0.10458,0.0261 -0.15687,0.10458 -0.15687,0.18301 0,0.10458 0.10458,0.18302 0.65363,0.23531 0.83664,0.0784 3.39888,0.13073 3.92178,0.13073 0.26146,0 0.47062,-0.0784 0.47062,-0.20917 0,-0.10458 -0.0784,-0.15687 -0.18302,-0.15687 -0.23531,0 -0.83665,0 -1.49028,-0.20916 -0.94123,-0.31374 -1.0981,-1.51642 -1.17653,-2.30078 z"
         inkscape:connector-curvature="0" />
      <path
         id="path2305"
         style="font-style:normal;font-variant:normal;font-weight:normal;font-stretch:normal;font-family:'Trajan Pro';-inkscape-font-specification:'Trajan Pro';stroke:#000000;stroke-width:0.60000002;stroke-miterlimit:4;stroke-dasharray:none"
         d="m 137.98968,129.50524 c -0.44447,1.12425 -0.88894,1.90861 -1.93475,2.03933 -0.18301,0.0262 -0.5229,0.0523 -0.67977,0.0523 -0.10458,0 -0.20916,0.0784 -0.20916,0.18302 0,0.13073 0.15687,0.18302 0.44447,0.18302 0.94122,0 2.09162,-0.0784 2.32692,-0.0784 0.26146,0 1.51643,0.0784 2.06548,0.0784 0.20916,0 0.33989,-0.0523 0.33989,-0.18302 0,-0.10458 -0.0523,-0.18302 -0.23531,-0.18302 h -0.20916 c -0.39218,0 -0.78436,-0.15687 -0.78436,-0.60134 0,-0.39218 0.13072,-0.94123 0.33989,-1.49028 l 1.30726,-3.55575 c 0.0523,-0.13073 0.13073,-0.18302 0.23531,-0.18302 h 5.30748 c 0.13073,0 0.15687,0.0262 0.20916,0.13073 l 2.06548,5.09832 c 0.15687,0.36604 -0.0784,0.54905 -0.20916,0.60134 -0.10459,0.0523 -0.15688,0.0523 -0.15688,0.15687 0,0.13073 0.36604,0.13073 0.81051,0.15688 1.59486,0.0523 3.2943,0.0523 3.63419,0.0523 0.26145,0 0.5229,-0.0523 0.5229,-0.18302 0,-0.13073 -0.15687,-0.18302 -0.2876,-0.18302 -0.2353,0 -0.57519,-0.0261 -0.91508,-0.13072 -0.49676,-0.15687 -1.12425,-0.44447 -1.96089,-2.43151 -1.41185,-3.37274 -5.09833,-12.54972 -5.51665,-13.49095 -0.23531,-0.49676 -0.31374,-0.8105 -0.54905,-0.8105 -0.15687,0 -0.26145,0.13073 -0.54905,0.86279 z m 3.32045,-4.65385 c -0.0784,0 -0.10458,-0.0523 -0.0784,-0.15687 l 2.14391,-6.09184 c 0.13073,-0.33989 0.26146,-0.33989 0.39218,0 l 2.27464,6.09184 c 0.0261,0.10458 0.0261,0.15687 -0.0784,0.15687 z"
         inkscape:connector-curvature="0" />
      <path
         id="path2307"
         style="font-style:normal;font-variant:normal;font-weight:normal;font-stretch:normal;font-family:'Trajan Pro';-inkscape-font-specification:'Trajan Pro';stroke:#000000;stroke-width:0.60000002;stroke-miterlimit:4;stroke-dasharray:none"
         d="m 156.188,125.50502 c 0,2.14391 0,3.89564 -0.13073,4.81073 -0.10458,0.65363 -0.15687,1.07195 -0.60134,1.17653 -0.20916,0.0523 -0.49676,0.10458 -0.70592,0.10458 -0.13073,0 -0.18302,0.10458 -0.18302,0.18302 0,0.13073 0.13073,0.18302 0.36604,0.18302 0.70592,0 2.1962,-0.0784 2.27463,-0.0784 0.10458,0 1.62101,0.0784 2.87598,0.0784 0.26145,0 0.36603,-0.0784 0.36603,-0.18302 0,-0.0784 -0.0523,-0.18302 -0.18301,-0.18302 -0.20917,0 -0.70593,-0.0523 -1.01967,-0.10458 -0.70592,-0.10458 -0.83665,-0.5229 -0.91508,-1.17653 -0.10458,-0.91509 -0.10458,-2.66682 -0.10458,-4.81073 v -9.04625 c 0,-0.23531 0.0523,-0.39218 0.18301,-0.41833 0.23531,-0.0523 0.88894,-0.15687 1.28112,-0.15687 0.5229,0 1.9086,-0.13073 3.11128,1.07196 1.22883,1.20268 1.30727,2.64067 1.30727,3.37273 0,2.01319 -1.77788,3.5819 -4.26168,3.5819 -0.47061,0 -0.60134,0.0523 -0.60134,0.23531 0,0.10458 0.13073,0.20916 0.23531,0.20916 0.13072,0.0262 0.5229,0.0262 0.65363,0.0262 3.52961,0 5.93497,-2.11777 5.93497,-5.30749 0,-1.20268 -0.62749,-2.1962 -1.15039,-2.66681 -0.39218,-0.33989 -1.43799,-1.25498 -4.3924,-1.25498 -1.04581,0 -2.7714,0.0523 -3.26816,0.0523 -0.18301,0 -1.621,-0.0523 -2.66681,-0.0523 -0.26146,0 -0.36604,0.0523 -0.36604,0.18302 0,0.0784 0.10458,0.18302 0.18302,0.18302 0.20916,0 0.60134,0.0261 0.78436,0.0523 0.75821,0.10458 0.88894,0.47061 0.94123,1.22882 0.0523,0.70593 0.0523,1.33341 0.0523,4.78458 z"
         inkscape:connector-curvature="0" />
    </g>
    <g
       id="text840"
       style="font-style:normal;font-variant:normal;font-weight:normal;font-stretch:normal;font-size:26.1452446px;line-height:125%;font-family:'Open Sans';-inkscape-font-specification:'Open Sans, Normal';text-align:center;letter-spacing:0px;word-spacing:0px;writing-mode:lr-tb;text-anchor:middle;fill:url(#linearGradient2345);fill-opacity:1;stroke:none;stroke-width:1.49401391px;stroke-linecap:butt;stroke-linejoin:miter;stroke-opacity:1"
       aria-label="aoe2map"
       transform="translate(5.2916664)">
      <path
         id="path2278"
         style="font-style:normal;font-variant:normal;font-weight:normal;font-stretch:normal;font-family:'Trajan Pro';-inkscape-font-specification:'Trajan Pro';fill:url(#linearGradient2329);fill-opacity:1;stroke:none;stroke-width:1.49401391px"
         d="m 47.349432,129.50524 c -0.444469,1.12425 -0.888938,1.90861 -1.934748,2.03933 -0.183017,0.0262 -0.522905,0.0523 -0.679777,0.0523 -0.104581,0 -0.209161,0.0784 -0.209161,0.18302 0,0.13073 0.156871,0.18302 0.444469,0.18302 0.941228,0 2.091619,-0.0784 2.326926,-0.0784 0.261453,0 1.516425,0.0784 2.065475,0.0784 0.209162,0 0.339888,-0.0523 0.339888,-0.18302 0,-0.10458 -0.05229,-0.18302 -0.235307,-0.18302 h -0.209162 c -0.392179,0 -0.784358,-0.15687 -0.784358,-0.60134 0,-0.39218 0.130727,-0.94123 0.339889,-1.49028 l 1.307262,-3.55575 c 0.05229,-0.13073 0.130726,-0.18302 0.235307,-0.18302 h 5.307485 c 0.130726,0 0.156871,0.0262 0.209162,0.13073 l 2.065474,5.09832 c 0.156871,0.36604 -0.07844,0.54905 -0.209162,0.60134 -0.104581,0.0523 -0.156871,0.0523 -0.156871,0.15687 0,0.13073 0.366033,0.13073 0.810502,0.15688 1.59486,0.0523 3.294301,0.0523 3.634189,0.0523 0.261453,0 0.522905,-0.0523 0.522905,-0.18302 0,-0.13073 -0.156871,-0.18302 -0.287598,-0.18302 -0.235307,0 -0.575195,-0.0261 -0.915083,-0.13072 -0.49676,-0.15687 -1.124246,-0.44447 -1.960894,-2.43151 -1.411843,-3.37274 -5.098322,-12.54972 -5.516646,-13.49095 -0.235307,-0.49676 -0.313743,-0.8105 -0.54905,-0.8105 -0.156872,0 -0.261453,0.13073 -0.54905,0.86279 z m 3.320446,-4.65385 c -0.07844,0 -0.104581,-0.0523 -0.07844,-0.15687 l 2.14391,-6.09184 c 0.130727,-0.33989 0.261453,-0.33989 0.392179,0 l 2.274636,6.09184 c 0.02615,0.10458 0.02615,0.15687 -0.07843,0.15687 z"
         inkscape:connector-curvature="0" />
      <path
         id="path2280"
         style="font-style:normal;font-variant:normal;font-weight:normal;font-stretch:normal;font-family:'Trajan Pro';-inkscape-font-specification:'Trajan Pro';fill:url(#linearGradient2331);fill-opacity:1;stroke:none;stroke-width:1.49401391px"
         d="m 62.933223,123.51798 c 0,4.00022 2.69296,8.73251 8.993964,8.73251 5.542792,0 9.229272,-4.1048 9.229272,-9.0724 0,-5.17675 -3.921787,-8.34033 -9.098545,-8.34033 -6.353295,0 -9.124691,5.09832 -9.124691,8.68022 z m 2.379217,-0.60134 c 0,-4.83687 2.771396,-7.24223 6.614747,-7.24223 3.634189,0 6.8762,2.79754 6.8762,8.13117 0,6.43173 -4.157094,7.52983 -6.222569,7.52983 -4.157093,0 -7.268378,-3.24201 -7.268378,-8.41877 z"
         inkscape:connector-curvature="0" />
      <path
         id="path2282"
         style="font-style:normal;font-variant:normal;font-weight:normal;font-stretch:normal;font-family:'Trajan Pro';-inkscape-font-specification:'Trajan Pro';fill:url(#linearGradient2333);fill-opacity:1;stroke:none;stroke-width:1.49401391px"
         d="m 85.973718,125.50502 c 0,2.14391 0,3.89564 -0.130726,4.81073 -0.104581,0.65363 -0.156872,1.0981 -0.601341,1.17653 -0.209162,0.0262 -0.49676,0.10458 -0.705922,0.10458 -0.130726,0 -0.183016,0.10458 -0.183016,0.18302 0,0.13073 0.130726,0.18302 0.366033,0.18302 0.366033,0 0.888938,-0.0262 1.333408,-0.0523 0.496759,-0.0262 0.941228,-0.0262 0.993519,-0.0262 0.339888,0 0.941229,0 1.908603,0.0523 0.941228,0.0262 2.274636,0.0784 4.000222,0.0784 0.888938,0 1.124246,0 1.281117,-0.5752 0.130726,-0.47061 0.313743,-1.98704 0.313743,-2.14391 0,-0.15687 -0.02614,-0.33989 -0.156871,-0.33989 -0.130727,0 -0.183017,0.0784 -0.235308,0.33989 -0.130726,0.88894 -0.444469,1.28112 -1.045809,1.54257 -0.601341,0.23531 -1.699441,0.23531 -2.300782,0.23531 -2.274636,0 -2.69296,-0.2876 -2.745251,-1.77788 -0.02614,-0.44447 0,-3.03285 0,-3.79106 v -1.85631 c 0,-0.0784 0.02615,-0.15687 0.156872,-0.15687 0.392178,0 2.849831,0.0261 3.477317,0.10458 0.888939,0.10458 1.098101,0.36603 1.176536,0.67977 0.104581,0.2876 0.104581,0.52291 0.104581,0.73207 0,0.13073 0.05229,0.20916 0.156872,0.20916 0.156871,0 0.209162,-0.2353 0.209162,-0.41832 0,-0.15687 0.05229,-0.99352 0.104581,-1.43799 0.05229,-0.73207 0.183016,-1.0981 0.183016,-1.22883 0,-0.13072 -0.05229,-0.18301 -0.130726,-0.18301 -0.07844,0 -0.183017,0.13072 -0.339888,0.2876 -0.235307,0.2353 -0.575195,0.26145 -1.124245,0.31374 -0.522905,0.0523 -3.555754,0.0523 -3.843351,0.0523 -0.130727,0 -0.130727,-0.0784 -0.130727,-0.23531 v -6.03955 c 0,-0.15687 0.02615,-0.23531 0.130727,-0.23531 0.261452,0 2.928267,0.0262 3.320446,0.0784 1.254971,0.15687 1.490279,0.31374 1.64715,0.67977 0.104581,0.26146 0.130726,0.62749 0.130726,0.78436 0,0.18302 0.05229,0.2876 0.183017,0.2876 0.104581,0 0.183017,-0.13073 0.209162,-0.23531 0.05229,-0.26145 0.104581,-1.25497 0.130726,-1.46413 0.05229,-0.62749 0.183017,-0.88894 0.183017,-1.04581 0,-0.10458 -0.02614,-0.20916 -0.104581,-0.20916 -0.104581,0 -0.209162,0.0784 -0.313743,0.10458 -0.183017,0.0261 -0.601341,0.10458 -1.04581,0.13072 -0.522905,0.0262 -5.33363,0 -5.490501,0 -0.130726,0 -1.621005,-0.0523 -2.666815,-0.0523 -0.261453,0 -0.366034,0.0523 -0.366034,0.18302 0,0.0784 0.104581,0.18302 0.183017,0.18302 0.209162,0 0.601341,0.0261 0.784357,0.0523 0.758213,0.10458 0.888939,0.47061 0.941229,1.22882 0.05229,0.70593 0.05229,1.33341 0.05229,4.78458 z"
         inkscape:connector-curvature="0" />
      <path
         id="path2284"
         style="font-style:normal;font-variant:normal;font-weight:normal;font-stretch:normal;font-family:'Trajan Pro';-inkscape-font-specification:'Trajan Pro';fill:url(#linearGradient2335);fill-opacity:1;stroke:none;stroke-width:1.49401391px"
         d="m 107.51168,131.88446 c 1.0981,0 1.49028,-0.0784 1.69944,-0.78436 0.26146,-0.88894 0.78436,-2.92826 0.78436,-3.42502 0,-0.15688 -0.0261,-0.39218 -0.15687,-0.39218 -0.15687,0 -0.23531,0.10458 -0.31374,0.39218 -0.31375,1.38569 -1.15039,2.32692 -3.059,2.50994 -0.94122,0.10458 -4.02636,0.13073 -4.47083,0.13073 h -1.90861 c -0.130722,0 -0.183012,-0.0784 -0.0523,-0.18302 3.24201,-2.7714 9.09855,-7.60827 9.09855,-13.02033 0,-2.7714 -1.96089,-5.28134 -5.90883,-5.28134 -2.11776,0 -3.634185,0.47061 -4.601559,0.91508 -0.235307,0.15687 -0.261453,0.23531 -0.261453,0.39218 0,0.8105 0.130726,2.98056 0.156872,3.21587 0.02614,0.2353 0.104581,0.33988 0.209162,0.33988 0.130726,0 0.235307,-0.15687 0.235307,-0.39218 0,-1.01966 0.287598,-1.93474 0.915083,-2.53608 0.758208,-0.70593 1.542568,-0.99352 2.797538,-0.99352 1.75174,0 4.1571,1.0981 4.1571,4.83687 0,5.01988 -3.89564,8.62793 -9.124693,13.28178 -0.209162,0.18302 -0.470614,0.41833 -0.470614,0.62749 0,0.20916 0.183016,0.36603 0.366033,0.36603 z"
         inkscape:connector-curvature="0" />
      <path
         id="path2286"
         style="font-style:normal;font-variant:normal;font-weight:normal;font-stretch:normal;font-family:'Trajan Pro';-inkscape-font-specification:'Trajan Pro';fill:url(#linearGradient2337);fill-opacity:1;stroke:none;stroke-width:1.49401391px"
         d="m 130.94599,115.4391 c -0.0523,-0.41832 -0.18302,-0.60134 -0.33989,-0.60134 -0.15687,0 -0.26145,0.15687 -0.36603,0.36603 l -6.69318,13.77855 -6.95464,-13.80469 c -0.13072,-0.26145 -0.31374,-0.33989 -0.47061,-0.33989 -0.13073,0 -0.23531,0.15687 -0.26146,0.39218 l -1.67329,14.51061 c -0.10458,0.83665 -0.13073,1.64715 -0.88894,1.77788 -0.33989,0.0523 -0.49676,0.0784 -0.67978,0.0784 -0.13072,0 -0.2353,0.0784 -0.2353,0.15687 0,0.15688 0.15687,0.20917 0.39218,0.20917 0.62748,0 1.72558,-0.0784 1.93474,-0.0784 0.18302,0 1.28112,0.0784 2.14391,0.0784 0.26146,0 0.41833,-0.0523 0.41833,-0.20917 0,-0.0784 -0.10458,-0.15687 -0.18302,-0.15687 -0.15687,0 -0.49676,-0.0261 -0.88894,-0.13072 -0.33989,-0.0784 -0.54905,-0.2876 -0.54905,-0.62749 0,-0.36603 0,-0.78436 0.0262,-1.12424 l 0.88894,-10.03978 h 0.10458 c 0.39218,0.91508 2.24849,4.65385 2.92826,6.0657 0.5752,1.20268 2.09162,4.05251 2.69296,5.15061 0.44447,0.8105 0.5752,1.01967 0.78436,1.01967 0.20916,0 0.33989,-0.20917 0.8105,-1.17654 l 5.5428,-11.34704 h 0.0523 l 1.0981,11.24246 c 0.0523,0.41832 0.0261,0.75821 -0.10458,0.78436 -0.10458,0.0261 -0.15687,0.10458 -0.15687,0.18301 0,0.10458 0.10458,0.18302 0.65363,0.23531 0.83664,0.0784 3.39888,0.13073 3.92178,0.13073 0.26146,0 0.47062,-0.0784 0.47062,-0.20917 0,-0.10458 -0.0784,-0.15687 -0.18302,-0.15687 -0.23531,0 -0.83665,0 -1.49028,-0.20916 -0.94123,-0.31374 -1.0981,-1.51642 -1.17653,-2.30078 z"
         inkscape:connector-curvature="0" />
      <path
         id="path2288"
         style="font-style:normal;font-variant:normal;font-weight:normal;font-stretch:normal;font-family:'Trajan Pro';-inkscape-font-specification:'Trajan Pro';fill:url(#linearGradient2339);fill-opacity:1;stroke:none;stroke-width:1.49401391px"
         d="m 137.98968,129.50524 c -0.44447,1.12425 -0.88894,1.90861 -1.93475,2.03933 -0.18301,0.0262 -0.5229,0.0523 -0.67977,0.0523 -0.10458,0 -0.20916,0.0784 -0.20916,0.18302 0,0.13073 0.15687,0.18302 0.44447,0.18302 0.94122,0 2.09162,-0.0784 2.32692,-0.0784 0.26146,0 1.51643,0.0784 2.06548,0.0784 0.20916,0 0.33989,-0.0523 0.33989,-0.18302 0,-0.10458 -0.0523,-0.18302 -0.23531,-0.18302 h -0.20916 c -0.39218,0 -0.78436,-0.15687 -0.78436,-0.60134 0,-0.39218 0.13072,-0.94123 0.33989,-1.49028 l 1.30726,-3.55575 c 0.0523,-0.13073 0.13073,-0.18302 0.23531,-0.18302 h 5.30748 c 0.13073,0 0.15687,0.0262 0.20916,0.13073 l 2.06548,5.09832 c 0.15687,0.36604 -0.0784,0.54905 -0.20916,0.60134 -0.10459,0.0523 -0.15688,0.0523 -0.15688,0.15687 0,0.13073 0.36604,0.13073 0.81051,0.15688 1.59486,0.0523 3.2943,0.0523 3.63419,0.0523 0.26145,0 0.5229,-0.0523 0.5229,-0.18302 0,-0.13073 -0.15687,-0.18302 -0.2876,-0.18302 -0.2353,0 -0.57519,-0.0261 -0.91508,-0.13072 -0.49676,-0.15687 -1.12425,-0.44447 -1.96089,-2.43151 -1.41185,-3.37274 -5.09833,-12.54972 -5.51665,-13.49095 -0.23531,-0.49676 -0.31374,-0.8105 -0.54905,-0.8105 -0.15687,0 -0.26145,0.13073 -0.54905,0.86279 z m 3.32045,-4.65385 c -0.0784,0 -0.10458,-0.0523 -0.0784,-0.15687 l 2.14391,-6.09184 c 0.13073,-0.33989 0.26146,-0.33989 0.39218,0 l 2.27464,6.09184 c 0.0261,0.10458 0.0261,0.15687 -0.0784,0.15687 z"
         inkscape:connector-curvature="0" />
      <path
         id="path2290"
         style="font-style:normal;font-variant:normal;font-weight:normal;font-stretch:normal;font-family:'Trajan Pro';-inkscape-font-specification:'Trajan Pro';fill:url(#linearGradient2341);fill-opacity:1;stroke:none;stroke-width:1.49401391px"
         d="m 156.188,125.50502 c 0,2.14391 0,3.89564 -0.13073,4.81073 -0.10458,0.65363 -0.15687,1.07195 -0.60134,1.17653 -0.20916,0.0523 -0.49676,0.10458 -0.70592,0.10458 -0.13073,0 -0.18302,0.10458 -0.18302,0.18302 0,0.13073 0.13073,0.18302 0.36604,0.18302 0.70592,0 2.1962,-0.0784 2.27463,-0.0784 0.10458,0 1.62101,0.0784 2.87598,0.0784 0.26145,0 0.36603,-0.0784 0.36603,-0.18302 0,-0.0784 -0.0523,-0.18302 -0.18301,-0.18302 -0.20917,0 -0.70593,-0.0523 -1.01967,-0.10458 -0.70592,-0.10458 -0.83665,-0.5229 -0.91508,-1.17653 -0.10458,-0.91509 -0.10458,-2.66682 -0.10458,-4.81073 v -9.04625 c 0,-0.23531 0.0523,-0.39218 0.18301,-0.41833 0.23531,-0.0523 0.88894,-0.15687 1.28112,-0.15687 0.5229,0 1.9086,-0.13073 3.11128,1.07196 1.22883,1.20268 1.30727,2.64067 1.30727,3.37273 0,2.01319 -1.77788,3.5819 -4.26168,3.5819 -0.47061,0 -0.60134,0.0523 -0.60134,0.23531 0,0.10458 0.13073,0.20916 0.23531,0.20916 0.13072,0.0262 0.5229,0.0262 0.65363,0.0262 3.52961,0 5.93497,-2.11777 5.93497,-5.30749 0,-1.20268 -0.62749,-2.1962 -1.15039,-2.66681 -0.39218,-0.33989 -1.43799,-1.25498 -4.3924,-1.25498 -1.04581,0 -2.7714,0.0523 -3.26816,0.0523 -0.18301,0 -1.621,-0.0523 -2.66681,-0.0523 -0.26146,0 -0.36604,0.0523 -0.36604,0.18302 0,0.0784 0.10458,0.18302 0.18302,0.18302 0.20916,0 0.60134,0.0261 0.78436,0.0523 0.75821,0.10458 0.88894,0.47061 0.94123,1.22882 0.0523,0.70593 0.0523,1.33341 0.0523,4.78458 z"
         inkscape:connector-curvature="0" />
    </g>
    <g
       id="text910"
       style="font-style:normal;font-variant:normal;font-weight:normal;font-stretch:normal;font-size:26.1452446px;line-height:125%;font-family:'Open Sans';-inkscape-font-specification:'Open Sans, Normal';text-align:center;letter-spacing:0px;word-spacing:0px;writing-mode:lr-tb;text-anchor:middle;fill:url(#linearGradient870);fill-opacity:1;stroke:none;stroke-width:1.49401391px;stroke-linecap:butt;stroke-linejoin:miter;stroke-opacity:1;filter:url(#filter916)"
       aria-label="aoe2map"
       transform="translate(5.2916664)">
      <path
         id="path2261"
         style="font-style:normal;font-variant:normal;font-weight:normal;font-stretch:normal;font-family:'Trajan Pro';-inkscape-font-specification:'Trajan Pro';fill:url(#linearGradient2347);fill-opacity:1;stroke:none;stroke-width:1.49401391px"
         d="m 47.349432,129.50524 c -0.444469,1.12425 -0.888938,1.90861 -1.934748,2.03933 -0.183017,0.0262 -0.522905,0.0523 -0.679777,0.0523 -0.104581,0 -0.209161,0.0784 -0.209161,0.18302 0,0.13073 0.156871,0.18302 0.444469,0.18302 0.941228,0 2.091619,-0.0784 2.326926,-0.0784 0.261453,0 1.516425,0.0784 2.065475,0.0784 0.209162,0 0.339888,-0.0523 0.339888,-0.18302 0,-0.10458 -0.05229,-0.18302 -0.235307,-0.18302 h -0.209162 c -0.392179,0 -0.784358,-0.15687 -0.784358,-0.60134 0,-0.39218 0.130727,-0.94123 0.339889,-1.49028 l 1.307262,-3.55575 c 0.05229,-0.13073 0.130726,-0.18302 0.235307,-0.18302 h 5.307485 c 0.130726,0 0.156871,0.0262 0.209162,0.13073 l 2.065474,5.09832 c 0.156871,0.36604 -0.07844,0.54905 -0.209162,0.60134 -0.104581,0.0523 -0.156871,0.0523 -0.156871,0.15687 0,0.13073 0.366033,0.13073 0.810502,0.15688 1.59486,0.0523 3.294301,0.0523 3.634189,0.0523 0.261453,0 0.522905,-0.0523 0.522905,-0.18302 0,-0.13073 -0.156871,-0.18302 -0.287598,-0.18302 -0.235307,0 -0.575195,-0.0261 -0.915083,-0.13072 -0.49676,-0.15687 -1.124246,-0.44447 -1.960894,-2.43151 -1.411843,-3.37274 -5.098322,-12.54972 -5.516646,-13.49095 -0.235307,-0.49676 -0.313743,-0.8105 -0.54905,-0.8105 -0.156872,0 -0.261453,0.13073 -0.54905,0.86279 z m 3.320446,-4.65385 c -0.07844,0 -0.104581,-0.0523 -0.07844,-0.15687 l 2.14391,-6.09184 c 0.130727,-0.33989 0.261453,-0.33989 0.392179,0 l 2.274636,6.09184 c 0.02615,0.10458 0.02615,0.15687 -0.07843,0.15687 z"
         inkscape:connector-curvature="0" />
      <path
         id="path2263"
         style="font-style:normal;font-variant:normal;font-weight:normal;font-stretch:normal;font-family:'Trajan Pro';-inkscape-font-specification:'Trajan Pro';fill:url(#linearGradient2349);fill-opacity:1;stroke:none;stroke-width:1.49401391px"
         d="m 62.933223,123.51798 c 0,4.00022 2.69296,8.73251 8.993964,8.73251 5.542792,0 9.229272,-4.1048 9.229272,-9.0724 0,-5.17675 -3.921787,-8.34033 -9.098545,-8.34033 -6.353295,0 -9.124691,5.09832 -9.124691,8.68022 z m 2.379217,-0.60134 c 0,-4.83687 2.771396,-7.24223 6.614747,-7.24223 3.634189,0 6.8762,2.79754 6.8762,8.13117 0,6.43173 -4.157094,7.52983 -6.222569,7.52983 -4.157093,0 -7.268378,-3.24201 -7.268378,-8.41877 z"
         inkscape:connector-curvature="0" />
      <path
         id="path2265"
         style="font-style:normal;font-variant:normal;font-weight:normal;font-stretch:normal;font-family:'Trajan Pro';-inkscape-font-specification:'Trajan Pro';fill:url(#linearGradient2351);fill-opacity:1;stroke:none;stroke-width:1.49401391px"
         d="m 85.973718,125.50502 c 0,2.14391 0,3.89564 -0.130726,4.81073 -0.104581,0.65363 -0.156872,1.0981 -0.601341,1.17653 -0.209162,0.0262 -0.49676,0.10458 -0.705922,0.10458 -0.130726,0 -0.183016,0.10458 -0.183016,0.18302 0,0.13073 0.130726,0.18302 0.366033,0.18302 0.366033,0 0.888938,-0.0262 1.333408,-0.0523 0.496759,-0.0262 0.941228,-0.0262 0.993519,-0.0262 0.339888,0 0.941229,0 1.908603,0.0523 0.941228,0.0262 2.274636,0.0784 4.000222,0.0784 0.888938,0 1.124246,0 1.281117,-0.5752 0.130726,-0.47061 0.313743,-1.98704 0.313743,-2.14391 0,-0.15687 -0.02614,-0.33989 -0.156871,-0.33989 -0.130727,0 -0.183017,0.0784 -0.235308,0.33989 -0.130726,0.88894 -0.444469,1.28112 -1.045809,1.54257 -0.601341,0.23531 -1.699441,0.23531 -2.300782,0.23531 -2.274636,0 -2.69296,-0.2876 -2.745251,-1.77788 -0.02614,-0.44447 0,-3.03285 0,-3.79106 v -1.85631 c 0,-0.0784 0.02615,-0.15687 0.156872,-0.15687 0.392178,0 2.849831,0.0261 3.477317,0.10458 0.888939,0.10458 1.098101,0.36603 1.176536,0.67977 0.104581,0.2876 0.104581,0.52291 0.104581,0.73207 0,0.13073 0.05229,0.20916 0.156872,0.20916 0.156871,0 0.209162,-0.2353 0.209162,-0.41832 0,-0.15687 0.05229,-0.99352 0.104581,-1.43799 0.05229,-0.73207 0.183016,-1.0981 0.183016,-1.22883 0,-0.13072 -0.05229,-0.18301 -0.130726,-0.18301 -0.07844,0 -0.183017,0.13072 -0.339888,0.2876 -0.235307,0.2353 -0.575195,0.26145 -1.124245,0.31374 -0.522905,0.0523 -3.555754,0.0523 -3.843351,0.0523 -0.130727,0 -0.130727,-0.0784 -0.130727,-0.23531 v -6.03955 c 0,-0.15687 0.02615,-0.23531 0.130727,-0.23531 0.261452,0 2.928267,0.0262 3.320446,0.0784 1.254971,0.15687 1.490279,0.31374 1.64715,0.67977 0.104581,0.26146 0.130726,0.62749 0.130726,0.78436 0,0.18302 0.05229,0.2876 0.183017,0.2876 0.104581,0 0.183017,-0.13073 0.209162,-0.23531 0.05229,-0.26145 0.104581,-1.25497 0.130726,-1.46413 0.05229,-0.62749 0.183017,-0.88894 0.183017,-1.04581 0,-0.10458 -0.02614,-0.20916 -0.104581,-0.20916 -0.104581,0 -0.209162,0.0784 -0.313743,0.10458 -0.183017,0.0261 -0.601341,0.10458 -1.04581,0.13072 -0.522905,0.0262 -5.33363,0 -5.490501,0 -0.130726,0 -1.621005,-0.0523 -2.666815,-0.0523 -0.261453,0 -0.366034,0.0523 -0.366034,0.18302 0,0.0784 0.104581,0.18302 0.183017,0.18302 0.209162,0 0.601341,0.0261 0.784357,0.0523 0.758213,0.10458 0.888939,0.47061 0.941229,1.22882 0.05229,0.70593 0.05229,1.33341 0.05229,4.78458 z"
         inkscape:connector-curvature="0" />
      <path
         id="path2267"
         style="font-style:normal;font-variant:normal;font-weight:normal;font-stretch:normal;font-family:'Trajan Pro';-inkscape-font-specification:'Trajan Pro';fill:url(#linearGradient2353);fill-opacity:1;stroke:none;stroke-width:1.49401391px"
         d="m 107.51168,131.88446 c 1.0981,0 1.49028,-0.0784 1.69944,-0.78436 0.26146,-0.88894 0.78436,-2.92826 0.78436,-3.42502 0,-0.15688 -0.0261,-0.39218 -0.15687,-0.39218 -0.15687,0 -0.23531,0.10458 -0.31374,0.39218 -0.31375,1.38569 -1.15039,2.32692 -3.059,2.50994 -0.94122,0.10458 -4.02636,0.13073 -4.47083,0.13073 h -1.90861 c -0.130722,0 -0.183012,-0.0784 -0.0523,-0.18302 3.24201,-2.7714 9.09855,-7.60827 9.09855,-13.02033 0,-2.7714 -1.96089,-5.28134 -5.90883,-5.28134 -2.11776,0 -3.634185,0.47061 -4.601559,0.91508 -0.235307,0.15687 -0.261453,0.23531 -0.261453,0.39218 0,0.8105 0.130726,2.98056 0.156872,3.21587 0.02614,0.2353 0.104581,0.33988 0.209162,0.33988 0.130726,0 0.235307,-0.15687 0.235307,-0.39218 0,-1.01966 0.287598,-1.93474 0.915083,-2.53608 0.758208,-0.70593 1.542568,-0.99352 2.797538,-0.99352 1.75174,0 4.1571,1.0981 4.1571,4.83687 0,5.01988 -3.89564,8.62793 -9.124693,13.28178 -0.209162,0.18302 -0.470614,0.41833 -0.470614,0.62749 0,0.20916 0.183016,0.36603 0.366033,0.36603 z"
         inkscape:connector-curvature="0" />
      <path
         id="path2269"
         style="font-style:normal;font-variant:normal;font-weight:normal;font-stretch:normal;font-family:'Trajan Pro';-inkscape-font-specification:'Trajan Pro';fill:url(#linearGradient2355);fill-opacity:1;stroke:none;stroke-width:1.49401391px"
         d="m 130.94599,115.4391 c -0.0523,-0.41832 -0.18302,-0.60134 -0.33989,-0.60134 -0.15687,0 -0.26145,0.15687 -0.36603,0.36603 l -6.69318,13.77855 -6.95464,-13.80469 c -0.13072,-0.26145 -0.31374,-0.33989 -0.47061,-0.33989 -0.13073,0 -0.23531,0.15687 -0.26146,0.39218 l -1.67329,14.51061 c -0.10458,0.83665 -0.13073,1.64715 -0.88894,1.77788 -0.33989,0.0523 -0.49676,0.0784 -0.67978,0.0784 -0.13072,0 -0.2353,0.0784 -0.2353,0.15687 0,0.15688 0.15687,0.20917 0.39218,0.20917 0.62748,0 1.72558,-0.0784 1.93474,-0.0784 0.18302,0 1.28112,0.0784 2.14391,0.0784 0.26146,0 0.41833,-0.0523 0.41833,-0.20917 0,-0.0784 -0.10458,-0.15687 -0.18302,-0.15687 -0.15687,0 -0.49676,-0.0261 -0.88894,-0.13072 -0.33989,-0.0784 -0.54905,-0.2876 -0.54905,-0.62749 0,-0.36603 0,-0.78436 0.0262,-1.12424 l 0.88894,-10.03978 h 0.10458 c 0.39218,0.91508 2.24849,4.65385 2.92826,6.0657 0.5752,1.20268 2.09162,4.05251 2.69296,5.15061 0.44447,0.8105 0.5752,1.01967 0.78436,1.01967 0.20916,0 0.33989,-0.20917 0.8105,-1.17654 l 5.5428,-11.34704 h 0.0523 l 1.0981,11.24246 c 0.0523,0.41832 0.0261,0.75821 -0.10458,0.78436 -0.10458,0.0261 -0.15687,0.10458 -0.15687,0.18301 0,0.10458 0.10458,0.18302 0.65363,0.23531 0.83664,0.0784 3.39888,0.13073 3.92178,0.13073 0.26146,0 0.47062,-0.0784 0.47062,-0.20917 0,-0.10458 -0.0784,-0.15687 -0.18302,-0.15687 -0.23531,0 -0.83665,0 -1.49028,-0.20916 -0.94123,-0.31374 -1.0981,-1.51642 -1.17653,-2.30078 z"
         inkscape:connector-curvature="0" />
      <path
         id="path2271"
         style="font-style:normal;font-variant:normal;font-weight:normal;font-stretch:normal;font-family:'Trajan Pro';-inkscape-font-specification:'Trajan Pro';fill:url(#linearGradient2357);fill-opacity:1;stroke:none;stroke-width:1.49401391px"
         d="m 137.98968,129.50524 c -0.44447,1.12425 -0.88894,1.90861 -1.93475,2.03933 -0.18301,0.0262 -0.5229,0.0523 -0.67977,0.0523 -0.10458,0 -0.20916,0.0784 -0.20916,0.18302 0,0.13073 0.15687,0.18302 0.44447,0.18302 0.94122,0 2.09162,-0.0784 2.32692,-0.0784 0.26146,0 1.51643,0.0784 2.06548,0.0784 0.20916,0 0.33989,-0.0523 0.33989,-0.18302 0,-0.10458 -0.0523,-0.18302 -0.23531,-0.18302 h -0.20916 c -0.39218,0 -0.78436,-0.15687 -0.78436,-0.60134 0,-0.39218 0.13072,-0.94123 0.33989,-1.49028 l 1.30726,-3.55575 c 0.0523,-0.13073 0.13073,-0.18302 0.23531,-0.18302 h 5.30748 c 0.13073,0 0.15687,0.0262 0.20916,0.13073 l 2.06548,5.09832 c 0.15687,0.36604 -0.0784,0.54905 -0.20916,0.60134 -0.10459,0.0523 -0.15688,0.0523 -0.15688,0.15687 0,0.13073 0.36604,0.13073 0.81051,0.15688 1.59486,0.0523 3.2943,0.0523 3.63419,0.0523 0.26145,0 0.5229,-0.0523 0.5229,-0.18302 0,-0.13073 -0.15687,-0.18302 -0.2876,-0.18302 -0.2353,0 -0.57519,-0.0261 -0.91508,-0.13072 -0.49676,-0.15687 -1.12425,-0.44447 -1.96089,-2.43151 -1.41185,-3.37274 -5.09833,-12.54972 -5.51665,-13.49095 -0.23531,-0.49676 -0.31374,-0.8105 -0.54905,-0.8105 -0.15687,0 -0.26145,0.13073 -0.54905,0.86279 z m 3.32045,-4.65385 c -0.0784,0 -0.10458,-0.0523 -0.0784,-0.15687 l 2.14391,-6.09184 c 0.13073,-0.33989 0.26146,-0.33989 0.39218,0 l 2.27464,6.09184 c 0.0261,0.10458 0.0261,0.15687 -0.0784,0.15687 z"
         inkscape:connector-curvature="0" />
      <path
         id="path2273"
         style="font-style:normal;font-variant:normal;font-weight:normal;font-stretch:normal;font-family:'Trajan Pro';-inkscape-font-specification:'Trajan Pro';fill:url(#linearGradient2359);fill-opacity:1;stroke:none;stroke-width:1.49401391px"
         d="m 156.188,125.50502 c 0,2.14391 0,3.89564 -0.13073,4.81073 -0.10458,0.65363 -0.15687,1.07195 -0.60134,1.17653 -0.20916,0.0523 -0.49676,0.10458 -0.70592,0.10458 -0.13073,0 -0.18302,0.10458 -0.18302,0.18302 0,0.13073 0.13073,0.18302 0.36604,0.18302 0.70592,0 2.1962,-0.0784 2.27463,-0.0784 0.10458,0 1.62101,0.0784 2.87598,0.0784 0.26145,0 0.36603,-0.0784 0.36603,-0.18302 0,-0.0784 -0.0523,-0.18302 -0.18301,-0.18302 -0.20917,0 -0.70593,-0.0523 -1.01967,-0.10458 -0.70592,-0.10458 -0.83665,-0.5229 -0.91508,-1.17653 -0.10458,-0.91509 -0.10458,-2.66682 -0.10458,-4.81073 v -9.04625 c 0,-0.23531 0.0523,-0.39218 0.18301,-0.41833 0.23531,-0.0523 0.88894,-0.15687 1.28112,-0.15687 0.5229,0 1.9086,-0.13073 3.11128,1.07196 1.22883,1.20268 1.30727,2.64067 1.30727,3.37273 0,2.01319 -1.77788,3.5819 -4.26168,3.5819 -0.47061,0 -0.60134,0.0523 -0.60134,0.23531 0,0.10458 0.13073,0.20916 0.23531,0.20916 0.13072,0.0262 0.5229,0.0262 0.65363,0.0262 3.52961,0 5.93497,-2.11777 5.93497,-5.30749 0,-1.20268 -0.62749,-2.1962 -1.15039,-2.66681 -0.39218,-0.33989 -1.43799,-1.25498 -4.3924,-1.25498 -1.04581,0 -2.7714,0.0523 -3.26816,0.0523 -0.18301,0 -1.621,-0.0523 -2.66681,-0.0523 -0.26146,0 -0.36604,0.0523 -0.36604,0.18302 0,0.0784 0.10458,0.18302 0.18302,0.18302 0.20916,0 0.60134,0.0261 0.78436,0.0523 0.75821,0.10458 0.88894,0.47061 0.94123,1.22882 0.0523,0.70593 0.0523,1.33341 0.0523,4.78458 z"
         inkscape:connector-curvature="0" />
    </g>
  </g>
</svg>
