<?xml version="1.0" encoding="UTF-8" standalone="no"?>
<svg
   xmlns:dc="http://purl.org/dc/elements/1.1/"
   xmlns:cc="http://creativecommons.org/ns#"
   xmlns:rdf="http://www.w3.org/1999/02/22-rdf-syntax-ns#"
   xmlns:svg="http://www.w3.org/2000/svg"
   xmlns="http://www.w3.org/2000/svg"
   version="1.1"
   viewBox="0 0 362.19931 331.35812"
   id="svg2">
  <defs
     id="defs963" />
  <title
     id="title4103">treasure map</title>
  <g
     transform="translate(-150.22232,-343.2687)"
     id="layer1">
    <g
       id="g1879">
      <path
         id="path1861"
         style="fill:#000000;stroke:#000000;stroke-linejoin:round"
         d="m 368.56,423.81 c -13.446,0.45632 -26.909,0.86431 -40.301,2.23 -7.5008,0.80759 -14.983,1.8595 -22.348,3.5131 -8.1517,1.7146 -16.224,3.8188 -24.18,6.286 -3.4014,1.2262 -7.277,2.0717 -9.6553,5.033 -2.6358,3.1298 -3.6452,7.1889 -5.2444,10.871 -3.5742,9.26 -6.4829,15.645 -7.856,25.524 -0.32828,0.60831 3.7303,2.6927 3.7474,4.0617 0.0172,1.3821 -4.7273,2.0132 -4.8124,2.6203 -1.1452,8.1699 -2.0465,16.373 -3.1982,24.542 -2.6874,20.288 -5.2057,40.599 -8.1326,60.855 -1.2581,8.5744 -2.1117,18.377 -3.3779,26.944 -0.13808,0.93416 4.3229,0.72903 8.3933,2.5028 1.5716,0.68488 -4.3318,-1.4396 -2.2228,2.3401 -1.8315,1.6475 -6.954,0.26299 -7.0425,0.7275 -0.64278,3.3722 -2.3752,5.4908 -3.0509,8.8562 -1.5563,7.2533 -3.0421,14.558 -5.5399,21.559 -0.99386,2.51 -2.1068,5.0792 -3.9796,7.063 -1.0915,0.9712 -2.5805,1.14 -3.9805,1.0342 -3.5931,-0.17468 -7.1606,-0.73296 -10.713,-1.2833 -7.0875,-1.1585 -14.028,-3.0279 -21.037,-4.5605 -1.3542,-0.28412 -2.714,0.58689 -3.0938,1.9062 -0.65318,1.9739 0.43817,3.896 0.76848,5.819 1.38,5.4935 2.9791,10.973 5.4503,16.087 2.3303,3.3251 6.4645,4.7743 10.368,5.091 7.9861,1.3278 16.056,2.0392 24.089,3.011 14.125,1.5636 28.291,2.7815 42.484,3.5276 10.544,0.54758 21.096,0.94846 31.642,1.4598 21.504,0.94983 43.014,1.7942 64.53,2.4135 14.404,0.36459 28.822,0.44379 43.22,-0.17073 4.5467,-0.20903 9.1077,-0.56458 13.59,-1.3568 4.6201,-1.3615 8.295,-4.7773 11.27,-8.4364 4.8921,-5.959 8.663,-17.931 10.882,-25.228 0.54382,-1.8349 -4.1872,-2.1947 -5.1502,-2.8392 -2.7539,-1.8431 6.2134,-1.7168 6.3978,-2.3974 2.5385,-9.3697 4.6175,-16.515 6.7126,-25.995 0.21036,-0.9519 -3.6672,-4.5436 -2.7637,-4.9096 1.9223,-0.7789 3.5734,0.40603 4.1562,-2.247 3.0576,-14.182 7.1243,-32.029 9.3997,-46.362 1.2854,-8.1238 2.3035,-16.295 2.9226,-24.498 -2.504,-2.2536 -2.8946,-0.68825 -6.1205,-1.4375 2.2495,-4.9664 -6.9818,-3.0666 -6.8614,-4.8168 0.0842,-1.2227 7.3413,-2.1331 7.8569,-2.2636 1.072,-0.29024 7.1546,-1.3167 7.2202,-2.537 1.5733,-8.1957 4.1956,-16.146 6.1583,-24.252 1.0999,-4.7546 1.6907,-9.6061 2.0487,-14.468 0.47884,-4.2497 0.92318,-8.6061 2.729,-12.537 1.4219,-1.9789 4.1994,-2.3216 6.375,-1.5625 5.0938,1.25 10.188,2.5 15.281,3.75 2.446,-0.10885 4.106,-2.3762 4.7812,-4.5312 2.0352,-7.2484 2.2476,-15.192 -0.46862,-22.296 -1.3281,-3.9458 -4.5192,-7.1489 -8.4064,-8.6098 -4.2183,-1.6591 -8.8239,-1.6306 -13.243,-2.3637 -13.07,-1.7628 -26.175,-3.3036 -39.324,-4.3268 -14.931,-1.0692 -29.864,-2.177 -44.828,-2.6679 -11.05,-0.45975 -22.11,-0.69181 -33.169,-0.71557 -0.7907,0.0143 -1.5814,0.0285 -2.3721,0.0427 v 4e-5 z m 81.375,98.844 c 0.0239,0.33178 -0.16885,-0.33257 0,0 z" />
      <path
         id="path1863"
         style="fill:#ac9d93;stroke:#000000;stroke-linejoin:round"
         d="m 483.94,435.22 -26.44,22.84 48.562,8.2188 c 2.9962,-5.2928 4.1568,-15.607 1.0312,-22.906 l -11.625,-1.6562 9.9375,-1.3125 c -2.0494,-2.8864 -5.0767,-4.8911 -9.3438,-5.1875 h -12.125 z" />
      <path
         id="path1865"
         style="fill:#f3f0ed;stroke:#000000;stroke-linejoin:round"
         d="m 369.72,426.22 c -17.893,0.75981 -35.857,1.3993 -53.552,4.3611 -10.684,1.6825 -21.258,4.013 -31.738,6.6755 -2.8568,0.87197 -5.848,1.4374 -8.5162,2.8188 -3.2136,2.0624 -4.655,5.8162 -5.8275,9.2772 -1.724,5.0859 -2.7835,10.365 -4.3038,15.512 -1.1356,4.2956 -2.2712,8.5912 -3.4069,12.887 1.8134,2.5061 6.1912,2.8527 9.1562,3.7188 -0.96549,2.1129 -4.4566,1.4765 -6.5938,1.6562 0.0659,1.1741 2.6921,2.6022 3.5752,2.9802 -3.4944,1.0548 -4.9994,-0.14545 -7.0752,-0.35517 -1.0979,0.19043 -0.94154,1.5667 -1,2.4062 -1.3951,11.146 -2.6749,22.305 -3.8592,33.475 -0.83375,8.1288 -1.9148,16.242 -3.6494,24.232 -1.7149,8.7934 -3.7421,17.573 -4.3039,26.538 0.32216,2.7422 3.4908,1.9126 4.9375,3.6609 -0.8578,2.1318 -3.4378,0.88149 -5.0625,2.1875 -0.49446,1.4512 -0.38458,3.0316 -0.57891,4.5413 -0.29687,4.253 -0.83057,8.4836 -1.3898,12.709 4.5566,0.85699 9.0421,2.0469 13.5,3.3125 -0.96113,2.179 -4.6511,1.6106 -6.9688,1.9062 1.0217,0.86491 0.20793,1.647 2.9879,4.0524 -2.2208,0.52844 -8.6807,-0.8359 -10.925,-0.48988 -1.0256,0.36186 -0.61827,1.6995 -1.0448,2.4897 -1.2561,12.357 -10.364,15.614 0.95104,18.26 -1.9272,0.83338 -4.1707,0.45393 -6,1.5312 -0.43724,1.0902 -0.55914,2.278 -0.98987,3.3724 -1.354,4.9558 -2.6312,10.218 -6.1588,14.143 -4.7535,5.6964 -11.104,10.34 -18.438,11.966 -0.78456,0.35708 -2.4835,0.16404 -2.726,0.76898 0.89271,0.33827 1.8983,-0.007 2.8286,0.22241 69.547,4.4363 139.09,8.8726 208.64,13.309 5.3761,-0.15899 10.254,-3.391 13.417,-7.5972 5.1109,-6.1089 8.1174,-13.662 10.177,-21.278 0.22999,-0.87794 0.89981,-2.0918 -0.0763,-2.744 -1.3145,-0.91817 -3.0308,-0.64828 -4.516,-1.0858 -1.7625,0.14717 -4.3601,-1.2685 -4.3828,-1.285 1.2016,-0.1673 3.0081,-1.4883 4.1314,-1.9476 -2.0902,-1.14 -3.3186,-0.3507 -4.5938,-2.0625 3.1727,-0.38652 6.3495,0.23401 9.5256,0.23789 0.98658,0.3177 2.1783,-0.0575 1.9898,-1.3047 1.2946,-8.6604 3.6827,-17.1 5.8909,-25.558 -1.6351,-3.0378 -5.6451,-4.7224 -8.5625,-6.6562 3.6267,-0.53784 7.2328,0.12255 9.5938,0.90625 2.9346,-13.816 6.2701,-27.549 8.7981,-41.449 1.7539,-9.23 3.5324,-18.456 5.1706,-27.707 -3.6206,-0.79056 -7.3809,-0.32402 -10.969,-1.375 -0.62723,-0.80036 7.4331,-3.0062 5.926,-3.2573 -3.2533,-1.1485 -12.996,-1.9394 -16.395,-2.6177 2.4956,-1.4141 7.2017,-0.99419 10.5,-1.375 -1.4861,-1.3639 -2.1335,-1.729 -4.8438,-3.1562 3.6152,-0.11859 5.0998,0.12582 7.0906,-0.0105 3.9635,-0.30055 6.8166,-1.7662 10.784,-1.3332 2.8769,-15.233 6.0844,-30.4 9.2365,-45.577 0.91915,-4.5212 1.4522,-9.111 1.7431,-13.713 0.34568,-4.3303 0.46971,-8.7223 1.3147,-12.98 0.60968,-2.5669 1.7262,-5.0454 3.4776,-7.079 1.3319,-1.4663 2.9521,-2.761 4.9468,-3.1499 -0.87476,-0.18093 -1.8321,-0.16384 -2.7374,-0.32957 -6.1749,-0.81338 -12.311,-1.899 -18.502,-2.5964 -8.3981,-0.93499 -16.805,-1.8024 -25.216,-2.6182 -15.907,-1.5085 -31.859,-2.5379 -47.828,-3.091 -8.3931,-0.28823 -16.793,-0.35121 -25.19,-0.34621 -0.79016,0.004 -1.5803,0.008 -2.3705,0.0127 z" />
      <path
         id="path1867"
         style="opacity:0.3;fill:none;stroke:#000000;stroke-width:0.40000001;stroke-linejoin:round;stroke-dasharray:9.6, 9.6"
         d="m 241.71,618.9 c 63.165,-0.66832 133.79,3.997 207.59,0.50507 m -199.59,-40.51 c 63.165,-0.66832 133.79,3.997 207.59,0.50507 m -199.59,-40.51 c 63.827,-5.3068 134.47,-0.79216 207.59,0.50507 m -201.59,-40.51 c 63.827,-5.3068 135.99,-4.3277 209.1,-3.0305 m -203.1,-36.97 c 68.855,-13.687 138.92,-9.2153 209.1,-3.0305 m -193.54,-18.69 c -12.627,24.244 -32.498,179.11 -35.355,188.39 -8.0812,26.264 -26.264,37.376 -26.264,37.376 m 222.63,-230.82 c -12.627,24.244 -36.539,183.65 -39.396,192.94 -8.0812,26.264 -23.234,37.881 -23.234,37.881 m 23.135,-234.36 c -12.627,24.244 -37.044,187.19 -39.901,196.47 -8.0812,26.264 -23.234,37.881 -23.234,37.881 m 24.15,-235.36 c -12.627,24.244 -38.054,188.2 -40.911,197.48 -8.0812,26.264 -23.234,37.881 -23.234,37.881 m -75.939,-4.0508 c 63.165,-0.66832 133.79,3.997 207.59,0.50507 m -107.5,-230.3 c -12.627,24.244 -38.054,186.68 -40.911,195.97 -8.0812,26.264 -23.234,37.881 -23.234,37.881" />
      <path
         id="path1869"
         style="fill:#ac9d93;stroke:#000000;stroke-linejoin:round"
         d="m 193.94,637.56 c -0.81151,0.86018 -0.24712,2.1871 -0.3125,3.25 0.23331,1.2634 -0.1361,2.989 1.2188,3.7188 1.1304,0.68394 2.4879,0.72941 3.75,1 0.81744,-0.46668 1.8486,1.1343 0.65625,1.2812 -1.4819,0.23914 -3.0295,0.41204 -4.4062,1.0625 -0.91655,1.1897 0.31626,2.5446 0.20405,3.8383 -0.0183,1.1608 1.4578,1.5715 1.4975,2.6565 0.0471,1.008 0.0537,2.1302 0.86515,2.8575 1.8304,2.48 5.0614,3.1583 7.9601,3.4013 11.512,1.3734 23.041,2.613 34.575,3.785 12.983,1.2069 25.992,2.0959 39.001,2.9655 21.414,1.4502 42.869,2.1426 64.315,2.889 25.865,0.68559 51.74,0.85441 77.613,0.73189 -3.6047,-2.4393 -5.7773,-6.441 -7.0167,-10.52 -0.68951,-2.1133 -1.1515,-4.2895 -1.6708,-6.4484 -1.837,-0.93543 -3.9667,-0.41976 -5.9271,-0.80903 -8.6506,-0.72261 -17.368,-0.7655 -26.01,0.0903 -8.5865,0.60642 -17.197,0.58332 -25.8,0.61772 -4.1393,-0.003 -8.2792,0.23766 -12.414,-0.0598 -3.8242,-0.0482 -7.6194,-0.6075 -11.418,-1.0091 -5.9018,-0.69514 -11.821,-1.2428 -17.761,-1.478 -8.6109,-0.47843 -17.22,-0.99235 -25.824,-1.5791 -9.7002,-0.50839 -19.42,-0.67375 -29.106,-1.4322 -8.3396,-0.65073 -16.579,-2.1338 -24.86,-3.2637 -7.626,-1.1338 -15.3,-1.9875 -22.854,-3.557 -5.2463,-1.05 -10.481,-2.2461 -15.568,-3.9083 -0.209,-0.1272 -0.47625,-0.14379 -0.70858,-0.0806 z" />
      <path
         id="path1871"
         style="color:#000000;text-indent:0;text-transform:none;fill:#483e37"
         d="m 400.05,622.97 c -1.3422,0.0116 -2.6776,0.42736 -3.8246,1.1194 -0.88078,0.40802 -1.5159,1.1384 -2.0989,1.889 -0.43599,0.39141 -0.42859,1.1219 -0.1166,1.5858 0.43234,0.40797 1.1017,0.41282 1.6558,0.27985 0.51512,0.0243 1.0693,-0.19746 1.6325,0.0233 0.80956,0.23758 1.577,0.71631 1.9356,1.5158 0.33995,0.58239 0.52034,1.3472 0.0933,1.9356 -0.28672,0.46125 -0.71075,0.97309 -1.0961,1.2593 -1.5273,1.2101 -3.4351,1.7362 -5.2239,2.4254 -0.54867,0.2015 -1.8158,-0.0812 -1.7724,0.76959 0.43608,0.77545 1.3674,0.0715 2.0289,0.0933 1.2168,-0.18217 2.4679,-0.34083 3.6147,-0.81623 0.44077,-0.16237 0.8691,-0.35378 1.2826,-0.58302 l 1.5625,2.472 0.51306,-0.32649 -1.9823,-2.1922 c 0.77043,-0.43953 1.4714,-0.99096 2.0289,-1.6791 l 2.2621,4.1744 0.51305,-0.27985 -2.6819,-4.0345 c 0.0715,-0.0935 0.14374,-0.18182 0.20989,-0.27985 0.59816,-0.80454 0.93497,-1.8418 0.86287,-2.8451 -0.11027,-1.2112 -0.9791,-2.1666 -1.9123,-2.8685 -0.61542,-0.43407 -1.355,-0.63212 -2.0989,-0.6763 -0.45859,-0.11866 0.43424,-0.35473 0.58302,-0.46642 0.63169,-0.34801 1.3557,-0.38107 2.0522,-0.46642 0.90798,-0.0828 1.7787,0.24653 2.6586,0.41978 2.1711,0.53305 4.1187,1.6841 6.1101,2.6586 3.0057,1.65 5.5072,4.031 8.0923,6.25 0.52088,0.27635 0.97169,1.4938 1.6325,1.0028 0.0777,-0.70844 -0.73442,-1.1079 -1.1194,-1.6091 -1.1498,-1.6388 -2.4767,-3.1728 -4.0812,-4.3843 -1.5559,-1.2476 -3.134,-2.4809 -4.7574,-3.638 -1.6243,-1.0704 -3.3781,-2.0264 -5.3172,-2.3554 -0.95691,-0.15068 -1.9228,-0.35855 -2.8918,-0.37313 -0.11901,0.004 -0.23081,-0.004 -0.34981,0 z m 5.0606,6.32 5.0839,7.6492 0.51306,-0.32649 -5.597,-7.3227 z m -2.9851,1.1194 4.0112,6.5298 0.51306,-0.32649 -4.5242,-6.2033 z" />
      <path
         id="path1873"
         style="color:#000000;text-indent:0;text-transform:none;fill:#483e37"
         d="m 380.031,632.4271 c -1.3422,0.0116 -2.6776,0.42736 -3.8246,1.1194 -0.88078,0.40802 -1.5159,1.1384 -2.0989,1.889 -0.43599,0.39141 -0.42859,1.1219 -0.1166,1.5858 0.43234,0.40797 1.1017,0.41282 1.6558,0.27985 0.51512,0.0243 1.0693,-0.19746 1.6325,0.0233 0.80956,0.23758 1.577,0.71631 1.9356,1.5158 0.33995,0.58239 0.52034,1.3472 0.0933,1.9356 -0.28672,0.46125 -0.71075,0.97309 -1.0961,1.2593 -1.5273,1.2101 -3.4351,1.7362 -5.2239,2.4254 -0.54867,0.2015 -1.8158,-0.0812 -1.7724,0.76959 0.43608,0.77545 1.3674,0.0715 2.0289,0.0933 1.2168,-0.18217 2.4679,-0.34083 3.6147,-0.81623 0.44077,-0.16237 0.8691,-0.35378 1.2826,-0.58302 l 1.5625,2.472 0.51306,-0.32649 -1.9823,-2.1922 c 0.77043,-0.43953 1.4714,-0.99096 2.0289,-1.6791 l 2.2621,4.1744 0.51305,-0.27985 -2.6819,-4.0345 c 0.0715,-0.0935 0.14374,-0.18182 0.20989,-0.27985 0.59816,-0.80454 0.93497,-1.8418 0.86287,-2.8451 -0.11027,-1.2112 -0.9791,-2.1666 -1.9123,-2.8685 -0.61542,-0.43407 -1.355,-0.63212 -2.0989,-0.6763 -0.45859,-0.11866 0.43424,-0.35473 0.58302,-0.46642 0.63169,-0.34801 1.3557,-0.38107 2.0522,-0.46642 0.90798,-0.0828 1.7787,0.24653 2.6586,0.41978 2.1711,0.53305 4.1187,1.6841 6.1101,2.6586 3.0057,1.65 5.5072,4.031 8.0923,6.25 0.52088,0.27635 0.97169,1.4938 1.6325,1.0028 0.0777,-0.70844 -0.73442,-1.1079 -1.1194,-1.6091 -1.1498,-1.6388 -2.4767,-3.1728 -4.0812,-4.3843 -1.5559,-1.2476 -3.134,-2.4809 -4.7574,-3.638 -1.6243,-1.0704 -3.3781,-2.0264 -5.3172,-2.3554 -0.95691,-0.15068 -1.9228,-0.35855 -2.8918,-0.37313 -0.11901,0.004 -0.23081,-0.004 -0.34981,0 z m 5.0606,6.32 5.0839,7.6492 0.51306,-0.32649 -5.597,-7.3227 z m -2.9851,1.1194 4.0112,6.5298 0.51306,-0.32649 -4.5242,-6.2033 z" />
      <path
         d="m 273.391,616.6251 c -1.3422,0.0116 -2.6776,0.42736 -3.8246,1.1194 -0.88078,0.40802 -1.5159,1.1384 -2.0989,1.889 -0.43599,0.39141 -0.42859,1.1219 -0.1166,1.5858 0.43234,0.40797 1.1017,0.41282 1.6558,0.27985 0.51512,0.0243 1.0693,-0.19746 1.6325,0.0233 0.80956,0.23758 1.577,0.71631 1.9356,1.5158 0.33995,0.58239 0.52034,1.3472 0.0933,1.9356 -0.28672,0.46125 -0.71075,0.97309 -1.0961,1.2593 -1.5273,1.2101 -3.4351,1.7362 -5.2239,2.4254 -0.54867,0.2015 -1.8158,-0.0812 -1.7724,0.76959 0.43608,0.77545 1.3674,0.0715 2.0289,0.0933 1.2168,-0.18217 2.4679,-0.34083 3.6147,-0.81623 0.44077,-0.16237 0.8691,-0.35378 1.2826,-0.58302 l 1.5625,2.472 0.51306,-0.32649 -1.9823,-2.1922 c 0.77043,-0.43953 1.4714,-0.99096 2.0289,-1.6791 l 2.2621,4.1744 0.51305,-0.27985 -2.6819,-4.0345 c 0.0715,-0.0935 0.14374,-0.18182 0.20989,-0.27985 0.59816,-0.80454 0.93497,-1.8418 0.86287,-2.8451 -0.11027,-1.2112 -0.9791,-2.1666 -1.9123,-2.8685 -0.61542,-0.43407 -1.355,-0.63212 -2.0989,-0.6763 -0.45859,-0.11866 0.43424,-0.35473 0.58302,-0.46642 0.63169,-0.34801 1.3557,-0.38107 2.0522,-0.46642 0.90798,-0.0828 1.7787,0.24653 2.6586,0.41978 2.1711,0.53305 4.1187,1.6841 6.1101,2.6586 3.0057,1.65 5.5072,4.031 8.0923,6.25 0.52088,0.27635 0.97169,1.4938 1.6325,1.0028 0.0777,-0.70844 -0.73442,-1.1079 -1.1194,-1.6091 -1.1498,-1.6388 -2.4767,-3.1728 -4.0812,-4.3843 -1.5559,-1.2476 -3.134,-2.4809 -4.7574,-3.638 -1.6243,-1.0704 -3.3781,-2.0264 -5.3172,-2.3554 -0.95691,-0.15068 -1.9228,-0.35855 -2.8918,-0.37313 -0.11901,0.004 -0.23081,-0.004 -0.34981,0 z m 5.0606,6.32 5.0839,7.6492 0.51306,-0.32649 -5.597,-7.3227 z m -2.9851,1.1194 4.0112,6.5298 0.51306,-0.32649 -4.5242,-6.2033 z"
         style="color:#000000;text-indent:0;text-transform:none;fill:#483e37"
         id="path1875" />
      <path
         id="path1877"
         style="color:#000000;text-indent:0;text-transform:none;fill:#483e37"
         d="m 287.028,629.6051 c -1.3422,0.0116 -2.6776,0.42736 -3.8246,1.1194 -0.88078,0.40802 -1.5159,1.1384 -2.0989,1.889 -0.43599,0.39141 -0.42859,1.1219 -0.1166,1.5858 0.43234,0.40797 1.1017,0.41282 1.6558,0.27985 0.51512,0.0243 1.0693,-0.19746 1.6325,0.0233 0.80956,0.23758 1.577,0.71631 1.9356,1.5158 0.33995,0.58239 0.52034,1.3472 0.0933,1.9356 -0.28672,0.46125 -0.71075,0.97309 -1.0961,1.2593 -1.5273,1.2101 -3.4351,1.7362 -5.2239,2.4254 -0.54867,0.2015 -1.8158,-0.0812 -1.7724,0.76959 0.43608,0.77545 1.3674,0.0715 2.0289,0.0933 1.2168,-0.18217 2.4679,-0.34083 3.6147,-0.81623 0.44077,-0.16237 0.8691,-0.35378 1.2826,-0.58302 l 1.5625,2.472 0.51306,-0.32649 -1.9823,-2.1922 c 0.77043,-0.43953 1.4714,-0.99096 2.0289,-1.6791 l 2.2621,4.1744 0.51305,-0.27985 -2.6819,-4.0345 c 0.0715,-0.0935 0.14374,-0.18182 0.20989,-0.27985 0.59816,-0.80454 0.93497,-1.8418 0.86287,-2.8451 -0.11027,-1.2112 -0.9791,-2.1666 -1.9123,-2.8685 -0.61542,-0.43407 -1.355,-0.63212 -2.0989,-0.6763 -0.45859,-0.11866 0.43424,-0.35473 0.58302,-0.46642 0.63169,-0.34801 1.3557,-0.38107 2.0522,-0.46642 0.90798,-0.0828 1.7787,0.24653 2.6586,0.41978 2.1711,0.53305 4.1187,1.6841 6.1101,2.6586 3.0057,1.65 5.5072,4.031 8.0923,6.25 0.52088,0.27635 0.97169,1.4938 1.6325,1.0028 0.0777,-0.70844 -0.73442,-1.1079 -1.1194,-1.6091 -1.1498,-1.6388 -2.4767,-3.1728 -4.0812,-4.3843 -1.5559,-1.2476 -3.134,-2.4809 -4.7574,-3.638 -1.6243,-1.0704 -3.3781,-2.0264 -5.3172,-2.3554 -0.95691,-0.15068 -1.9228,-0.35855 -2.8918,-0.37313 -0.11901,0.004 -0.23081,-0.004 -0.34981,0 z m 5.0606,6.32 5.0839,7.6492 0.51306,-0.32649 -5.597,-7.3227 z m -2.9851,1.1194 4.0112,6.5298 0.51306,-0.32649 -4.5242,-6.2033 z" />
    </g>
    <g
       transform="translate(-20,-40)"
       id="g1703">
      <path
         d="m 368.56,423.81 c -13.446,0.45632 -26.909,0.86431 -40.301,2.23 -7.5008,0.80759 -14.983,1.8595 -22.348,3.5131 -8.1517,1.7146 -16.224,3.8188 -24.18,6.286 -3.4014,1.2262 -7.277,2.0717 -9.6553,5.033 -2.6358,3.1298 -3.6452,7.1889 -5.2444,10.871 -3.5742,9.26 -6.4829,15.645 -7.856,25.524 -0.32828,0.60831 3.7303,2.6927 3.7474,4.0617 0.0172,1.3821 -4.7273,2.0132 -4.8124,2.6203 -1.1452,8.1699 -2.0465,16.373 -3.1982,24.542 -2.6874,20.288 -5.2057,40.599 -8.1326,60.855 -1.2581,8.5744 -2.1117,18.377 -3.3779,26.944 -0.13808,0.93416 4.3229,0.72903 8.3933,2.5028 1.5716,0.68488 -4.3318,-1.4396 -2.2228,2.3401 -1.8315,1.6475 -6.954,0.26299 -7.0425,0.7275 -0.64278,3.3722 -2.3752,5.4908 -3.0509,8.8562 -1.5563,7.2533 -3.0421,14.558 -5.5399,21.559 -0.99386,2.51 -2.1068,5.0792 -3.9796,7.063 -1.0915,0.9712 -2.5805,1.14 -3.9805,1.0342 -3.5931,-0.17468 -7.1606,-0.73296 -10.713,-1.2833 -7.0875,-1.1585 -14.028,-3.0279 -21.037,-4.5605 -1.3542,-0.28412 -2.714,0.58689 -3.0938,1.9062 -0.65318,1.9739 0.43817,3.896 0.76848,5.819 1.38,5.4935 2.9791,10.973 5.4503,16.087 2.3303,3.3251 6.4645,4.7743 10.368,5.091 7.9861,1.3278 16.056,2.0392 24.089,3.011 14.125,1.5636 28.291,2.7815 42.484,3.5276 10.544,0.54758 21.096,0.94846 31.642,1.4598 21.504,0.94983 43.014,1.7942 64.53,2.4135 14.404,0.36459 28.822,0.44379 43.22,-0.17073 4.5467,-0.20903 9.1077,-0.56458 13.59,-1.3568 4.6201,-1.3615 8.295,-4.7773 11.27,-8.4364 4.8921,-5.959 8.663,-17.931 10.882,-25.228 0.54382,-1.8349 -4.1872,-2.1947 -5.1502,-2.8392 -2.7539,-1.8431 6.2134,-1.7168 6.3978,-2.3974 2.5385,-9.3697 4.6175,-16.515 6.7126,-25.995 0.21036,-0.9519 -3.6672,-4.5436 -2.7637,-4.9096 1.9223,-0.7789 3.5734,0.40603 4.1562,-2.247 3.0576,-14.182 7.1243,-32.029 9.3997,-46.362 1.2854,-8.1238 2.3035,-16.295 2.9226,-24.498 -2.504,-2.2536 -2.8946,-0.68825 -6.1205,-1.4375 2.2495,-4.9664 -6.9818,-3.0666 -6.8614,-4.8168 0.0842,-1.2227 7.3413,-2.1331 7.8569,-2.2636 1.072,-0.29024 7.1546,-1.3167 7.2202,-2.537 1.5733,-8.1957 4.1956,-16.146 6.1583,-24.252 1.0999,-4.7546 1.6907,-9.6061 2.0487,-14.468 0.47884,-4.2497 0.92318,-8.6061 2.729,-12.537 1.4219,-1.9789 4.1994,-2.3216 6.375,-1.5625 5.0938,1.25 10.188,2.5 15.281,3.75 2.446,-0.10885 4.106,-2.3762 4.7812,-4.5312 2.0352,-7.2484 2.2476,-15.192 -0.46862,-22.296 -1.3281,-3.9458 -4.5192,-7.1489 -8.4064,-8.6098 -4.2183,-1.6591 -8.8239,-1.6306 -13.243,-2.3637 -13.07,-1.7628 -26.175,-3.3036 -39.324,-4.3268 -14.931,-1.0692 -29.864,-2.177 -44.828,-2.6679 -11.05,-0.45975 -22.11,-0.69181 -33.169,-0.71557 -0.7907,0.0143 -1.5814,0.0285 -2.3721,0.0427 v 4e-5 z m 81.375,98.844 c 0.0239,0.33178 -0.16885,-0.33257 0,0 z"
         style="fill:#000000;stroke:#000000;stroke-linejoin:round"
         id="path1587" />
      <path
         d="m 483.94,435.22 -26.44,22.84 48.562,8.2188 c 2.9962,-5.2928 4.1568,-15.607 1.0312,-22.906 l -11.625,-1.6562 9.9375,-1.3125 c -2.0494,-2.8864 -5.0767,-4.8911 -9.3438,-5.1875 h -12.125 z"
         style="fill:#ac9d93;stroke:#000000;stroke-linejoin:round"
         id="path1589" />
      <path
         d="m 369.72,426.22 c -17.893,0.75981 -35.857,1.3993 -53.552,4.3611 -10.684,1.6825 -21.258,4.013 -31.738,6.6755 -2.8568,0.87197 -5.848,1.4374 -8.5162,2.8188 -3.2136,2.0624 -4.655,5.8162 -5.8275,9.2772 -1.724,5.0859 -2.7835,10.365 -4.3038,15.512 -1.1356,4.2956 -2.2712,8.5912 -3.4069,12.887 1.8134,2.5061 6.1912,2.8527 9.1562,3.7188 -0.96549,2.1129 -4.4566,1.4765 -6.5938,1.6562 0.0659,1.1741 2.6921,2.6022 3.5752,2.9802 -3.4944,1.0548 -4.9994,-0.14545 -7.0752,-0.35517 -1.0979,0.19043 -0.94154,1.5667 -1,2.4062 -1.3951,11.146 -2.6749,22.305 -3.8592,33.475 -0.83375,8.1288 -1.9148,16.242 -3.6494,24.232 -1.7149,8.7934 -3.7421,17.573 -4.3039,26.538 0.32216,2.7422 3.4908,1.9126 4.9375,3.6609 -0.8578,2.1318 -3.4378,0.88149 -5.0625,2.1875 -0.49446,1.4512 -0.38458,3.0316 -0.57891,4.5413 -0.29687,4.253 -0.83057,8.4836 -1.3898,12.709 4.5566,0.85699 9.0421,2.0469 13.5,3.3125 -0.96113,2.179 -4.6511,1.6106 -6.9688,1.9062 1.0217,0.86491 0.20793,1.647 2.9879,4.0524 -2.2208,0.52844 -8.6807,-0.8359 -10.925,-0.48988 -1.0256,0.36186 -0.61827,1.6995 -1.0448,2.4897 -1.2561,12.357 -10.364,15.614 0.95104,18.26 -1.9272,0.83338 -4.1707,0.45393 -6,1.5312 -0.43724,1.0902 -0.55914,2.278 -0.98987,3.3724 -1.354,4.9558 -2.6312,10.218 -6.1588,14.143 -4.7535,5.6964 -11.104,10.34 -18.438,11.966 -0.78456,0.35708 -2.4835,0.16404 -2.726,0.76898 0.89271,0.33827 1.8983,-0.007 2.8286,0.22241 69.547,4.4363 139.09,8.8726 208.64,13.309 5.3761,-0.15899 10.254,-3.391 13.417,-7.5972 5.1109,-6.1089 8.1174,-13.662 10.177,-21.278 0.22999,-0.87794 0.89981,-2.0918 -0.0763,-2.744 -1.3145,-0.91817 -3.0308,-0.64828 -4.516,-1.0858 -1.7625,0.14717 -4.3601,-1.2685 -4.3828,-1.285 1.2016,-0.1673 3.0081,-1.4883 4.1314,-1.9476 -2.0902,-1.14 -3.3186,-0.3507 -4.5938,-2.0625 3.1727,-0.38652 6.3495,0.23401 9.5256,0.23789 0.98658,0.3177 2.1783,-0.0575 1.9898,-1.3047 1.2946,-8.6604 3.6827,-17.1 5.8909,-25.558 -1.6351,-3.0378 -5.6451,-4.7224 -8.5625,-6.6562 3.6267,-0.53784 7.2328,0.12255 9.5938,0.90625 2.9346,-13.816 6.2701,-27.549 8.7981,-41.449 1.7539,-9.23 3.5324,-18.456 5.1706,-27.707 -3.6206,-0.79056 -7.3809,-0.32402 -10.969,-1.375 -0.62723,-0.80036 7.4331,-3.0062 5.926,-3.2573 -3.2533,-1.1485 -12.996,-1.9394 -16.395,-2.6177 2.4956,-1.4141 7.2017,-0.99419 10.5,-1.375 -1.4861,-1.3639 -2.1335,-1.729 -4.8438,-3.1562 3.6152,-0.11859 5.0998,0.12582 7.0906,-0.0105 3.9635,-0.30055 6.8166,-1.7662 10.784,-1.3332 2.8769,-15.233 6.0844,-30.4 9.2365,-45.577 0.91915,-4.5212 1.4522,-9.111 1.7431,-13.713 0.34568,-4.3303 0.46971,-8.7223 1.3147,-12.98 0.60968,-2.5669 1.7262,-5.0454 3.4776,-7.079 1.3319,-1.4663 2.9521,-2.761 4.9468,-3.1499 -0.87476,-0.18093 -1.8321,-0.16384 -2.7374,-0.32957 -6.1749,-0.81338 -12.311,-1.899 -18.502,-2.5964 -8.3981,-0.93499 -16.805,-1.8024 -25.216,-2.6182 -15.907,-1.5085 -31.859,-2.5379 -47.828,-3.091 -8.3931,-0.28823 -16.793,-0.35121 -25.19,-0.34621 -0.79016,0.004 -1.5803,0.008 -2.3705,0.0127 z"
         style="fill:#f3f0ed;stroke:#000000;stroke-linejoin:round"
         id="path1591" />
      <path
         d="m 241.71,618.9 c 63.165,-0.66832 133.79,3.997 207.59,0.50507 m -199.59,-40.51 c 63.165,-0.66832 133.79,3.997 207.59,0.50507 m -199.59,-40.51 c 63.827,-5.3068 134.47,-0.79216 207.59,0.50507 m -201.59,-40.51 c 63.827,-5.3068 135.99,-4.3277 209.1,-3.0305 m -203.1,-36.97 c 68.855,-13.687 138.92,-9.2153 209.1,-3.0305 m -193.54,-18.69 c -12.627,24.244 -32.498,179.11 -35.355,188.39 -8.0812,26.264 -26.264,37.376 -26.264,37.376 m 222.63,-230.82 c -12.627,24.244 -36.539,183.65 -39.396,192.94 -8.0812,26.264 -23.234,37.881 -23.234,37.881 m 23.135,-234.36 c -12.627,24.244 -37.044,187.19 -39.901,196.47 -8.0812,26.264 -23.234,37.881 -23.234,37.881 m 24.15,-235.36 c -12.627,24.244 -38.054,188.2 -40.911,197.48 -8.0812,26.264 -23.234,37.881 -23.234,37.881 m -75.939,-4.0508 c 63.165,-0.66832 133.79,3.997 207.59,0.50507 m -107.5,-230.3 c -12.627,24.244 -38.054,186.68 -40.911,195.97 -8.0812,26.264 -23.234,37.881 -23.234,37.881"
         style="opacity:0.3;fill:none;stroke:#000000;stroke-width:0.40000001;stroke-linejoin:round;stroke-dasharray:9.6, 9.6"
         id="path1599" />
      <path
         d="m 193.94,637.56 c -0.81151,0.86018 -0.24712,2.1871 -0.3125,3.25 0.23331,1.2634 -0.1361,2.989 1.2188,3.7188 1.1304,0.68394 2.4879,0.72941 3.75,1 0.81744,-0.46668 1.8486,1.1343 0.65625,1.2812 -1.4819,0.23914 -3.0295,0.41204 -4.4062,1.0625 -0.91655,1.1897 0.31626,2.5446 0.20405,3.8383 -0.0183,1.1608 1.4578,1.5715 1.4975,2.6565 0.0471,1.008 0.0537,2.1302 0.86515,2.8575 1.8304,2.48 5.0614,3.1583 7.9601,3.4013 11.512,1.3734 23.041,2.613 34.575,3.785 12.983,1.2069 25.992,2.0959 39.001,2.9655 21.414,1.4502 42.869,2.1426 64.315,2.889 25.865,0.68559 51.74,0.85441 77.613,0.73189 -3.6047,-2.4393 -5.7773,-6.441 -7.0167,-10.52 -0.68951,-2.1133 -1.1515,-4.2895 -1.6708,-6.4484 -1.837,-0.93543 -3.9667,-0.41976 -5.9271,-0.80903 -8.6506,-0.72261 -17.368,-0.7655 -26.01,0.0903 -8.5865,0.60642 -17.197,0.58332 -25.8,0.61772 -4.1393,-0.003 -8.2792,0.23766 -12.414,-0.0598 -3.8242,-0.0482 -7.6194,-0.6075 -11.418,-1.0091 -5.9018,-0.69514 -11.821,-1.2428 -17.761,-1.478 -8.6109,-0.47843 -17.22,-0.99235 -25.824,-1.5791 -9.7002,-0.50839 -19.42,-0.67375 -29.106,-1.4322 -8.3396,-0.65073 -16.579,-2.1338 -24.86,-3.2637 -7.626,-1.1338 -15.3,-1.9875 -22.854,-3.557 -5.2463,-1.05 -10.481,-2.2461 -15.568,-3.9083 -0.209,-0.1272 -0.47625,-0.14379 -0.70858,-0.0806 z"
         style="fill:#ac9d93;stroke:#000000;stroke-linejoin:round"
         id="path1601" />
      <path
         d="m 400.05,622.97 c -1.3422,0.0116 -2.6776,0.42736 -3.8246,1.1194 -0.88078,0.40802 -1.5159,1.1384 -2.0989,1.889 -0.43599,0.39141 -0.42859,1.1219 -0.1166,1.5858 0.43234,0.40797 1.1017,0.41282 1.6558,0.27985 0.51512,0.0243 1.0693,-0.19746 1.6325,0.0233 0.80956,0.23758 1.577,0.71631 1.9356,1.5158 0.33995,0.58239 0.52034,1.3472 0.0933,1.9356 -0.28672,0.46125 -0.71075,0.97309 -1.0961,1.2593 -1.5273,1.2101 -3.4351,1.7362 -5.2239,2.4254 -0.54867,0.2015 -1.8158,-0.0812 -1.7724,0.76959 0.43608,0.77545 1.3674,0.0715 2.0289,0.0933 1.2168,-0.18217 2.4679,-0.34083 3.6147,-0.81623 0.44077,-0.16237 0.8691,-0.35378 1.2826,-0.58302 l 1.5625,2.472 0.51306,-0.32649 -1.9823,-2.1922 c 0.77043,-0.43953 1.4714,-0.99096 2.0289,-1.6791 l 2.2621,4.1744 0.51305,-0.27985 -2.6819,-4.0345 c 0.0715,-0.0935 0.14374,-0.18182 0.20989,-0.27985 0.59816,-0.80454 0.93497,-1.8418 0.86287,-2.8451 -0.11027,-1.2112 -0.9791,-2.1666 -1.9123,-2.8685 -0.61542,-0.43407 -1.355,-0.63212 -2.0989,-0.6763 -0.45859,-0.11866 0.43424,-0.35473 0.58302,-0.46642 0.63169,-0.34801 1.3557,-0.38107 2.0522,-0.46642 0.90798,-0.0828 1.7787,0.24653 2.6586,0.41978 2.1711,0.53305 4.1187,1.6841 6.1101,2.6586 3.0057,1.65 5.5072,4.031 8.0923,6.25 0.52088,0.27635 0.97169,1.4938 1.6325,1.0028 0.0777,-0.70844 -0.73442,-1.1079 -1.1194,-1.6091 -1.1498,-1.6388 -2.4767,-3.1728 -4.0812,-4.3843 -1.5559,-1.2476 -3.134,-2.4809 -4.7574,-3.638 -1.6243,-1.0704 -3.3781,-2.0264 -5.3172,-2.3554 -0.95691,-0.15068 -1.9228,-0.35855 -2.8918,-0.37313 -0.11901,0.004 -0.23081,-0.004 -0.34981,0 z m 5.0606,6.32 5.0839,7.6492 0.51306,-0.32649 -5.597,-7.3227 z m -2.9851,1.1194 4.0112,6.5298 0.51306,-0.32649 -4.5242,-6.2033 z"
         style="color:#000000;text-indent:0;text-transform:none;fill:#483e37"
         id="path1685" />
      <path
         d="m 380.031,632.4271 c -1.3422,0.0116 -2.6776,0.42736 -3.8246,1.1194 -0.88078,0.40802 -1.5159,1.1384 -2.0989,1.889 -0.43599,0.39141 -0.42859,1.1219 -0.1166,1.5858 0.43234,0.40797 1.1017,0.41282 1.6558,0.27985 0.51512,0.0243 1.0693,-0.19746 1.6325,0.0233 0.80956,0.23758 1.577,0.71631 1.9356,1.5158 0.33995,0.58239 0.52034,1.3472 0.0933,1.9356 -0.28672,0.46125 -0.71075,0.97309 -1.0961,1.2593 -1.5273,1.2101 -3.4351,1.7362 -5.2239,2.4254 -0.54867,0.2015 -1.8158,-0.0812 -1.7724,0.76959 0.43608,0.77545 1.3674,0.0715 2.0289,0.0933 1.2168,-0.18217 2.4679,-0.34083 3.6147,-0.81623 0.44077,-0.16237 0.8691,-0.35378 1.2826,-0.58302 l 1.5625,2.472 0.51306,-0.32649 -1.9823,-2.1922 c 0.77043,-0.43953 1.4714,-0.99096 2.0289,-1.6791 l 2.2621,4.1744 0.51305,-0.27985 -2.6819,-4.0345 c 0.0715,-0.0935 0.14374,-0.18182 0.20989,-0.27985 0.59816,-0.80454 0.93497,-1.8418 0.86287,-2.8451 -0.11027,-1.2112 -0.9791,-2.1666 -1.9123,-2.8685 -0.61542,-0.43407 -1.355,-0.63212 -2.0989,-0.6763 -0.45859,-0.11866 0.43424,-0.35473 0.58302,-0.46642 0.63169,-0.34801 1.3557,-0.38107 2.0522,-0.46642 0.90798,-0.0828 1.7787,0.24653 2.6586,0.41978 2.1711,0.53305 4.1187,1.6841 6.1101,2.6586 3.0057,1.65 5.5072,4.031 8.0923,6.25 0.52088,0.27635 0.97169,1.4938 1.6325,1.0028 0.0777,-0.70844 -0.73442,-1.1079 -1.1194,-1.6091 -1.1498,-1.6388 -2.4767,-3.1728 -4.0812,-4.3843 -1.5559,-1.2476 -3.134,-2.4809 -4.7574,-3.638 -1.6243,-1.0704 -3.3781,-2.0264 -5.3172,-2.3554 -0.95691,-0.15068 -1.9228,-0.35855 -2.8918,-0.37313 -0.11901,0.004 -0.23081,-0.004 -0.34981,0 z m 5.0606,6.32 5.0839,7.6492 0.51306,-0.32649 -5.597,-7.3227 z m -2.9851,1.1194 4.0112,6.5298 0.51306,-0.32649 -4.5242,-6.2033 z"
         style="color:#000000;text-indent:0;text-transform:none;fill:#483e37"
         id="use1687" />
      <path
         id="use1689"
         style="color:#000000;text-indent:0;text-transform:none;fill:#483e37"
         d="m 273.391,616.6251 c -1.3422,0.0116 -2.6776,0.42736 -3.8246,1.1194 -0.88078,0.40802 -1.5159,1.1384 -2.0989,1.889 -0.43599,0.39141 -0.42859,1.1219 -0.1166,1.5858 0.43234,0.40797 1.1017,0.41282 1.6558,0.27985 0.51512,0.0243 1.0693,-0.19746 1.6325,0.0233 0.80956,0.23758 1.577,0.71631 1.9356,1.5158 0.33995,0.58239 0.52034,1.3472 0.0933,1.9356 -0.28672,0.46125 -0.71075,0.97309 -1.0961,1.2593 -1.5273,1.2101 -3.4351,1.7362 -5.2239,2.4254 -0.54867,0.2015 -1.8158,-0.0812 -1.7724,0.76959 0.43608,0.77545 1.3674,0.0715 2.0289,0.0933 1.2168,-0.18217 2.4679,-0.34083 3.6147,-0.81623 0.44077,-0.16237 0.8691,-0.35378 1.2826,-0.58302 l 1.5625,2.472 0.51306,-0.32649 -1.9823,-2.1922 c 0.77043,-0.43953 1.4714,-0.99096 2.0289,-1.6791 l 2.2621,4.1744 0.51305,-0.27985 -2.6819,-4.0345 c 0.0715,-0.0935 0.14374,-0.18182 0.20989,-0.27985 0.59816,-0.80454 0.93497,-1.8418 0.86287,-2.8451 -0.11027,-1.2112 -0.9791,-2.1666 -1.9123,-2.8685 -0.61542,-0.43407 -1.355,-0.63212 -2.0989,-0.6763 -0.45859,-0.11866 0.43424,-0.35473 0.58302,-0.46642 0.63169,-0.34801 1.3557,-0.38107 2.0522,-0.46642 0.90798,-0.0828 1.7787,0.24653 2.6586,0.41978 2.1711,0.53305 4.1187,1.6841 6.1101,2.6586 3.0057,1.65 5.5072,4.031 8.0923,6.25 0.52088,0.27635 0.97169,1.4938 1.6325,1.0028 0.0777,-0.70844 -0.73442,-1.1079 -1.1194,-1.6091 -1.1498,-1.6388 -2.4767,-3.1728 -4.0812,-4.3843 -1.5559,-1.2476 -3.134,-2.4809 -4.7574,-3.638 -1.6243,-1.0704 -3.3781,-2.0264 -5.3172,-2.3554 -0.95691,-0.15068 -1.9228,-0.35855 -2.8918,-0.37313 -0.11901,0.004 -0.23081,-0.004 -0.34981,0 z m 5.0606,6.32 5.0839,7.6492 0.51306,-0.32649 -5.597,-7.3227 z m -2.9851,1.1194 4.0112,6.5298 0.51306,-0.32649 -4.5242,-6.2033 z" />
      <path
         d="m 287.028,629.6051 c -1.3422,0.0116 -2.6776,0.42736 -3.8246,1.1194 -0.88078,0.40802 -1.5159,1.1384 -2.0989,1.889 -0.43599,0.39141 -0.42859,1.1219 -0.1166,1.5858 0.43234,0.40797 1.1017,0.41282 1.6558,0.27985 0.51512,0.0243 1.0693,-0.19746 1.6325,0.0233 0.80956,0.23758 1.577,0.71631 1.9356,1.5158 0.33995,0.58239 0.52034,1.3472 0.0933,1.9356 -0.28672,0.46125 -0.71075,0.97309 -1.0961,1.2593 -1.5273,1.2101 -3.4351,1.7362 -5.2239,2.4254 -0.54867,0.2015 -1.8158,-0.0812 -1.7724,0.76959 0.43608,0.77545 1.3674,0.0715 2.0289,0.0933 1.2168,-0.18217 2.4679,-0.34083 3.6147,-0.81623 0.44077,-0.16237 0.8691,-0.35378 1.2826,-0.58302 l 1.5625,2.472 0.51306,-0.32649 -1.9823,-2.1922 c 0.77043,-0.43953 1.4714,-0.99096 2.0289,-1.6791 l 2.2621,4.1744 0.51305,-0.27985 -2.6819,-4.0345 c 0.0715,-0.0935 0.14374,-0.18182 0.20989,-0.27985 0.59816,-0.80454 0.93497,-1.8418 0.86287,-2.8451 -0.11027,-1.2112 -0.9791,-2.1666 -1.9123,-2.8685 -0.61542,-0.43407 -1.355,-0.63212 -2.0989,-0.6763 -0.45859,-0.11866 0.43424,-0.35473 0.58302,-0.46642 0.63169,-0.34801 1.3557,-0.38107 2.0522,-0.46642 0.90798,-0.0828 1.7787,0.24653 2.6586,0.41978 2.1711,0.53305 4.1187,1.6841 6.1101,2.6586 3.0057,1.65 5.5072,4.031 8.0923,6.25 0.52088,0.27635 0.97169,1.4938 1.6325,1.0028 0.0777,-0.70844 -0.73442,-1.1079 -1.1194,-1.6091 -1.1498,-1.6388 -2.4767,-3.1728 -4.0812,-4.3843 -1.5559,-1.2476 -3.134,-2.4809 -4.7574,-3.638 -1.6243,-1.0704 -3.3781,-2.0264 -5.3172,-2.3554 -0.95691,-0.15068 -1.9228,-0.35855 -2.8918,-0.37313 -0.11901,0.004 -0.23081,-0.004 -0.34981,0 z m 5.0606,6.32 5.0839,7.6492 0.51306,-0.32649 -5.597,-7.3227 z m -2.9851,1.1194 4.0112,6.5298 0.51306,-0.32649 -4.5242,-6.2033 z"
         style="color:#000000;text-indent:0;text-transform:none;fill:#483e37"
         id="use1691" />
    </g>
    <g
       id="g1821"
       transform="translate(-40,-80)">
      <path
         id="path1705"
         style="fill:#000000;stroke:#000000;stroke-linejoin:round"
         d="m 368.56,423.81 c -13.446,0.45632 -26.909,0.86431 -40.301,2.23 -7.5008,0.80759 -14.983,1.8595 -22.348,3.5131 -8.1517,1.7146 -16.224,3.8188 -24.18,6.286 -3.4014,1.2262 -7.277,2.0717 -9.6553,5.033 -2.6358,3.1298 -3.6452,7.1889 -5.2444,10.871 -3.5742,9.26 -6.4829,15.645 -7.856,25.524 -0.32828,0.60831 3.7303,2.6927 3.7474,4.0617 0.0172,1.3821 -4.7273,2.0132 -4.8124,2.6203 -1.1452,8.1699 -2.0465,16.373 -3.1982,24.542 -2.6874,20.288 -5.2057,40.599 -8.1326,60.855 -1.2581,8.5744 -2.1117,18.377 -3.3779,26.944 -0.13808,0.93416 4.3229,0.72903 8.3933,2.5028 1.5716,0.68488 -4.3318,-1.4396 -2.2228,2.3401 -1.8315,1.6475 -6.954,0.26299 -7.0425,0.7275 -0.64278,3.3722 -2.3752,5.4908 -3.0509,8.8562 -1.5563,7.2533 -3.0421,14.558 -5.5399,21.559 -0.99386,2.51 -2.1068,5.0792 -3.9796,7.063 -1.0915,0.9712 -2.5805,1.14 -3.9805,1.0342 -3.5931,-0.17468 -7.1606,-0.73296 -10.713,-1.2833 -7.0875,-1.1585 -14.028,-3.0279 -21.037,-4.5605 -1.3542,-0.28412 -2.714,0.58689 -3.0938,1.9062 -0.65318,1.9739 0.43817,3.896 0.76848,5.819 1.38,5.4935 2.9791,10.973 5.4503,16.087 2.3303,3.3251 6.4645,4.7743 10.368,5.091 7.9861,1.3278 16.056,2.0392 24.089,3.011 14.125,1.5636 28.291,2.7815 42.484,3.5276 10.544,0.54758 21.096,0.94846 31.642,1.4598 21.504,0.94983 43.014,1.7942 64.53,2.4135 14.404,0.36459 28.822,0.44379 43.22,-0.17073 4.5467,-0.20903 9.1077,-0.56458 13.59,-1.3568 4.6201,-1.3615 8.295,-4.7773 11.27,-8.4364 4.8921,-5.959 8.663,-17.931 10.882,-25.228 0.54382,-1.8349 -4.1872,-2.1947 -5.1502,-2.8392 -2.7539,-1.8431 6.2134,-1.7168 6.3978,-2.3974 2.5385,-9.3697 4.6175,-16.515 6.7126,-25.995 0.21036,-0.9519 -3.6672,-4.5436 -2.7637,-4.9096 1.9223,-0.7789 3.5734,0.40603 4.1562,-2.247 3.0576,-14.182 7.1243,-32.029 9.3997,-46.362 1.2854,-8.1238 2.3035,-16.295 2.9226,-24.498 -2.504,-2.2536 -2.8946,-0.68825 -6.1205,-1.4375 2.2495,-4.9664 -6.9818,-3.0666 -6.8614,-4.8168 0.0842,-1.2227 7.3413,-2.1331 7.8569,-2.2636 1.072,-0.29024 7.1546,-1.3167 7.2202,-2.537 1.5733,-8.1957 4.1956,-16.146 6.1583,-24.252 1.0999,-4.7546 1.6907,-9.6061 2.0487,-14.468 0.47884,-4.2497 0.92318,-8.6061 2.729,-12.537 1.4219,-1.9789 4.1994,-2.3216 6.375,-1.5625 5.0938,1.25 10.188,2.5 15.281,3.75 2.446,-0.10885 4.106,-2.3762 4.7812,-4.5312 2.0352,-7.2484 2.2476,-15.192 -0.46862,-22.296 -1.3281,-3.9458 -4.5192,-7.1489 -8.4064,-8.6098 -4.2183,-1.6591 -8.8239,-1.6306 -13.243,-2.3637 -13.07,-1.7628 -26.175,-3.3036 -39.324,-4.3268 -14.931,-1.0692 -29.864,-2.177 -44.828,-2.6679 -11.05,-0.45975 -22.11,-0.69181 -33.169,-0.71557 -0.7907,0.0143 -1.5814,0.0285 -2.3721,0.0427 v 4e-5 z m 81.375,98.844 c 0.0239,0.33178 -0.16885,-0.33257 0,0 z" />
      <path
         id="path1707"
         style="fill:#ac9d93;stroke:#000000;stroke-linejoin:round"
         d="m 483.94,435.22 -26.44,22.84 48.562,8.2188 c 2.9962,-5.2928 4.1568,-15.607 1.0312,-22.906 l -11.625,-1.6562 9.9375,-1.3125 c -2.0494,-2.8864 -5.0767,-4.8911 -9.3438,-5.1875 h -12.125 z" />
      <path
         id="path1709"
         style="fill:#f3f0ed;stroke:#000000;stroke-linejoin:round"
         d="m 369.72,426.22 c -17.893,0.75981 -35.857,1.3993 -53.552,4.3611 -10.684,1.6825 -21.258,4.013 -31.738,6.6755 -2.8568,0.87197 -5.848,1.4374 -8.5162,2.8188 -3.2136,2.0624 -4.655,5.8162 -5.8275,9.2772 -1.724,5.0859 -2.7835,10.365 -4.3038,15.512 -1.1356,4.2956 -2.2712,8.5912 -3.4069,12.887 1.8134,2.5061 6.1912,2.8527 9.1562,3.7188 -0.96549,2.1129 -4.4566,1.4765 -6.5938,1.6562 0.0659,1.1741 2.6921,2.6022 3.5752,2.9802 -3.4944,1.0548 -4.9994,-0.14545 -7.0752,-0.35517 -1.0979,0.19043 -0.94154,1.5667 -1,2.4062 -1.3951,11.146 -2.6749,22.305 -3.8592,33.475 -0.83375,8.1288 -1.9148,16.242 -3.6494,24.232 -1.7149,8.7934 -3.7421,17.573 -4.3039,26.538 0.32216,2.7422 3.4908,1.9126 4.9375,3.6609 -0.8578,2.1318 -3.4378,0.88149 -5.0625,2.1875 -0.49446,1.4512 -0.38458,3.0316 -0.57891,4.5413 -0.29687,4.253 -0.83057,8.4836 -1.3898,12.709 4.5566,0.85699 9.0421,2.0469 13.5,3.3125 -0.96113,2.179 -4.6511,1.6106 -6.9688,1.9062 1.0217,0.86491 0.20793,1.647 2.9879,4.0524 -2.2208,0.52844 -8.6807,-0.8359 -10.925,-0.48988 -1.0256,0.36186 -0.61827,1.6995 -1.0448,2.4897 -1.2561,12.357 -10.364,15.614 0.95104,18.26 -1.9272,0.83338 -4.1707,0.45393 -6,1.5312 -0.43724,1.0902 -0.55914,2.278 -0.98987,3.3724 -1.354,4.9558 -2.6312,10.218 -6.1588,14.143 -4.7535,5.6964 -11.104,10.34 -18.438,11.966 -0.78456,0.35708 -2.4835,0.16404 -2.726,0.76898 0.89271,0.33827 1.8983,-0.007 2.8286,0.22241 69.547,4.4363 139.09,8.8726 208.64,13.309 5.3761,-0.15899 10.254,-3.391 13.417,-7.5972 5.1109,-6.1089 8.1174,-13.662 10.177,-21.278 0.22999,-0.87794 0.89981,-2.0918 -0.0763,-2.744 -1.3145,-0.91817 -3.0308,-0.64828 -4.516,-1.0858 -1.7625,0.14717 -4.3601,-1.2685 -4.3828,-1.285 1.2016,-0.1673 3.0081,-1.4883 4.1314,-1.9476 -2.0902,-1.14 -3.3186,-0.3507 -4.5938,-2.0625 3.1727,-0.38652 6.3495,0.23401 9.5256,0.23789 0.98658,0.3177 2.1783,-0.0575 1.9898,-1.3047 1.2946,-8.6604 3.6827,-17.1 5.8909,-25.558 -1.6351,-3.0378 -5.6451,-4.7224 -8.5625,-6.6562 3.6267,-0.53784 7.2328,0.12255 9.5938,0.90625 2.9346,-13.816 6.2701,-27.549 8.7981,-41.449 1.7539,-9.23 3.5324,-18.456 5.1706,-27.707 -3.6206,-0.79056 -7.3809,-0.32402 -10.969,-1.375 -0.62723,-0.80036 7.4331,-3.0062 5.926,-3.2573 -3.2533,-1.1485 -12.996,-1.9394 -16.395,-2.6177 2.4956,-1.4141 7.2017,-0.99419 10.5,-1.375 -1.4861,-1.3639 -2.1335,-1.729 -4.8438,-3.1562 3.6152,-0.11859 5.0998,0.12582 7.0906,-0.0105 3.9635,-0.30055 6.8166,-1.7662 10.784,-1.3332 2.8769,-15.233 6.0844,-30.4 9.2365,-45.577 0.91915,-4.5212 1.4522,-9.111 1.7431,-13.713 0.34568,-4.3303 0.46971,-8.7223 1.3147,-12.98 0.60968,-2.5669 1.7262,-5.0454 3.4776,-7.079 1.3319,-1.4663 2.9521,-2.761 4.9468,-3.1499 -0.87476,-0.18093 -1.8321,-0.16384 -2.7374,-0.32957 -6.1749,-0.81338 -12.311,-1.899 -18.502,-2.5964 -8.3981,-0.93499 -16.805,-1.8024 -25.216,-2.6182 -15.907,-1.5085 -31.859,-2.5379 -47.828,-3.091 -8.3931,-0.28823 -16.793,-0.35121 -25.19,-0.34621 -0.79016,0.004 -1.5803,0.008 -2.3705,0.0127 z" />
      <g
         id="g1715"
         transform="translate(-0.48477,-1.5355)">
        <path
           id="path1711"
           style="color:#000000;text-indent:0;text-transform:none;fill:#000000"
           d="m 389.4,501.71 c -4.5603,0.69826 -8.5532,3.8382 -11.83,7.4811 -1.6215,1.796 -3.2613,4.0064 -5.6059,4.3387 -2.9325,0.15743 -5.4257,-1.9228 -7.9985,-3.248 -3.7117,-1.7755 -7.7915,-1.0912 -11.689,-1.4234 -2.6331,-0.16151 -5.176,-1.0374 -7.7071,-1.8329 -5.194,-1.453 -10.8,-1.9427 -15.908,0.21465 -1.9168,0.9575 -3.576,3.1692 -3.4227,5.7399 0.0317,1.7948 0.63744,3.5488 1.6272,4.9078 -0.85732,1.1111 -2.2649,1.0846 -3.2939,1.873 -7.203,3.6005 -14.697,6.2918 -22.15,9.0602 -5.369,2.3833 -10.123,6.6068 -13.56,12.012 -4.0878,5.6984 -7.826,11.92 -10.007,18.974 -0.90059,4.1228 0.60064,8.7249 3.505,11.221 1.8046,1.7858 4.0683,2.7493 5.9868,4.3165 0.70498,0.99342 0.21037,2.3349 -0.16418,3.359 -0.34657,1.2555 0.0964,2.722 1.0893,3.3681 1.9511,1.8768 4.3836,2.8219 6.6693,3.9732 6.416,2.6607 13.601,3.2678 20.118,0.73914 3.299,-1.5146 6.0729,-4.6938 7.2621,-8.6417 1.3527,-1.4541 3.4822,-0.83826 4.7578,0.43354 1.9979,1.772 3.3399,4.4344 4.3321,7.0446 0.42154,0.94969 -0.31762,1.8241 -0.86971,2.4102 -1.0328,1.0263 -2.4264,1.18 -3.7197,1.2421 -7.3281,1.1391 -14.376,5.423 -19.037,12.242 -0.83643,0.94849 -1.0116,2.5712 -0.30251,3.6826 0.65532,1.287 1.8975,1.8715 3.0729,2.2247 7.6433,3.6118 14.939,8.3389 22.929,10.861 4.418,0.61115 9.0046,-0.5374 13.301,1.179 4.8451,1.5775 9.7758,3.4723 14.872,3.0257 2.837,-0.19894 5.8274,-1.8486 7.1004,-4.9793 1.1214,-3.2728 0.21894,-7.0095 -1.3438,-9.8629 -0.93542,-1.6708 -1.3875,-4.2086 -0.0922,-5.7975 1.4594,-1.9178 3.7961,-1.9925 5.8154,-2.257 9.5317,-1.512 18.75,-4.9289 28.25,-6.643 6.1128,-1.2764 12.157,-3.5042 17.46,-7.3736 4.2759,-2.9838 8.2779,-6.7529 11.09,-11.628 1.5674,-3.0293 2.3948,-6.9198 1.2394,-10.326 -1.139,-3.6006 -3.7419,-6.0979 -6.0889,-8.5961 -1.2013,-1.515 -1.5731,-3.7862 -1.0438,-5.744 0.53007,-3.7181 0.80034,-7.4816 1.2945,-11.203 0.43076,-2.6536 1.6304,-5.028 3.1001,-7.0655 1.3533,-2.0491 2.6776,-4.5725 2.2444,-7.2801 -0.50727,-3.0149 -3.0875,-5.1284 -5.6424,-5.0488 -1.2492,0.0617 -2.4933,0.0136 -3.7387,-0.11404 -9.2726,-0.63465 -18.545,-1.2883 -27.806,-2.1338 -0.33522,-1.4607 0.82031,-2.5796 1.0174,-3.942 0.94565,-2.5998 1.2655,-5.8606 -0.13361,-8.3236 -1.1878,-1.6981 -3.1237,-2.6215 -4.9798,-2.4597 z" />
        <path
           id="path1713"
           style="color:#000000;text-indent:0;text-transform:none;fill:#c8beb7"
           d="m 390.03,507.07 c 0.69797,1.0119 -0.0202,2.4228 -0.86972,2.9264 -2.258,2.7626 -2.9764,7.4538 -1.038,10.693 1.8172,2.528 4.8498,3.2147 7.535,2.9159 10.198,-0.59075 20.45,-1.2596 30.634,-0.027 1.2632,0.37953 1.3512,2.6854 0.24296,3.3761 -2.3364,1.9771 -4.6802,4.3495 -5.581,7.6869 -0.42409,1.8589 -0.76846,3.7452 -1.2062,5.6029 -1.0207,4.7265 -1.9899,9.5333 -2.0457,14.432 0.31586,3.1939 2.3714,5.6072 4.3746,7.5593 1.913,1.8476 4.016,3.9535 4.4865,6.9682 0.23868,3.1212 -1.5365,5.9014 -3.5855,7.6484 -3.371,2.9897 -7.5918,4.028 -11.625,5.0877 -7.2333,2.029 -13.772,6.4008 -20.845,8.9911 -4.1965,1.5267 -8.5823,2.2129 -12.967,2.3107 -3.3927,0.13996 -6.811,-0.0226 -10.179,0.55144 -3.1575,0.65408 -6.3588,2.6891 -7.7574,6.2338 -1.6378,3.8898 -0.92587,8.814 1.483,12.043 0.75575,1.1597 1.7614,2.1166 2.4696,3.2898 0.18835,1.3466 -1.2876,2.2536 -2.2242,1.6237 -3.8605,-0.67032 -7.4356,-2.6197 -11.148,-3.9397 -3.5358,-1.4223 -7.3941,-2.4556 -11.1,-1.3343 -2.5114,0.65492 -5.1634,1.713 -7.7258,0.8004 -4.9523,-2.2018 -9.1579,-6.3896 -14.365,-7.8565 -1.6706,-0.62015 -3.3418,-1.2376 -5.0137,-1.8529 4.5157,-5.314 10.426,-8.725 16.534,-10.703 2.0516,-0.59532 4.3987,-0.92356 5.8717,-2.8873 1.6702,-2.3173 1.2933,-5.9978 -0.3828,-8.1779 -2.7671,-4.0824 -5.8372,-8.1349 -9.8663,-10.543 -2.1932,-1.2303 -5.1165,-1.3766 -7.0086,0.64919 -1.8789,2.2583 -1.0491,5.9745 -2.8847,8.2682 -1.8238,2.3798 -4.6915,3.0376 -7.3028,3.0399 -4.096,0.005 -8.0987,-1.3245 -11.906,-3.0045 -0.60753,-2.0082 0.89378,-3.994 0.26706,-6.0052 -0.51727,-3.3052 -3.0509,-5.7397 -5.7532,-6.437 -2.1677,-0.87623 -4.6816,-1.2752 -6.2689,-3.4221 -1.1749,-2.2321 -0.36013,-5.1662 1.1022,-6.9274 5.8338,-8.9683 13.227,-16.475 21.483,-22.21 4.2158,-3.0316 8.6513,-5.7824 13.473,-7.1987 4.088,-1.299 8.2788,-2.1132 12.356,-3.4532 2.2178,-1.0387 3.7008,-4.2982 2.6527,-6.9663 -0.62081,-1.651 -1.763,-2.8985 -2.8403,-4.1387 -0.12315,-0.81625 0.80451,-0.8403 1.2731,-0.9085 4.7689,-1.0695 9.6829,-0.18547 14.271,1.4965 2.0421,0.65068 4.0218,1.7681 6.1807,1.7066 2.8269,0.0555 5.7756,-0.71438 8.4887,0.57694 2.9403,1.2653 5.6504,3.4705 8.8512,3.7385 3.4671,0.37601 6.7227,-1.6712 9.3838,-4.0916 3.0279,-2.7665 5.6106,-6.4277 9.3099,-7.9999 0.24098,-0.0534 0.54526,-0.34947 0.76483,-0.13137 z" />
      </g>
      <path
         id="path1717"
         style="opacity:0.3;fill:none;stroke:#000000;stroke-width:0.40000001;stroke-linejoin:round;stroke-dasharray:9.6, 9.6"
         d="m 241.71,618.9 c 63.165,-0.66832 133.79,3.997 207.59,0.50507 m -199.59,-40.51 c 63.165,-0.66832 133.79,3.997 207.59,0.50507 m -199.59,-40.51 c 63.827,-5.3068 134.47,-0.79216 207.59,0.50507 m -201.59,-40.51 c 63.827,-5.3068 135.99,-4.3277 209.1,-3.0305 m -203.1,-36.97 c 68.855,-13.687 138.92,-9.2153 209.1,-3.0305 m -193.54,-18.69 c -12.627,24.244 -32.498,179.11 -35.355,188.39 -8.0812,26.264 -26.264,37.376 -26.264,37.376 m 222.63,-230.82 c -12.627,24.244 -36.539,183.65 -39.396,192.94 -8.0812,26.264 -23.234,37.881 -23.234,37.881 m 23.135,-234.36 c -12.627,24.244 -37.044,187.19 -39.901,196.47 -8.0812,26.264 -23.234,37.881 -23.234,37.881 m 24.15,-235.36 c -12.627,24.244 -38.054,188.2 -40.911,197.48 -8.0812,26.264 -23.234,37.881 -23.234,37.881 m -75.939,-4.0508 c 63.165,-0.66832 133.79,3.997 207.59,0.50507 m -107.5,-230.3 c -12.627,24.244 -38.054,186.68 -40.911,195.97 -8.0812,26.264 -23.234,37.881 -23.234,37.881" />
      <path
         id="path1719"
         style="fill:#ac9d93;stroke:#000000;stroke-linejoin:round"
         d="m 193.94,637.56 c -0.81151,0.86018 -0.24712,2.1871 -0.3125,3.25 0.23331,1.2634 -0.1361,2.989 1.2188,3.7188 1.1304,0.68394 2.4879,0.72941 3.75,1 0.81744,-0.46668 1.8486,1.1343 0.65625,1.2812 -1.4819,0.23914 -3.0295,0.41204 -4.4062,1.0625 -0.91655,1.1897 0.31626,2.5446 0.20405,3.8383 -0.0183,1.1608 1.4578,1.5715 1.4975,2.6565 0.0471,1.008 0.0537,2.1302 0.86515,2.8575 1.8304,2.48 5.0614,3.1583 7.9601,3.4013 11.512,1.3734 23.041,2.613 34.575,3.785 12.983,1.2069 25.992,2.0959 39.001,2.9655 21.414,1.4502 42.869,2.1426 64.315,2.889 25.865,0.68559 51.74,0.85441 77.613,0.73189 -3.6047,-2.4393 -5.7773,-6.441 -7.0167,-10.52 -0.68951,-2.1133 -1.1515,-4.2895 -1.6708,-6.4484 -1.837,-0.93543 -3.9667,-0.41976 -5.9271,-0.80903 -8.6506,-0.72261 -17.368,-0.7655 -26.01,0.0903 -8.5865,0.60642 -17.197,0.58332 -25.8,0.61772 -4.1393,-0.003 -8.2792,0.23766 -12.414,-0.0598 -3.8242,-0.0482 -7.6194,-0.6075 -11.418,-1.0091 -5.9018,-0.69514 -11.821,-1.2428 -17.761,-1.478 -8.6109,-0.47843 -17.22,-0.99235 -25.824,-1.5791 -9.7002,-0.50839 -19.42,-0.67375 -29.106,-1.4322 -8.3396,-0.65073 -16.579,-2.1338 -24.86,-3.2637 -7.626,-1.1338 -15.3,-1.9875 -22.854,-3.557 -5.2463,-1.05 -10.481,-2.2461 -15.568,-3.9083 -0.209,-0.1272 -0.47625,-0.14379 -0.70858,-0.0806 z" />
      <path
         id="path1721"
         style="fill:#483e37"
         d="m 127.54492,11.783203 a 0.96819748,0.96819748 0 0 0 -0.8789,0.601563 l -4.63672,11.351562 c -5.43325,1.229428 -10.70183,4.200665 -15.26563,8.322266 l -2.7207,-1.69336 a 0.96819748,0.96819748 0 0 0 -1.44141,1.09375 l 1.07422,3.69336 c -4.262889,4.69752 -7.632281,10.40256 -9.521483,16.552734 l -10.222656,3.56836 a 0.96819748,0.96819748 0 0 0 0.148437,1.867187 l 8.654297,1.537109 c -0.60155,5.782195 0.379375,10.917622 2.716797,14.935547 l -2.757813,4.164063 a 0.96819748,0.96819748 0 0 0 1.335938,1.345703 l 3.691406,-2.416016 c 0.546269,0.605139 1.104213,1.200296 1.761719,1.732422 -0.147995,-0.120246 -0.13931,-0.106193 0.0332,0.0332 a 0.96819748,0.96819748 0 0 0 0.002,0 c 0.294212,0.236721 0.608152,0.463166 0.894532,0.664063 a 0.96819748,0.96819748 0 0 0 0.002,0 c 0.6144,0.429787 1.2462,0.814498 1.92578,1.162109 0.31992,0.164133 0.65489,0.336211 1.02735,0.496094 a 0.96819748,0.96819748 0 0 0 0.0156,0.0059 c 0.0365,0.01502 0.0202,-0.0048 0.0527,0.0059 1.39333,0.59182 2.89305,1.021032 4.49218,1.246093 a 0.96819748,0.96819748 0 0 0 0.002,0 c 0.27911,0.03869 0.29016,0.03589 0.0312,0 0.54845,0.07626 1.13732,0.09246 1.71679,0.125 l -0.11523,10.375 a 0.96819748,0.96819748 0 0 0 1.86523,0.375 l 4.63672,-11.351562 c 5.43312,-1.22958 10.70134,-4.200851 15.26563,-8.322266 l 2.7207,1.69336 a 0.96819748,0.96819748 0 0 0 1.44336,-1.085938 l -1.04883,-3.699219 c 4.25404,-4.694826 7.63842,-10.412286 9.52539,-16.554687 l 10.19336,-3.56836 a 0.96819748,0.96819748 0 0 0 -0.15429,-1.867187 l -8.58594,-1.501953 c 0.0219,-0.249392 0.0532,-0.51342 0.0723,-0.746094 a 0.96819748,0.96819748 0 0 0 0,-0.002 c 0.0137,-0.167843 0.0118,-0.178099 0,-0.03125 0.15484,-1.90833 0.12375,-3.742327 -0.0645,-5.482422 v -0.01172 c 0.003,0.02225 0.0117,0.102091 0,-0.01953 a 0.96819748,0.96819748 0 0 0 0,-0.01367 c -0.0456,-0.415425 -0.0951,-0.838076 -0.16406,-1.267578 a 0.96819748,0.96819748 0 0 0 -0.006,-0.03125 c 0.0659,0.335988 0.0612,0.283671 0,-0.03125 -0.066,-0.406224 -0.13361,-0.795675 -0.22266,-1.207031 h 0.002 c -0.26842,-1.243089 -0.63156,-2.437901 -1.08008,-3.560547 -0.15711,-0.392401 -0.33496,-0.752167 -0.48438,-1.070313 -0.011,-0.02762 0.008,-0.01282 -0.006,-0.04297 a 0.96819748,0.96819748 0 0 0 -0.002,-0.002 c -0.14415,-0.306234 -0.29582,-0.584862 -0.44531,-0.861329 -0.001,-0.0037 -0.004,-0.0074 -0.006,-0.01172 -0.0184,-0.0551 -0.0603,-0.153842 -0.0606,-0.154297 a 0.96819748,0.96819748 0 0 0 -0.0137,-0.02539 c -0.0905,-0.16536 -0.1706,-0.280658 -0.25977,-0.421875 l 2.7461,-4.105469 a 0.96819748,0.96819748 0 0 0 -1.33203,-1.351562 l -3.73243,2.425781 c -2.96722,-3.233037 -7.07748,-5.187482 -11.94921,-5.447265 l 0.11523,-10.4375 a 0.96819748,0.96819748 0 0 0 -0.98633,-0.976563 z m 0.81836,18.304688 c 0.17631,0.02952 0.36141,0.04216 0.53516,0.07813 0.28372,0.0586 0.55697,0.125458 0.83203,0.201172 0.0311,0.009 0.0161,-0.0022 0.043,0.0039 0.004,8.23e-4 0.002,-7.75e-4 0.006,0 0.23381,0.06557 0.48671,0.160754 0.77539,0.261718 a 0.96819748,0.96819748 0 0 0 0.002,0 c 0.8307,0.289087 1.59205,0.62205 2.28711,1.041016 a 0.96819748,0.96819748 0 0 0 0.002,0 c 0.18302,0.110081 0.38806,0.271225 0.66211,0.462891 0.24382,0.170171 0.45713,0.322918 0.66407,0.490234 a 0.96819748,0.96819748 0 0 0 0.002,0.002 c 0.0111,0.0089 0.0203,0.01654 0.0312,0.02539 l -5.90625,3.857422 z m -9.47851,1.34375 -2.66016,6.515625 -4.21484,-2.619141 c 2.18368,-1.685196 4.49633,-2.974512 6.875,-3.896484 z m 24.59375,1.783203 c 0.0132,0.03747 0.0628,0.173506 0.0723,0.240234 0.0107,0.07593 0.0118,0.134768 0.01,0.177734 -0.004,0.08593 -0.0142,0.116159 -0.0137,0.113282 9e-4,-0.0052 0.0517,-0.20402 -0.0684,-0.53125 z m -5.39063,5.341797 c 0.7581,2.059203 1.17192,4.384247 1.11328,7 l -5.16797,-0.908203 z m -32.49023,3.333984 1.52929,5.306641 -5.76562,1.990234 c 1.11693,-2.598145 2.53677,-5.045531 4.23633,-7.296875 z m 31.13476,14.240234 c -1.11669,2.607771 -2.53439,5.063703 -4.23633,7.320313 l -1.53125,-5.308594 z m -37.82617,3.626953 5.18555,0.908204 -4.191409,6.287109 c -0.07011,-0.170951 -0.145727,-0.352248 -0.195313,-0.498047 -0.0064,-0.02405 0.0048,-0.01259 -0.0039,-0.03906 a 0.96819748,0.96819748 0 0 0 -0.002,-0.0039 c -0.0965,-0.288649 -0.184627,-0.566598 -0.261719,-0.845703 -0.0053,-0.02492 0.0039,-0.01264 -0.0039,-0.04102 v -0.002 c -0.08913,-0.326084 -0.174069,-0.627593 -0.236328,-0.916016 a 0.96819748,0.96819748 0 0 0 -0.002,0 c -0.31922,-1.474997 -0.332678,-3.145056 -0.289062,-4.84961 z m 22.96289,7.607422 4.2168,2.621094 c -2.18658,1.692365 -4.50051,2.991763 -6.87891,3.919922 z m -12.07422,1.435547 -0.0645,6.306641 c -2.21083,-0.376868 -4.10793,-1.250825 -5.70117,-2.541016 z"
         transform="translate(190.23,423.27)" />
      <g
         id="g1801"
         transform="matrix(0.48566,-0.049355,-0.11889,0.55703,321.86,119.12)">
        <g
           id="g1729"
           transform="matrix(0.30126,0,0,0.30126,86.264,576.82)">
          <path
             id="path1723"
             style="fill:#f3f0ed"
             d="m 157.84,81.094 c -93.796,0 -169.81,76.048 -169.81,169.84 0,93.796 76.016,169.84 169.81,169.84 93.796,0 169.84,-76.048 169.84,-169.84 0,-93.796 -76.048,-169.84 -169.84,-169.84 z m 0,28.781 c 77.896,0 141.06,63.166 141.06,141.06 0,77.896 -63.166,141.03 -141.06,141.03 -77.896,0 -141.03,-63.135 -141.03,-141.03 0,-77.896 63.135,-141.06 141.03,-141.06 z" />
          <path
             id="path1725"
             style="fill:#917c6f"
             d="m 277.84,130.75 -9.6562,9.6562 c 28.33,28.275 45.875,67.343 45.875,110.53 0,86.265 -69.954,156.19 -156.22,156.19 -43.18,0 -82.258,-17.523 -110.53,-45.844 l -9.625,9.625 c 30.742,30.798 73.203,49.875 120.16,49.875 93.796,0 169.84,-76.048 169.84,-169.84 0,-46.946 -19.055,-89.446 -49.844,-120.19 z" />
          <path
             id="path1727"
             style="fill:#917c6f"
             d="m 47.527,361.46 10.688,-10.688 c -25.58,-25.53 -41.407,-60.84 -41.407,-99.84 0,-77.896 63.166,-141.03 141.06,-141.03 38.996,0 74.281,15.827 99.812,41.406 l 10.719,-10.719 c -28.27,-28.32 -67.35,-45.848 -110.53,-45.848 -86.265,0 -156.22,69.923 -156.22,156.19 0,43.188 17.545,82.257 45.875,110.53 z" />
        </g>
        <g
           id="g1735"
           transform="matrix(0.42605,0.42605,-0.17535,0.17535,111.15,540.57)">
          <path
             id="path1731"
             style="fill:#f3f0ed"
             d="m 290.86782,244.84061 -256.021348,0 L 162.85715,23.119614 Z"
             transform="matrix(0.20208,0,0,1,124.96,-9.9905)" />
          <path
             id="path1733"
             style="fill:#917c6f"
             d="m 157.86,13.143 v 221.72 h 25.875 z" />
        </g>
        <g
           id="g1741"
           transform="matrix(0.42605,0.42605,0.17535,-0.17535,21.976,629.74)">
          <path
             id="path1737"
             style="fill:#f3f0ed"
             transform="matrix(0.20208,0,0,1,124.96,-9.9905)"
             d="m 290.86782,244.84061 -256.021348,0 L 162.85715,23.119614 Z" />
          <path
             id="path1739"
             style="fill:#917c6f"
             d="m 157.86,13.143 v 221.72 h 25.875 z" />
        </g>
        <g
           id="g1747"
           transform="matrix(0.42605,-0.42605,-0.17535,-0.17535,111.15,764.26)">
          <path
             id="path1743"
             style="fill:#f3f0ed"
             d="m 290.86782,244.84061 -256.021348,0 L 162.85715,23.119614 Z"
             transform="matrix(0.20208,0,0,1,124.96,-9.9905)" />
          <path
             id="path1745"
             style="fill:#917c6f"
             d="m 157.86,13.143 v 221.72 h 25.875 z" />
        </g>
        <g
           id="g1753"
           transform="matrix(1,0,0,2,0,-652.41)">
          <path
             id="path1749"
             style="fill:#f3f0ed"
             d="m 290.86782,244.84061 -256.021348,0 L 162.85715,23.119614 Z"
             transform="matrix(0,0.060878,-0.30126,0,212.43,642.5)" />
          <path
             id="path1751"
             style="fill:#917c6f"
             d="m 205.46,652.41 h -66.796 v 7.7952 z" />
        </g>
        <g
           id="g1759"
           transform="matrix(2,0,0,1,-133.82,0)">
          <path
             id="path1755"
             style="fill:#f3f0ed"
             d="m 290.86782,244.84061 -256.021348,0 L 162.85715,23.119614 Z"
             transform="matrix(0.060878,0,0,-0.30126,123.91,731.02)" />
          <path
             id="path1757"
             style="fill:#917c6f"
             d="m 133.82,724.05 v -66.796 h 7.7952 z" />
        </g>
        <g
           id="g1765"
           transform="matrix(0.42605,-0.42605,0.17535,0.17535,21.976,675.09)">
          <path
             id="path1761"
             style="fill:#f3f0ed"
             transform="matrix(0.20208,0,0,1,124.96,-9.9905)"
             d="m 290.86782,244.84061 -256.021348,0 L 162.85715,23.119614 Z" />
          <path
             id="path1763"
             style="fill:#917c6f"
             d="m 157.86,13.143 v 221.72 h 25.875 z" />
        </g>
        <g
           id="g1771"
           transform="matrix(0.60253,0,0,0.30126,38.703,576.82)">
          <path
             id="path1767"
             style="fill:#f3f0ed"
             transform="matrix(0.20208,0,0,1,124.96,-9.9905)"
             d="m 290.86782,244.84061 -256.021348,0 L 162.85715,23.119614 Z" />
          <path
             id="path1769"
             style="fill:#917c6f"
             d="m 157.86,13.143 v 221.72 h 25.875 z" />
        </g>
        <g
           id="g1777"
           transform="matrix(1,0,0,2,0,-652.41)">
          <path
             id="path1773"
             style="fill:#f3f0ed"
             transform="matrix(0,0.060878,0.30126,0,55.217,642.5)"
             d="m 290.86782,244.84061 -256.021348,0 L 162.85715,23.119614 Z" />
          <path
             id="path1775"
             style="fill:#917c6f"
             d="m 62.187,652.41 h 66.796 v 7.7952 z" />
        </g>
        <g
           id="g1785"
           transform="matrix(0.41932,0,0,0.41932,67.628,547.19)">
          <rect
             id="rect1779"
             style="fill:#f3f0ed"
             height="102.86"
             width="102.86"
             y="199.50999"
             x="106.43" />
          <path
             id="path1781"
             style="fill:#917c6f"
             d="M 209.29,199.51 V 302.37 H 106.43 Z" />
          <rect
             id="rect1783"
             style="fill:#917c6f"
             height="80"
             width="80"
             y="210.92999"
             x="117.86" />
        </g>
        <g
           id="g1793"
           transform="matrix(0.37001,0,0,0.37001,75.412,559.57)">
          <rect
             id="rect1787"
             style="fill:#f3f0ed"
             transform="rotate(-45)"
             height="102.86"
             width="102.86"
             y="237.63"
             x="-117.24" />
          <path
             id="path1789"
             style="fill:#917c6f"
             d="m 157.86,178.2 72.731,72.731 -72.731,72.731 v -145.46 z" />
          <rect
             id="rect1791"
             style="fill:#917c6f"
             transform="rotate(-45)"
             height="80"
             width="80"
             y="249.06"
             x="-105.82" />
        </g>
        <path
           id="path1795"
           style="fill:#f3f0ed"
           d="m 188.39345,250.30106 a 30.809652,30.809652 0 0 1 -30.42756,30.80728 30.809652,30.809652 0 0 1 -31.18226,-30.04316 30.809652,30.809652 0 0 1 29.65413,-31.55245 30.809652,30.809652 0 0 1 31.91779,29.26055"
           transform="matrix(0.38239,0,0,0.38239,73.479,556.51)" />
        <path
           id="path1797"
           style="fill:#917c6f"
           d="m 142.24,644.06 -16.646,16.658 c 2.1165,2.0296 4.9857,3.2862 8.1497,3.2862 6.5066,0 11.782,-5.2757 11.782,-11.782 l -0.0239,-0.58555 c -0.14625,-2.9458 -1.3593,-5.5952 -3.2623,-7.5761 z" />
        <path
           id="path1799"
           style="fill:#917c6f"
           d="m 188.39345,250.30106 a 30.809652,30.809652 0 0 1 -30.42756,30.80728 30.809652,30.809652 0 0 1 -31.18226,-30.04316 30.809652,30.809652 0 0 1 29.65413,-31.55245 30.809652,30.809652 0 0 1 31.91779,29.26055"
           transform="matrix(0.27582,0,0,0.27582,90.272,583.18)" />
      </g>
      <path
         id="path1803"
         style="color:#000000;text-indent:0;text-transform:none;fill:#483e37"
         d="m 400.05,622.97 c -1.3422,0.0116 -2.6776,0.42736 -3.8246,1.1194 -0.88078,0.40802 -1.5159,1.1384 -2.0989,1.889 -0.43599,0.39141 -0.42859,1.1219 -0.1166,1.5858 0.43234,0.40797 1.1017,0.41282 1.6558,0.27985 0.51512,0.0243 1.0693,-0.19746 1.6325,0.0233 0.80956,0.23758 1.577,0.71631 1.9356,1.5158 0.33995,0.58239 0.52034,1.3472 0.0933,1.9356 -0.28672,0.46125 -0.71075,0.97309 -1.0961,1.2593 -1.5273,1.2101 -3.4351,1.7362 -5.2239,2.4254 -0.54867,0.2015 -1.8158,-0.0812 -1.7724,0.76959 0.43608,0.77545 1.3674,0.0715 2.0289,0.0933 1.2168,-0.18217 2.4679,-0.34083 3.6147,-0.81623 0.44077,-0.16237 0.8691,-0.35378 1.2826,-0.58302 l 1.5625,2.472 0.51306,-0.32649 -1.9823,-2.1922 c 0.77043,-0.43953 1.4714,-0.99096 2.0289,-1.6791 l 2.2621,4.1744 0.51305,-0.27985 -2.6819,-4.0345 c 0.0715,-0.0935 0.14374,-0.18182 0.20989,-0.27985 0.59816,-0.80454 0.93497,-1.8418 0.86287,-2.8451 -0.11027,-1.2112 -0.9791,-2.1666 -1.9123,-2.8685 -0.61542,-0.43407 -1.355,-0.63212 -2.0989,-0.6763 -0.45859,-0.11866 0.43424,-0.35473 0.58302,-0.46642 0.63169,-0.34801 1.3557,-0.38107 2.0522,-0.46642 0.90798,-0.0828 1.7787,0.24653 2.6586,0.41978 2.1711,0.53305 4.1187,1.6841 6.1101,2.6586 3.0057,1.65 5.5072,4.031 8.0923,6.25 0.52088,0.27635 0.97169,1.4938 1.6325,1.0028 0.0777,-0.70844 -0.73442,-1.1079 -1.1194,-1.6091 -1.1498,-1.6388 -2.4767,-3.1728 -4.0812,-4.3843 -1.5559,-1.2476 -3.134,-2.4809 -4.7574,-3.638 -1.6243,-1.0704 -3.3781,-2.0264 -5.3172,-2.3554 -0.95691,-0.15068 -1.9228,-0.35855 -2.8918,-0.37313 -0.11901,0.004 -0.23081,-0.004 -0.34981,0 z m 5.0606,6.32 5.0839,7.6492 0.51306,-0.32649 -5.597,-7.3227 z m -2.9851,1.1194 4.0112,6.5298 0.51306,-0.32649 -4.5242,-6.2033 z" />
      <path
         d="m 380.031,632.4271 c -1.3422,0.0116 -2.6776,0.42736 -3.8246,1.1194 -0.88078,0.40802 -1.5159,1.1384 -2.0989,1.889 -0.43599,0.39141 -0.42859,1.1219 -0.1166,1.5858 0.43234,0.40797 1.1017,0.41282 1.6558,0.27985 0.51512,0.0243 1.0693,-0.19746 1.6325,0.0233 0.80956,0.23758 1.577,0.71631 1.9356,1.5158 0.33995,0.58239 0.52034,1.3472 0.0933,1.9356 -0.28672,0.46125 -0.71075,0.97309 -1.0961,1.2593 -1.5273,1.2101 -3.4351,1.7362 -5.2239,2.4254 -0.54867,0.2015 -1.8158,-0.0812 -1.7724,0.76959 0.43608,0.77545 1.3674,0.0715 2.0289,0.0933 1.2168,-0.18217 2.4679,-0.34083 3.6147,-0.81623 0.44077,-0.16237 0.8691,-0.35378 1.2826,-0.58302 l 1.5625,2.472 0.51306,-0.32649 -1.9823,-2.1922 c 0.77043,-0.43953 1.4714,-0.99096 2.0289,-1.6791 l 2.2621,4.1744 0.51305,-0.27985 -2.6819,-4.0345 c 0.0715,-0.0935 0.14374,-0.18182 0.20989,-0.27985 0.59816,-0.80454 0.93497,-1.8418 0.86287,-2.8451 -0.11027,-1.2112 -0.9791,-2.1666 -1.9123,-2.8685 -0.61542,-0.43407 -1.355,-0.63212 -2.0989,-0.6763 -0.45859,-0.11866 0.43424,-0.35473 0.58302,-0.46642 0.63169,-0.34801 1.3557,-0.38107 2.0522,-0.46642 0.90798,-0.0828 1.7787,0.24653 2.6586,0.41978 2.1711,0.53305 4.1187,1.6841 6.1101,2.6586 3.0057,1.65 5.5072,4.031 8.0923,6.25 0.52088,0.27635 0.97169,1.4938 1.6325,1.0028 0.0777,-0.70844 -0.73442,-1.1079 -1.1194,-1.6091 -1.1498,-1.6388 -2.4767,-3.1728 -4.0812,-4.3843 -1.5559,-1.2476 -3.134,-2.4809 -4.7574,-3.638 -1.6243,-1.0704 -3.3781,-2.0264 -5.3172,-2.3554 -0.95691,-0.15068 -1.9228,-0.35855 -2.8918,-0.37313 -0.11901,0.004 -0.23081,-0.004 -0.34981,0 z m 5.0606,6.32 5.0839,7.6492 0.51306,-0.32649 -5.597,-7.3227 z m -2.9851,1.1194 4.0112,6.5298 0.51306,-0.32649 -4.5242,-6.2033 z"
         style="color:#000000;text-indent:0;text-transform:none;fill:#483e37"
         id="use1805" />
      <path
         id="use1807"
         style="color:#000000;text-indent:0;text-transform:none;fill:#483e37"
         d="m 273.391,616.6251 c -1.3422,0.0116 -2.6776,0.42736 -3.8246,1.1194 -0.88078,0.40802 -1.5159,1.1384 -2.0989,1.889 -0.43599,0.39141 -0.42859,1.1219 -0.1166,1.5858 0.43234,0.40797 1.1017,0.41282 1.6558,0.27985 0.51512,0.0243 1.0693,-0.19746 1.6325,0.0233 0.80956,0.23758 1.577,0.71631 1.9356,1.5158 0.33995,0.58239 0.52034,1.3472 0.0933,1.9356 -0.28672,0.46125 -0.71075,0.97309 -1.0961,1.2593 -1.5273,1.2101 -3.4351,1.7362 -5.2239,2.4254 -0.54867,0.2015 -1.8158,-0.0812 -1.7724,0.76959 0.43608,0.77545 1.3674,0.0715 2.0289,0.0933 1.2168,-0.18217 2.4679,-0.34083 3.6147,-0.81623 0.44077,-0.16237 0.8691,-0.35378 1.2826,-0.58302 l 1.5625,2.472 0.51306,-0.32649 -1.9823,-2.1922 c 0.77043,-0.43953 1.4714,-0.99096 2.0289,-1.6791 l 2.2621,4.1744 0.51305,-0.27985 -2.6819,-4.0345 c 0.0715,-0.0935 0.14374,-0.18182 0.20989,-0.27985 0.59816,-0.80454 0.93497,-1.8418 0.86287,-2.8451 -0.11027,-1.2112 -0.9791,-2.1666 -1.9123,-2.8685 -0.61542,-0.43407 -1.355,-0.63212 -2.0989,-0.6763 -0.45859,-0.11866 0.43424,-0.35473 0.58302,-0.46642 0.63169,-0.34801 1.3557,-0.38107 2.0522,-0.46642 0.90798,-0.0828 1.7787,0.24653 2.6586,0.41978 2.1711,0.53305 4.1187,1.6841 6.1101,2.6586 3.0057,1.65 5.5072,4.031 8.0923,6.25 0.52088,0.27635 0.97169,1.4938 1.6325,1.0028 0.0777,-0.70844 -0.73442,-1.1079 -1.1194,-1.6091 -1.1498,-1.6388 -2.4767,-3.1728 -4.0812,-4.3843 -1.5559,-1.2476 -3.134,-2.4809 -4.7574,-3.638 -1.6243,-1.0704 -3.3781,-2.0264 -5.3172,-2.3554 -0.95691,-0.15068 -1.9228,-0.35855 -2.8918,-0.37313 -0.11901,0.004 -0.23081,-0.004 -0.34981,0 z m 5.0606,6.32 5.0839,7.6492 0.51306,-0.32649 -5.597,-7.3227 z m -2.9851,1.1194 4.0112,6.5298 0.51306,-0.32649 -4.5242,-6.2033 z" />
      <path
         d="m 287.028,629.6051 c -1.3422,0.0116 -2.6776,0.42736 -3.8246,1.1194 -0.88078,0.40802 -1.5159,1.1384 -2.0989,1.889 -0.43599,0.39141 -0.42859,1.1219 -0.1166,1.5858 0.43234,0.40797 1.1017,0.41282 1.6558,0.27985 0.51512,0.0243 1.0693,-0.19746 1.6325,0.0233 0.80956,0.23758 1.577,0.71631 1.9356,1.5158 0.33995,0.58239 0.52034,1.3472 0.0933,1.9356 -0.28672,0.46125 -0.71075,0.97309 -1.0961,1.2593 -1.5273,1.2101 -3.4351,1.7362 -5.2239,2.4254 -0.54867,0.2015 -1.8158,-0.0812 -1.7724,0.76959 0.43608,0.77545 1.3674,0.0715 2.0289,0.0933 1.2168,-0.18217 2.4679,-0.34083 3.6147,-0.81623 0.44077,-0.16237 0.8691,-0.35378 1.2826,-0.58302 l 1.5625,2.472 0.51306,-0.32649 -1.9823,-2.1922 c 0.77043,-0.43953 1.4714,-0.99096 2.0289,-1.6791 l 2.2621,4.1744 0.51305,-0.27985 -2.6819,-4.0345 c 0.0715,-0.0935 0.14374,-0.18182 0.20989,-0.27985 0.59816,-0.80454 0.93497,-1.8418 0.86287,-2.8451 -0.11027,-1.2112 -0.9791,-2.1666 -1.9123,-2.8685 -0.61542,-0.43407 -1.355,-0.63212 -2.0989,-0.6763 -0.45859,-0.11866 0.43424,-0.35473 0.58302,-0.46642 0.63169,-0.34801 1.3557,-0.38107 2.0522,-0.46642 0.90798,-0.0828 1.7787,0.24653 2.6586,0.41978 2.1711,0.53305 4.1187,1.6841 6.1101,2.6586 3.0057,1.65 5.5072,4.031 8.0923,6.25 0.52088,0.27635 0.97169,1.4938 1.6325,1.0028 0.0777,-0.70844 -0.73442,-1.1079 -1.1194,-1.6091 -1.1498,-1.6388 -2.4767,-3.1728 -4.0812,-4.3843 -1.5559,-1.2476 -3.134,-2.4809 -4.7574,-3.638 -1.6243,-1.0704 -3.3781,-2.0264 -5.3172,-2.3554 -0.95691,-0.15068 -1.9228,-0.35855 -2.8918,-0.37313 -0.11901,0.004 -0.23081,-0.004 -0.34981,0 z m 5.0606,6.32 5.0839,7.6492 0.51306,-0.32649 -5.597,-7.3227 z m -2.9851,1.1194 4.0112,6.5298 0.51306,-0.32649 -4.5242,-6.2033 z"
         style="color:#000000;text-indent:0;text-transform:none;fill:#483e37"
         id="use1809" />
      <path
         id="use1811"
         style="color:#000000;text-indent:0;text-transform:none;fill:#483e37"
         d="m 423.748,464.4951 c -1.3422,0.0116 -2.6776,0.42736 -3.8246,1.1194 -0.88078,0.40802 -1.5159,1.1384 -2.0989,1.889 -0.43599,0.39141 -0.42859,1.1219 -0.1166,1.5858 0.43234,0.40797 1.1017,0.41282 1.6558,0.27985 0.51512,0.0243 1.0693,-0.19746 1.6325,0.0233 0.80956,0.23758 1.577,0.71631 1.9356,1.5158 0.33995,0.58239 0.52034,1.3472 0.0933,1.9356 -0.28672,0.46125 -0.71075,0.97309 -1.0961,1.2593 -1.5273,1.2101 -3.4351,1.7362 -5.2239,2.4254 -0.54867,0.2015 -1.8158,-0.0812 -1.7724,0.76959 0.43608,0.77545 1.3674,0.0715 2.0289,0.0933 1.2168,-0.18217 2.4679,-0.34083 3.6147,-0.81623 0.44077,-0.16237 0.8691,-0.35378 1.2826,-0.58302 l 1.5625,2.472 0.51306,-0.32649 -1.9823,-2.1922 c 0.77043,-0.43953 1.4714,-0.99096 2.0289,-1.6791 l 2.2621,4.1744 0.51305,-0.27985 -2.6819,-4.0345 c 0.0715,-0.0935 0.14374,-0.18182 0.20989,-0.27985 0.59816,-0.80454 0.93497,-1.8418 0.86287,-2.8451 -0.11027,-1.2112 -0.9791,-2.1666 -1.9123,-2.8685 -0.61542,-0.43407 -1.355,-0.63212 -2.0989,-0.6763 -0.45859,-0.11866 0.43424,-0.35473 0.58302,-0.46642 0.63169,-0.34801 1.3557,-0.38107 2.0522,-0.46642 0.90798,-0.0828 1.7787,0.24653 2.6586,0.41978 2.1711,0.53305 4.1187,1.6841 6.1101,2.6586 3.0057,1.65 5.5072,4.031 8.0923,6.25 0.52088,0.27635 0.97169,1.4938 1.6325,1.0028 0.0777,-0.70844 -0.73442,-1.1079 -1.1194,-1.6091 -1.1498,-1.6388 -2.4767,-3.1728 -4.0812,-4.3843 -1.5559,-1.2476 -3.134,-2.4809 -4.7574,-3.638 -1.6243,-1.0704 -3.3781,-2.0264 -5.3172,-2.3554 -0.95691,-0.15068 -1.9228,-0.35855 -2.8918,-0.37313 -0.11901,0.004 -0.23081,-0.004 -0.34981,0 z m 5.0606,6.32 5.0839,7.6492 0.51306,-0.32649 -5.597,-7.3227 z m -2.9851,1.1194 4.0112,6.5298 0.51306,-0.32649 -4.5242,-6.2033 z" />
      <path
         d="m 439.557,454.3431 c -1.3422,0.0116 -2.6776,0.42736 -3.8246,1.1194 -0.88078,0.40802 -1.5159,1.1384 -2.0989,1.889 -0.43599,0.39141 -0.42859,1.1219 -0.1166,1.5858 0.43234,0.40797 1.1017,0.41282 1.6558,0.27985 0.51512,0.0243 1.0693,-0.19746 1.6325,0.0233 0.80956,0.23758 1.577,0.71631 1.9356,1.5158 0.33995,0.58239 0.52034,1.3472 0.0933,1.9356 -0.28672,0.46125 -0.71075,0.97309 -1.0961,1.2593 -1.5273,1.2101 -3.4351,1.7362 -5.2239,2.4254 -0.54867,0.2015 -1.8158,-0.0812 -1.7724,0.76959 0.43608,0.77545 1.3674,0.0715 2.0289,0.0933 1.2168,-0.18217 2.4679,-0.34083 3.6147,-0.81623 0.44077,-0.16237 0.8691,-0.35378 1.2826,-0.58302 l 1.5625,2.472 0.51306,-0.32649 -1.9823,-2.1922 c 0.77043,-0.43953 1.4714,-0.99096 2.0289,-1.6791 l 2.2621,4.1744 0.51305,-0.27985 -2.6819,-4.0345 c 0.0715,-0.0935 0.14374,-0.18182 0.20989,-0.27985 0.59816,-0.80454 0.93497,-1.8418 0.86287,-2.8451 -0.11027,-1.2112 -0.9791,-2.1666 -1.9123,-2.8685 -0.61542,-0.43407 -1.355,-0.63212 -2.0989,-0.6763 -0.45859,-0.11866 0.43424,-0.35473 0.58302,-0.46642 0.63169,-0.34801 1.3557,-0.38107 2.0522,-0.46642 0.90798,-0.0828 1.7787,0.24653 2.6586,0.41978 2.1711,0.53305 4.1187,1.6841 6.1101,2.6586 3.0057,1.65 5.5072,4.031 8.0923,6.25 0.52088,0.27635 0.97169,1.4938 1.6325,1.0028 0.0777,-0.70844 -0.73442,-1.1079 -1.1194,-1.6091 -1.1498,-1.6388 -2.4767,-3.1728 -4.0812,-4.3843 -1.5559,-1.2476 -3.134,-2.4809 -4.7574,-3.638 -1.6243,-1.0704 -3.3781,-2.0264 -5.3172,-2.3554 -0.95691,-0.15068 -1.9228,-0.35855 -2.8918,-0.37313 -0.11901,0.004 -0.23081,-0.004 -0.34981,0 z m 5.0606,6.32 5.0839,7.6492 0.51306,-0.32649 -5.597,-7.3227 z m -2.9851,1.1194 4.0112,6.5298 0.51306,-0.32649 -4.5242,-6.2033 z"
         style="color:#000000;text-indent:0;text-transform:none;fill:#483e37"
         id="use1813" />
      <path
         id="use1815"
         style="color:#000000;text-indent:0;text-transform:none;fill:#483e37"
         d="m 360.765,465.9601 c -1.3422,0.0116 -2.6776,0.42736 -3.8246,1.1194 -0.88078,0.40802 -1.5159,1.1384 -2.0989,1.889 -0.43599,0.39141 -0.42859,1.1219 -0.1166,1.5858 0.43234,0.40797 1.1017,0.41282 1.6558,0.27985 0.51512,0.0243 1.0693,-0.19746 1.6325,0.0233 0.80956,0.23758 1.577,0.71631 1.9356,1.5158 0.33995,0.58239 0.52034,1.3472 0.0933,1.9356 -0.28672,0.46125 -0.71075,0.97309 -1.0961,1.2593 -1.5273,1.2101 -3.4351,1.7362 -5.2239,2.4254 -0.54867,0.2015 -1.8158,-0.0812 -1.7724,0.76959 0.43608,0.77545 1.3674,0.0715 2.0289,0.0933 1.2168,-0.18217 2.4679,-0.34083 3.6147,-0.81623 0.44077,-0.16237 0.8691,-0.35378 1.2826,-0.58302 l 1.5625,2.472 0.51306,-0.32649 -1.9823,-2.1922 c 0.77043,-0.43953 1.4714,-0.99096 2.0289,-1.6791 l 2.2621,4.1744 0.51305,-0.27985 -2.6819,-4.0345 c 0.0715,-0.0935 0.14374,-0.18182 0.20989,-0.27985 0.59816,-0.80454 0.93497,-1.8418 0.86287,-2.8451 -0.11027,-1.2112 -0.9791,-2.1666 -1.9123,-2.8685 -0.61542,-0.43407 -1.355,-0.63212 -2.0989,-0.6763 -0.45859,-0.11866 0.43424,-0.35473 0.58302,-0.46642 0.63169,-0.34801 1.3557,-0.38107 2.0522,-0.46642 0.90798,-0.0828 1.7787,0.24653 2.6586,0.41978 2.1711,0.53305 4.1187,1.6841 6.1101,2.6586 3.0057,1.65 5.5072,4.031 8.0923,6.25 0.52088,0.27635 0.97169,1.4938 1.6325,1.0028 0.0777,-0.70844 -0.73442,-1.1079 -1.1194,-1.6091 -1.1498,-1.6388 -2.4767,-3.1728 -4.0812,-4.3843 -1.5559,-1.2476 -3.134,-2.4809 -4.7574,-3.638 -1.6243,-1.0704 -3.3781,-2.0264 -5.3172,-2.3554 -0.95691,-0.15068 -1.9228,-0.35855 -2.8918,-0.37313 -0.11901,0.004 -0.23081,-0.004 -0.34981,0 z m 5.0606,6.32 5.0839,7.6492 0.51306,-0.32649 -5.597,-7.3227 z m -2.9851,1.1194 4.0112,6.5298 0.51306,-0.32649 -4.5242,-6.2033 z" />
      <path
         d="m 343.592,482.1221 c -1.3422,0.0116 -2.6776,0.42736 -3.8246,1.1194 -0.88078,0.40802 -1.5159,1.1384 -2.0989,1.889 -0.43599,0.39141 -0.42859,1.1219 -0.1166,1.5858 0.43234,0.40797 1.1017,0.41282 1.6558,0.27985 0.51512,0.0243 1.0693,-0.19746 1.6325,0.0233 0.80956,0.23758 1.577,0.71631 1.9356,1.5158 0.33995,0.58239 0.52034,1.3472 0.0933,1.9356 -0.28672,0.46125 -0.71075,0.97309 -1.0961,1.2593 -1.5273,1.2101 -3.4351,1.7362 -5.2239,2.4254 -0.54867,0.2015 -1.8158,-0.0812 -1.7724,0.76959 0.43608,0.77545 1.3674,0.0715 2.0289,0.0933 1.2168,-0.18217 2.4679,-0.34083 3.6147,-0.81623 0.44077,-0.16237 0.8691,-0.35378 1.2826,-0.58302 l 1.5625,2.472 0.51306,-0.32649 -1.9823,-2.1922 c 0.77043,-0.43953 1.4714,-0.99096 2.0289,-1.6791 l 2.2621,4.1744 0.51305,-0.27985 -2.6819,-4.0345 c 0.0715,-0.0935 0.14374,-0.18182 0.20989,-0.27985 0.59816,-0.80454 0.93497,-1.8418 0.86287,-2.8451 -0.11027,-1.2112 -0.9791,-2.1666 -1.9123,-2.8685 -0.61542,-0.43407 -1.355,-0.63212 -2.0989,-0.6763 -0.45859,-0.11866 0.43424,-0.35473 0.58302,-0.46642 0.63169,-0.34801 1.3557,-0.38107 2.0522,-0.46642 0.90798,-0.0828 1.7787,0.24653 2.6586,0.41978 2.1711,0.53305 4.1187,1.6841 6.1101,2.6586 3.0057,1.65 5.5072,4.031 8.0923,6.25 0.52088,0.27635 0.97169,1.4938 1.6325,1.0028 0.0777,-0.70844 -0.73442,-1.1079 -1.1194,-1.6091 -1.1498,-1.6388 -2.4767,-3.1728 -4.0812,-4.3843 -1.5559,-1.2476 -3.134,-2.4809 -4.7574,-3.638 -1.6243,-1.0704 -3.3781,-2.0264 -5.3172,-2.3554 -0.95691,-0.15068 -1.9228,-0.35855 -2.8918,-0.37313 -0.11901,0.004 -0.23081,-0.004 -0.34981,0 z m 5.0606,6.32 5.0839,7.6492 0.51306,-0.32649 -5.597,-7.3227 z m -2.9851,1.1194 4.0112,6.5298 0.51306,-0.32649 -4.5242,-6.2033 z"
         style="color:#000000;text-indent:0;text-transform:none;fill:#483e37"
         id="use1817" />
      <path
         id="use1819"
         style="color:#000000;text-indent:0;text-transform:none;fill:#483e37"
         d="m 376.927,477.5764 c -1.3422,0.0116 -2.6776,0.42736 -3.8246,1.1194 -0.88078,0.40802 -1.5159,1.1384 -2.0989,1.889 -0.43599,0.39141 -0.42859,1.1219 -0.1166,1.5858 0.43234,0.40797 1.1017,0.41282 1.6558,0.27985 0.51512,0.0243 1.0693,-0.19746 1.6325,0.0233 0.80956,0.23758 1.577,0.71631 1.9356,1.5158 0.33995,0.58239 0.52034,1.3472 0.0933,1.9356 -0.28672,0.46125 -0.71075,0.97309 -1.0961,1.2593 -1.5273,1.2101 -3.4351,1.7362 -5.2239,2.4254 -0.54867,0.2015 -1.8158,-0.0812 -1.7724,0.76959 0.43608,0.77545 1.3674,0.0715 2.0289,0.0933 1.2168,-0.18217 2.4679,-0.34083 3.6147,-0.81623 0.44077,-0.16237 0.8691,-0.35378 1.2826,-0.58302 l 1.5625,2.472 0.51306,-0.32649 -1.9823,-2.1922 c 0.77043,-0.43953 1.4714,-0.99096 2.0289,-1.6791 l 2.2621,4.1744 0.51305,-0.27985 -2.6819,-4.0345 c 0.0715,-0.0935 0.14374,-0.18182 0.20989,-0.27985 0.59816,-0.80454 0.93497,-1.8418 0.86287,-2.8451 -0.11027,-1.2112 -0.9791,-2.1666 -1.9123,-2.8685 -0.61542,-0.43407 -1.355,-0.63212 -2.0989,-0.6763 -0.45859,-0.11866 0.43424,-0.35473 0.58302,-0.46642 0.63169,-0.34801 1.3557,-0.38107 2.0522,-0.46642 0.90798,-0.0828 1.7787,0.24653 2.6586,0.41978 2.1711,0.53305 4.1187,1.6841 6.1101,2.6586 3.0057,1.65 5.5072,4.031 8.0923,6.25 0.52088,0.27635 0.97169,1.4938 1.6325,1.0028 0.0777,-0.70844 -0.73442,-1.1079 -1.1194,-1.6091 -1.1498,-1.6388 -2.4767,-3.1728 -4.0812,-4.3843 -1.5559,-1.2476 -3.134,-2.4809 -4.7574,-3.638 -1.6243,-1.0704 -3.3781,-2.0264 -5.3172,-2.3554 -0.95691,-0.15068 -1.9228,-0.35855 -2.8918,-0.37313 -0.11901,0.004 -0.23081,-0.004 -0.34981,0 z m 5.0606,6.32 5.0839,7.6492 0.51306,-0.32649 -5.597,-7.3227 z m -2.9851,1.1194 4.0112,6.5298 0.51306,-0.32649 -4.5242,-6.2033 z" />
    </g>
  </g>
  <metadata
     id="metadata960">
    <rdf:RDF>
      <cc:Work>
        <dc:format>image/svg+xml</dc:format>
        <dc:type
           rdf:resource="http://purl.org/dc/dcmitype/StillImage" />
        <cc:license
           rdf:resource="http://creativecommons.org/publicdomain/zero/1.0/" />
        <dc:publisher>
          <cc:Agent
             rdf:about="http://openclipart.org/">
            <dc:title>Openclipart</dc:title>
          </cc:Agent>
        </dc:publisher>
        <dc:title>treasure map</dc:title>
        <dc:date>2011-02-18T17:44:13</dc:date>
        <dc:description />
        <dc:source>https://openclipart.org/detail/120607/treasure-map-by-tzunghaor</dc:source>
        <dc:creator>
          <cc:Agent>
            <dc:title>tzunghaor</dc:title>
          </cc:Agent>
        </dc:creator>
        <dc:subject>
          <rdf:Bag>
            <rdf:li>map</rdf:li>
            <rdf:li>pirate</rdf:li>
            <rdf:li>sea</rdf:li>
            <rdf:li>treasure</rdf:li>
          </rdf:Bag>
        </dc:subject>
      </cc:Work>
      <cc:License
         rdf:about="http://creativecommons.org/publicdomain/zero/1.0/">
        <cc:permits
           rdf:resource="http://creativecommons.org/ns#Reproduction" />
        <cc:permits
           rdf:resource="http://creativecommons.org/ns#Distribution" />
        <cc:permits
           rdf:resource="http://creativecommons.org/ns#DerivativeWorks" />
      </cc:License>
    </rdf:RDF>
  </metadata>
</svg>
